<?xml version="1.0" standalone="no"?>
<!DOCTYPE svg PUBLIC "-//W3C//DTD SVG 1.1//EN" "http://www.w3.org/Graphics/SVG/1.1/DTD/svg11.dtd" >
<svg xmlns="http://www.w3.org/2000/svg" xmlns:xlink="http://www.w3.org/1999/xlink" version="1.1">
<metadata></metadata>
<defs>
<font id="kontrapunktlight_italic" horiz-adv-x="1333" >
<font-face units-per-em="2048" ascent="1638" descent="-410" />
<missing-glyph horiz-adv-x="456" />
<glyph horiz-adv-x="0" />
<glyph horiz-adv-x="682" />
<glyph unicode=" "  horiz-adv-x="456" />
<glyph unicode="&#x09;" horiz-adv-x="456" />
<glyph unicode="&#xa0;" horiz-adv-x="456" />
<glyph unicode="!" horiz-adv-x="524" d="M506 1362l-139 -981h-117l102 981h154zM373 186l-23 -186h-172l23 186h172z" />
<glyph unicode="&#x22;" horiz-adv-x="636" d="M711 1362l-86 -545h-99l49 545h136zM397 1362l-86 -545h-100l49 545h137z" />
<glyph unicode="#" horiz-adv-x="1447" d="M1374 938l-31 -109h-229l-84 -292h232l-29 -109h-232l-120 -428h-119l123 428h-291l-121 -428h-115l121 428h-233l30 109h232l82 292h-232l29 109h231l121 424h117l-119 -424h289l121 424h119l-121 -424h229zM997 829h-290l-84 -292h290z" />
<glyph unicode="$" d="M1266 1333l-29 -112q-211 39 -418 39q-97 0 -164.5 -11.5t-109.5 -31t-67.5 -56.5t-36.5 -76.5t-19 -101.5q-5 -47 -2 -80.5t18 -55.5t37 -35.5t55.5 -20.5t73 -11t89.5 -7q11 0 17.5 -0.5t16.5 -1t18 -1.5q26 -2 77 -5q101 -5 149 -10t115 -25.5t93 -56.5t42 -102.5 t4 -164.5q-14 -116 -42 -190.5t-83 -125.5t-138 -74t-210 -28l-29 -232h-129l29 230q-100 3 -207.5 15t-165.5 23l-57 11l30 119q250 -48 467 -48q201 0 283.5 55t101.5 206q6 51 5.5 86.5t-5 63t-25 44.5t-39.5 28t-63.5 17.5t-83 9.5t-110.5 7q-207 10 -272 23 q-134 26 -179 108q-43 79 -24 231q27 212 124 293q61 53 151.5 75.5t240.5 24.5l26 228h129l-26 -230q175 -9 342 -43z" />
<glyph unicode="%" horiz-adv-x="1804" d="M1726 338q-13 -109 -30.5 -170t-56 -104t-98 -57.5t-159.5 -14.5q-81 0 -131.5 10t-84 33.5t-45 63t-13.5 99t10 140.5q14 110 33 173t59 104.5t98.5 55t157.5 13.5q103 0 159.5 -16.5t84.5 -56t27.5 -106.5t-11.5 -167zM1608 1362l-1108 -1362h-125l1102 1362h131z M854 1026q-9 -73 -19.5 -120.5t-28 -89.5t-40.5 -65.5t-60 -40.5t-84 -23.5t-114 -6.5q-100 0 -156 16t-86 55t-30.5 106t10.5 169q13 110 32 173.5t59 104.5t98 54.5t157 13.5q103 0 159.5 -16.5t85 -56t28.5 -106.5t-11 -167zM1614 338q16 99 9.5 154.5t-42.5 74.5 t-127 19q-44 0 -72 -3t-52.5 -13.5t-38.5 -26.5t-26.5 -45.5t-19.5 -66t-14 -93.5q-8 -67 -8.5 -106t6 -69.5t27.5 -44t53 -20t86 -6.5q45 0 74.5 3.5t53 15t37 26.5t24.5 45.5t17 64.5t13 91zM741 1026q16 99 9 154.5t-43 74.5t-127 19q-65 0 -101 -8t-62 -36t-37.5 -73.5 t-21.5 -130.5q-7 -56 -9.5 -90.5t1.5 -64.5t14 -46t31.5 -27t50.5 -14.5t74 -3.5t74.5 3.5t53 15t37.5 26.5t25 45.5t17.5 64.5t13.5 91z" />
<glyph unicode="&#x26;" horiz-adv-x="1355" d="M1366 748l-14 -115h-181l-75 -613q-244 -34 -428 -34q-104 0 -173.5 7t-137.5 30t-104.5 64.5t-54 113.5t-5.5 174q7 54 19.5 100t21.5 65l8 19l227 119q17 9 20 24q2 15 -14 25l-180 109q-8 76 4 178q13 106 48.5 178t95.5 112t135 57t178 17q92 0 182.5 -11t135.5 -21 l44 -11l-31 -108q-164 35 -311 35q-82 0 -135 -9t-97 -35t-68 -75.5t-34 -128.5q-19 -152 46 -209t225 -57h336l24 204h137l-24 -204h180zM1034 633h-350q-85 0 -139.5 -10t-100 -37.5t-70.5 -80.5t-36 -136q-9 -76 4.5 -127.5t37.5 -79t77.5 -41.5t97 -16.5t123.5 -2.5 q62 0 135 5t115 9l43 5z" />
<glyph unicode="'" horiz-adv-x="323" d="M397 1362l-86 -545h-100l49 545h137z" />
<glyph unicode="(" horiz-adv-x="589" d="M653 1368l-14 -113q-51 0 -79.5 -7t-51.5 -25q-53 -41 -72 -166q-27 -180 -45 -334l-61 -492q-3 -34 -17 -151t-20 -182q-9 -115 22.5 -156.5t130.5 -44.5l-12 -111h-26q-106 0 -161 38.5t-75 127.5q-17 85 2 248l98 799q20 171 31 223q34 194 105.5 271t218.5 77 q14 0 26 -2z" />
<glyph unicode=")" horiz-adv-x="589" d="M535 1202q16 -83 -3 -246l-98 -798q-22 -186 -28 -226q-34 -194 -106.5 -270t-219.5 -76h-25l13 111q92 3 133 33q49 36 69 168q37 251 47 333l62 492q20 160 35 334q9 114 -22 154.5t-132 43.5l14 113q10 2 25 2q110 0 163.5 -38.5t72.5 -129.5z" />
<glyph unicode="*" horiz-adv-x="854" d="M889 1071l-268 -102l124 -240l-81 -59l-123 248l-197 -248l-63 59l186 240l-240 102l45 100l240 -100l37 291h92l-37 -291l264 100z" />
<glyph unicode="+" d="M1186 745l-17 -129h-364l-49 -407h-127l49 407h-365l17 129h364l51 406h127l-51 -406h365z" />
<glyph unicode="," horiz-adv-x="417" d="M340 186l-23 -186l-141 -276h-125l142 276h-95l23 186h219z" />
<glyph unicode="-" horiz-adv-x="577" d="M551 563l-16 -133h-385l16 133h385z" />
<glyph unicode="." horiz-adv-x="407" d="M330 186l-23 -186h-207l23 186h207z" />
<glyph unicode="/" horiz-adv-x="841" d="M942 1364l-936 -1772h-123l936 1772h123z" />
<glyph unicode="0" d="M1294 680q-11 -92 -21 -157t-23.5 -131t-28 -110.5t-36 -88.5t-45.5 -71.5t-58.5 -53t-73.5 -39.5t-92 -24.5t-112.5 -14.5t-135.5 -4t-135.5 4t-110 14.5t-87 24.5t-65 39.5t-46.5 53t-29 71.5t-14.5 88.5t-1.5 110.5t8.5 131.5t17.5 156.5q19 155 39.5 257t54.5 185 t75 129t109.5 76.5t150 40.5t202.5 10q75 0 134 -4.5t109 -15.5t86 -26t64 -41t46 -54.5t28.5 -72.5t14.5 -89t1.5 -110.5t-8.5 -130.5t-17 -154zM1153 680q13 102 19 168.5t6.5 132t-6 103.5t-24 74t-43 53t-68 31t-93 18t-123.5 4q-69 0 -118 -4t-94 -16.5t-75 -30 t-57.5 -51t-44.5 -74t-33.5 -103.5t-28.5 -134t-24 -171q-10 -83 -16 -139t-8.5 -114t-1 -94.5t9 -73.5t19.5 -57.5t34 -41t48 -29.5t64.5 -17t82 -10t102.5 -2q100 0 164.5 7.5t116 36.5t78.5 61.5t50.5 109t35 150.5t28.5 213z" />
<glyph unicode="1" d="M1057 115l-15 -115h-712l14 115h295l139 1136h-334l15 113h473l-154 -1249h279z" />
<glyph unicode="2" d="M1270 1030q-10 -78 -31.5 -134t-50.5 -93t-79 -67t-101.5 -51t-133.5 -51q-61 -22 -94 -34q-221 -83 -251 -97q-103 -46 -143 -103q-36 -55 -50 -162l-14 -117h856l-15 -121h-991l29 229q9 72 23.5 126.5t42 95t50.5 66.5t71 52t79.5 39t99.5 39l318 121q128 48 178 96 t63 150q18 143 -44.5 195.5t-262.5 52.5q-108 0 -224.5 -13t-178.5 -26l-62 -13l-8 115q25 6 69 15t173.5 23.5t251.5 14.5q257 0 355.5 -74.5t74.5 -273.5z" />
<glyph unicode="3" d="M1249 1364l-24 -209l-449 -336q-18 -11 -18 -28q-2 -15 7.5 -22.5t29.5 -6.5q5 0 35 2t49 2q189 4 269 -90t56 -279q-9 -74 -31.5 -134t-53 -102.5t-74.5 -74t-90 -50.5t-105 -30.5t-114.5 -15.5t-123.5 -4q-103 0 -206 10.5t-155 21.5l-52 11l30 112q199 -37 406 -37 q96 0 163.5 11t126.5 40t93 85.5t45 142.5q18 142 -29.5 208t-185.5 66q-43 0 -95.5 -2t-84.5 -4l-31 -2l-45 150l500 377q26 20 26 43q0 26 -43 26h-745l14 119h905z" />
<glyph unicode="4" d="M1303 432l-15 -117h-233l-37 -315h-137l37 315h-797l33 269l723 780h182l-754 -791q-1 -2 -10.5 -11.5t-11.5 -12t-8.5 -11t-8.5 -13t-4.5 -13t-3.5 -16.5q-3 -31 17 -47.5t55 -16.5h602l61 502h137l-61 -502h234z" />
<glyph unicode="5" d="M1243 1364l-14 -119h-772l-54 -420q-3 -41 29 -41q14 0 37 15l123 78q88 16 174 16q57 0 102.5 -3t90 -10t78 -19t63.5 -30.5t50.5 -44t36 -59t22.5 -76t7 -95t-8 -116.5q-16 -135 -57 -224.5t-113 -139.5t-164 -70t-225 -20q-113 0 -225.5 11t-168.5 23l-56 11l30 112 q211 -41 416 -41q219 0 308 70t114 266q6 49 6 89t-5.5 72t-17.5 57t-27 43.5t-38.5 31.5t-48.5 21.5t-59 13t-68 6.5t-78 2q-88 0 -183.5 -18.5t-146.5 -37.5l-51 -18l-82 39l78 625h897z" />
<glyph unicode="6" d="M1278 1327l-33 -110q-194 45 -399 45q-140 0 -222.5 -21.5t-127.5 -77.5q-73 -88 -108 -378l-3 -21q-4 -39 29 -39q13 0 41 16l123 78q129 25 215 25q76 0 131.5 -3.5t106 -12.5t84 -23.5t61.5 -38t43 -55t23 -75.5t7 -98t-10 -124q-11 -92 -32 -160t-55.5 -115t-76 -77 t-103 -47t-127 -23t-157.5 -6q-196 0 -298 28.5t-146 106.5q-14 24 -23 57t-14.5 62.5t-6 76t-0.5 73.5t4.5 80.5t6.5 72.5t8.5 74.5t7.5 62.5q0 2 6.5 55.5t8.5 66t9.5 64t12.5 72.5t14.5 65.5t19 70t22 60t28 60t33.5 47.5q65 78 173.5 106.5t303.5 28.5q105 0 210 -12 t158 -24zM1096 416q6 45 7.5 81.5t-2.5 66t-10 52t-20 39.5t-27.5 29t-38 20t-46 12.5t-56.5 7t-64 3t-75 0.5q-88 0 -186 -14.5t-152 -29.5l-53 -15q-12 -76 -23 -185q-18 -138 -3 -222.5t90.5 -121t244.5 -37.5q65 0 105 1t85.5 7.5t72.5 19.5t55 35.5t44.5 56.5t30 81.5 t21.5 112.5z" />
<glyph unicode="7" d="M1307 1364l-9 -111q-6 -74 -15 -127t-27 -100t-37 -80t-56 -72t-73 -70t-99 -81q-60 -47 -96 -77.5t-76.5 -71t-64 -74.5t-46.5 -79t-36 -96t-21 -114l-26 -211h-144l27 211q13 107 37.5 185t71.5 146.5t105 125t155 133.5q154 122 203 189.5t59 178.5l6 74h-871l15 121 h1018z" />
<glyph unicode="8" d="M1298 1055q-15 -118 -84 -207l-190 -100q-21 -12 -23 -29q-3 -13 4.5 -20t22.5 -13q231 -101 201 -348q-25 -196 -149.5 -274t-415.5 -78q-105 0 -179.5 9t-139 33.5t-100 66.5t-50 110.5t-2.5 163.5q12 112 81 206l191 101q22 12 24 29q1 9 -3 16t-9 9.5t-14 6.5 q-108 46 -145.5 120.5t-22.5 197.5q10 80 40.5 137.5t75 93t112.5 56.5t141 28.5t172 7.5t170 -7.5t134 -28.5t99 -56.5t52.5 -93t6.5 -137.5zM1157 1055q13 116 -62.5 161.5t-273.5 45.5q-199 0 -286.5 -45.5t-100.5 -161.5q-15 -125 84.5 -197.5t358.5 -124.5 q68 21 129 68q132 106 151 254zM1092 362q7 59 -16 107.5t-64 81.5t-108.5 61t-132 45.5t-150.5 34.5q-75 -22 -136 -69q-132 -106 -151 -254q-10 -85 2 -136.5t56.5 -81t110.5 -39.5t179 -10q252 0 334 74q37 33 53 78t23 108z" />
<glyph unicode="9" d="M1272 680q-26 -228 -52 -331q-38 -152 -102 -228q-63 -78 -172 -106.5t-305 -28.5q-105 0 -210 12t-157 24l-53 13l33 110q194 -45 399 -45q140 0 224 21.5t129 77.5q11 14 21 31.5t18 34.5t15.5 41t12.5 41t10.5 45t8.5 43t7 45.5t5.5 41t5 41t4.5 35.5q1 9 1 18t-7 15 t-21 6q-12 0 -40 -16l-123 -78q-131 -25 -217 -25q-76 0 -131.5 3.5t-106 12.5t-84.5 23.5t-62 38t-43 55t-23 75.5t-7 98t10 124q10 79 27.5 140t41.5 106.5t59.5 77t76 52t97 32t114.5 16t137 4.5q195 0 296.5 -28.5t145.5 -106.5q34 -57 41.5 -164t1 -175.5t-21.5 -188.5 q-3 -22 -4 -33zM1149 879q19 138 4.5 222.5t-90 121t-244.5 37.5q-57 0 -93 -1t-78 -5t-67.5 -13t-54 -24.5t-45.5 -38.5t-34 -55.5t-27 -76.5t-17 -100q-6 -45 -7.5 -81.5t2.5 -66t10 -52t20 -39.5t27.5 -29t38 -20t46 -12.5t56.5 -7t64 -3t75 -0.5q89 0 187 14.5t151 29.5 l53 15q12 76 23 185z" />
<glyph unicode=":" horiz-adv-x="407" d="M408 813l-25 -186h-205l23 186h207zM330 186l-23 -186h-207l23 186h207z" />
<glyph unicode=";" horiz-adv-x="417" d="M412 813l-23 -186h-207l23 186h207zM340 186l-23 -186l-141 -276h-125l142 276h-95l23 186h219z" />
<glyph unicode="&#x3c;" d="M1237 1151l-16 -137l-764 -334l682 -334l-17 -137l-809 412l15 120z" />
<glyph unicode="=" d="M1206 915l-14 -129h-856l14 129h856zM1165 573l-16 -129h-856l16 129h856z" />
<glyph unicode="&#x3e;" d="M1186 741l-15 -123l-907 -409l17 137l763 334l-682 334l17 137z" />
<glyph unicode="?" horiz-adv-x="1060" d="M1063 1016q-5 -41 -8 -62.5t-8.5 -55t-11 -51t-14.5 -43.5t-19.5 -40.5t-26 -34.5t-34.5 -33t-44 -28t-55.5 -27.5t-67.5 -24.5q-42 -13 -63 -20t-47.5 -17.5t-38 -19t-26 -20.5t-20.5 -27t-11.5 -33.5t-8.5 -44.5l-4 -39h-139l4 39q8 66 22 106t50 73t83 54.5t136 53.5 q51 18 79.5 29.5t54 31t36 33t21.5 48t15.5 63t12.5 90.5q5 38 4.5 69t-4 55.5t-14 42.5t-23 31.5t-33 22.5t-40.5 14t-50 8t-57.5 4t-67.5 1q-89 0 -184.5 -10t-146.5 -20l-50 -11v108q20 5 55.5 13t144 21t214.5 13q55 0 98 -3t85 -11t71.5 -21t56.5 -32.5t42 -47 t27 -63.5t10.5 -81.5t-5.5 -102.5zM545 186l-23 -186h-172l23 186h172z" />
<glyph unicode="@" horiz-adv-x="1452" d="M1434 682q-5 -46 -9.5 -76.5t-15 -77.5t-22.5 -78.5t-32.5 -68t-46 -58.5t-63 -36.5t-82.5 -14.5q-49 0 -81 11t-44.5 26t-20 30.5t-15.5 26.5t-23 11q-20 0 -45 -25l-72 -65q-60 -13 -117 -13q-128 0 -190.5 43t-74.5 131.5t5 225.5q15 118 37.5 189.5t67.5 120.5 t113 68t176 19q55 0 124 -5.5t111 -11.5l41 -5l-65 -531q-1 -5 -3 -23.5t-3 -25.5t-2 -23.5t0.5 -24t3.5 -21t7.5 -19.5t12.5 -13.5t18.5 -10.5t26.5 -3q20 0 38 10t31.5 30t24.5 40t19.5 52.5t13.5 53.5t10.5 55.5t7 47t4.5 39.5q28 210 22 324t-58 174q-12 14 -28 26 t-29.5 21t-36.5 16t-36 11.5t-41 7.5t-38.5 4.5t-42.5 2.5t-39 1h-41.5h-36.5h-36.5h-41.5t-39.5 -1t-43.5 -2.5t-40 -4.5t-43.5 -7.5t-39 -11.5t-40.5 -16t-34.5 -21t-34.5 -26q-68 -62 -104.5 -172.5t-63.5 -325.5q-27 -211 -17.5 -323.5t64.5 -174.5q26 -31 63 -51 t86 -27.5t84 -9.5t91 -2q84 0 177 5t144 9l51 5l-4 -105q-165 -22 -362 -22q-75 0 -123.5 2.5t-116.5 12.5t-119.5 35t-85.5 64q-67 77 -80 219.5t17 362.5q29 234 75 370t132 212q37 34 89 57t94.5 34t111.5 16.5t100.5 6t101.5 0.5t101 -0.5t99 -6t108 -16.5t87 -34 t76 -57q66 -76 76.5 -219.5t-20.5 -362.5zM1016 971q-60 8 -123 8q-41 0 -74.5 -4.5t-58.5 -16t-43.5 -23.5t-32.5 -35t-23 -42.5t-16.5 -53t-11.5 -60t-10 -70.5q-5 -37 -7 -60.5t-3.5 -54t0.5 -49t6.5 -40.5t14 -35.5t23.5 -27t33.5 -20.5t46 -11.5t60.5 -4.5q32 0 56 5.5 t40.5 12t29 23.5t19 27t12 38t7.5 40t6 48z" />
<glyph unicode="A" horiz-adv-x="1482" d="M1495 94l-12 -94h-355l11 94l63 12q13 3 19 4.5t11.5 7.5t6.5 15q2 7 -4 31l-74 250h-741l-135 -250q-13 -26 -13 -31q-3 -14 4.5 -18.5t26.5 -8.5l59 -12l-12 -94h-350l12 94l74 19q23 6 35.5 16t23.5 31l578 1048q22 41 -16 47l-74 15l12 94h397l336 -1204 q5 -21 14.5 -31t30.5 -16zM1130 524l-184 690q-5 20 -8 28.5t-11.5 15t-23.5 6.5q-6 0 -11 -1t-9 -2t-8 -5t-6 -5.5t-5.5 -7.5t-4.5 -8t-5.5 -10.5t-5.5 -10.5l-371 -690h653z" />
<glyph unicode="B" horiz-adv-x="1409" d="M1393 999q-5 -45 -15 -86.5t-17 -60.5l-7 -18l-209 -109q-19 -9 -21 -25q-2 -14 15 -24l200 -119q2 -7 4 -20.5t4.5 -60.5t-6.5 -101q-23 -195 -121 -285t-286 -90h-803l12 94l76 15q29 5 33 36l131 1074q4 31 -25 36l-71 15l12 94h780q188 0 262.5 -85.5t51.5 -279.5z M1249 997q9 79 -2 128.5t-47.5 75.5t-86.5 35t-132 9h-455l-61 -497h450q81 0 134 9.5t97 36t68.5 76t34.5 127.5zM1198 377q11 81 -1 132t-51 78t-91 36.5t-137 9.5h-467l-64 -514h467q67 0 114 6t89 22t69 44.5t45.5 74.5t26.5 111z" />
<glyph unicode="C" horiz-adv-x="1273" d="M1335 1323l-35 -119q-268 47 -438 47q-137 0 -219.5 -15.5t-134.5 -61.5q-62 -56 -97.5 -169.5t-60.5 -324.5q-27 -207 -17.5 -321t58.5 -171q42 -48 122.5 -65t219.5 -17q93 0 202.5 11.5t172.5 22.5l63 12l7 -113q-27 -6 -74 -15t-172.5 -23.5t-229.5 -14.5 q-173 0 -277.5 25t-158.5 89q-61 73 -75 212t16 370q28 238 74.5 374.5t126.5 207.5q68 64 177.5 89t278.5 25q214 0 471 -55z" />
<glyph unicode="D" horiz-adv-x="1509" d="M1470 684q-12 -101 -24 -170t-34 -147t-51.5 -128t-76 -99.5t-108 -77.5t-147 -45t-193.5 -17h-705l12 94l76 15q29 5 33 36l131 1074q4 31 -25 36l-71 15l12 94h705q84 0 152 -10t119 -27t88.5 -47t62.5 -62t39 -80t20.5 -92.5t5 -108.5t-6 -119.5t-14.5 -133.5z M1327 682q9 72 13 111t8 98t0 90.5t-12.5 75.5t-26.5 67t-46 50.5t-68 40t-94 21.5t-122 9h-453l-139 -1126h453q69 0 125 9t99 21.5t77.5 40.5t58.5 50t43.5 67.5t30.5 75.5t22 91t16.5 97.5t14.5 110.5z" />
<glyph unicode="E" horiz-adv-x="1224" d="M1292 1364l-14 -119h-752l-61 -487h733l-14 -117h-733l-64 -522h752l-15 -119h-993l12 94l76 15q29 5 33 36l131 1074q4 31 -25 36l-71 15l12 94h993z" />
<glyph unicode="F" horiz-adv-x="1128" d="M1249 1364l-14 -119h-709l-61 -497h690l-14 -119h-690l-60 -484q-4 -31 25 -36l71 -15l-12 -94h-344l12 94l76 15q29 5 33 36l131 1074q4 31 -25 36l-71 15l12 94h950z" />
<glyph unicode="G" horiz-adv-x="1390" d="M1374 1315l-33 -117q-256 53 -483 53q-71 0 -120 -3t-98 -13.5t-80.5 -28t-62.5 -48t-51 -71t-39 -100.5t-32 -134t-25 -173q-13 -101 -18.5 -175t-1.5 -135t13.5 -101.5t33.5 -71t52 -47.5t75 -27.5t96.5 -13.5t122.5 -3q115 0 218 13t149 26l45 13l67 551h139l-86 -709 h-118l-4 72q0 32 -31 32q-15 0 -43 -16l-135 -82q-90 -20 -209 -20q-93 0 -159.5 5t-127 18.5t-99.5 36t-71 60.5t-47 88t-22 122t-2 160t20 204q14 115 31 202.5t41.5 159t53 122.5t69 89t85.5 61t107.5 37.5t129.5 19.5t157 5q115 0 238 -15t189 -31z" />
<glyph unicode="H" horiz-adv-x="1595" d="M1632 1364l-12 -94l-76 -15q-29 -5 -33 -36l-131 -1074q-4 -31 25 -36l72 -15l-13 -94h-344l13 94l75 15q29 5 33 36l59 492h-849l-60 -492q-4 -31 25 -36l71 -15l-12 -94h-344l12 94l76 15q29 5 33 36l131 1074q4 31 -25 36l-71 15l12 94h344l-12 -94l-76 -15 q-29 -5 -33 -36l-57 -467h850l57 467q4 31 -24 36l-72 15l12 94h344z" />
<glyph unicode="I" horiz-adv-x="606" d="M643 1364l-12 -94l-76 -15q-29 -5 -33 -36l-131 -1074q-4 -31 25 -36l71 -15l-12 -94h-344l12 94l76 15q29 5 33 36l131 1074q4 31 -25 36l-71 15l12 94h344z" />
<glyph unicode="J" horiz-adv-x="851" d="M897 1364l-12 -94l-76 -15q-29 -5 -33 -36l-112 -914q-10 -82 -32 -139.5t-52 -93.5t-76.5 -56t-95.5 -27t-119 -7q-63 0 -126 6t-95 12l-31 6l26 107q117 -17 236 -17q66 0 106 10.5t65 39t36.5 68t19.5 108.5l111 897q4 31 -25 36l-71 15l12 94h344z" />
<glyph unicode="K" horiz-adv-x="1376" d="M1481 1364l-13 -94l-77 -17q-39 -8 -80 -39l-633 -528l516 -522q29 -29 41.5 -36.5t48.5 -16.5l64 -17l-13 -94h-399l10 94l39 8q14 3 21 5t15.5 9t10.5 19q2 17 -14 33l-418 424l-8.5 8.5l-9 9t-8.5 8t-10 8t-9.5 5.5t-11.5 5.5t-11.5 3t-13.5 1.5q-35 0 -55 -20 q-17 -17 -21 -56l-51 -420q-4 -31 23 -36l73 -15l-12 -94h-344l12 94l74 15q31 5 35 36l131 1074q4 31 -25 36l-71 15l12 94h344l-12 -94l-76 -15q-29 -5 -33 -36l-51 -418q-4 -42 6 -56q15 -18 51 -18q40 0 95 47l518 430q15 13 18 27q1 14 -5.5 19.5t-20.5 9.5l-43 10 l12 94h379z" />
<glyph unicode="L" horiz-adv-x="1089" d="M1067 121l-14 -121h-922l12 94l76 15q29 5 33 36l131 1074q4 31 -25 36l-71 15l12 94h344l-12 -94l-76 -15q-29 -5 -33 -36l-135 -1098h680z" />
<glyph unicode="M" horiz-adv-x="1857" d="M1894 1364l-12 -94l-76 -15q-27 -4 -32 -36l-132 -1074q-4 -31 25 -36l72 -15l-13 -94h-344l13 94l75 15q29 5 33 36l129 1061q2 17 1 29.5t-10 19.5t-28 7q-5 0 -9.5 -1t-8 -2t-7 -4t-5.5 -5t-6 -6.5t-5 -6t-5 -7t-5 -7.5l-475 -762h-180l-289 762q-4 10 -5 12t-5 9.5 t-7.5 10t-9.5 5t-14 2.5q-27 0 -37.5 -14t-13.5 -42l-129 -1061q-4 -31 24 -36l72 -15l-12 -94h-332l12 94l76 15q29 5 33 36l131 1074q4 31 -25 36l-71 15l12 94h393l287 -762q3 -16 16 -16t23 14l473 764h403z" />
<glyph unicode="N" horiz-adv-x="1652" d="M1690 1364l-13 -94l-75 -15q-29 -5 -33 -36l-150 -1219h-299l-516 1223q-5 13 -9 19.5t-12.5 13t-21.5 6.5q-27 0 -37.5 -14t-13.5 -42l-129 -1061q-4 -31 25 -36l71 -15l-12 -94h-334l12 94l76 15q29 5 33 36l131 1074q4 31 -25 36l-71 15l12 94h406l514 -1212 q8 -20 17 -28.5t26 -8.5q27 0 36.5 13t12.5 42l129 1049q4 31 -25 36l-72 15l13 94h334z" />
<glyph unicode="O" horiz-adv-x="1378" d="M1339 680q-11 -93 -21 -159t-24 -132.5t-29 -111t-37 -88.5t-47 -71t-61 -52t-76.5 -38.5t-95.5 -24t-117 -14t-141 -3.5t-141 4t-114 14.5t-90 24.5t-68 39.5t-48.5 53t-30 71.5t-15.5 88.5t-2 110.5t8.5 131.5t17.5 156.5q15 120 29 204t35 159.5t44.5 123.5t61 88 t79 61.5t104.5 36.5t132.5 20t167.5 5q80 0 141 -3.5t113.5 -14.5t90 -24.5t67 -39t48 -53t29.5 -71.5t15 -89t1.5 -111.5t-9 -132.5t-17.5 -159zM1196 680q37 234 27.5 363.5t-88 174t-289.5 44.5q-77 0 -128.5 -3t-100.5 -14.5t-79 -27.5t-59 -50t-45.5 -72.5t-33 -103 t-27 -135.5t-23.5 -176q-13 -103 -19 -169t-6 -131.5t7 -102.5t26 -72.5t45.5 -52t72 -30t98.5 -17t131 -3.5q79 0 134.5 3.5t103.5 18t78.5 29.5t57.5 53t41.5 72t29.5 103.5t24 130.5t22 168z" />
<glyph unicode="P" horiz-adv-x="1376" d="M1391 954q-4 -35 -7.5 -59t-11.5 -64.5t-18 -69.5t-28 -67t-40 -65t-55 -55t-72.5 -45.5t-93 -28.5t-115.5 -11h-131q-37 0 -91.5 2.5t-89.5 4.5l-36 2l-90 67q-21 17 -37 17q-11 0 -18 -2.5t-11 -10t-5 -11t-3 -15.5l-47 -398q-4 -31 23 -36l71 -15l-10 -94h-344l12 94 l76 15q29 5 33 36l131 1074q4 31 -25 36l-71 15l12 94h756q192 0 276.5 -103.5t59.5 -306.5zM1245 934q12 97 0 159t-51 95t-91.5 45t-135.5 12h-441l-75 -614q117 -25 362 -25h25q44 0 72.5 0.5t63 3.5t57 8t49 13.5t43 21t35 30.5t30.5 42t23.5 54.5t19.5 69t14 85.5z" />
<glyph unicode="Q" horiz-adv-x="1454" d="M1436 100l-13 -100h-686h-45q-79 0 -141 4t-114 14.5t-90 24.5t-68 39.5t-48.5 53t-30 71.5t-15.5 88.5t-2 110.5t8.5 131.5t17.5 156.5q15 120 29 203.5t35 158t44 121t60.5 85.5t78.5 59.5t104.5 34.5t132 18t167.5 4q80 0 141 -3.5t114 -13.5t90 -22.5t67 -37 t48.5 -51t30 -69.5t15 -87t1.5 -110t-8.5 -131.5t-17.5 -158.5q-31 -245 -79 -370l-144 -127q-29 -26 -31 -41q-1 -9 1 -15.5t7 -11t9.5 -7t13 -4t13.5 -2t15 -1t13 -0.5zM1196 692q40 234 28.5 360.5t-89 168t-289.5 41.5q-62 0 -105 -1.5t-86.5 -7.5t-71.5 -14.5t-57 -26 t-46.5 -38t-36 -55t-29.5 -72t-23 -94.5t-20.5 -117t-18.5 -144q-10 -81 -15.5 -137.5t-8.5 -113.5t-1 -94t10.5 -73.5t21.5 -58t36 -42t50.5 -30t68 -17.5t86 -10.5t107.5 -2.5q106 0 172.5 6.5t120 35.5t81 60.5t51.5 109t35.5 151.5t28.5 216z" />
<glyph unicode="R" horiz-adv-x="1439" d="M1395 991q-17 -164 -113 -260q-46 -43 -115 -72q-59 -21 -129 -30q-27 -4 -39 -11q-17 -9 -20 -34q-2 -15 12 -43l209 -381q4 -7 7.5 -12.5t6.5 -9t8 -7t7.5 -5t9.5 -4t9.5 -3t12 -3t13.5 -3.5l76 -19l-13 -94h-221l-250 457l23 170h-438l-60 -482q-4 -31 25 -36l71 -15 l-12 -94h-344l12 94l76 15q29 5 33 36l131 1074q4 31 -25 36l-71 15l12 94h733q226 0 307.5 -84t55.5 -289zM1253 993q5 44 6 70.5t-6.5 61t-27.5 57.5q-29 34 -88.5 48.5t-163.5 14.5h-447l-61 -502h446q200 0 267 64q37 33 52 78t23 108z" />
<glyph unicode="S" horiz-adv-x="1261" d="M1231 1333l-29 -112q-211 39 -418 39q-97 0 -164.5 -11.5t-109.5 -31t-67.5 -56.5t-36.5 -76.5t-19 -101.5q-9 -70 2 -111t53 -61t86 -26t131 -12q34 -2 52 -3q26 -2 77 -5q101 -5 148.5 -10t114 -25.5t93 -56.5t42.5 -102.5t4 -164.5q-15 -124 -46.5 -201t-95 -128 t-160 -71t-247.5 -20q-109 0 -230 12t-187 24l-66 13l30 119q250 -48 465 -48q203 0 285.5 55t101.5 206q6 51 5.5 86.5t-5 63t-25 44.5t-39.5 28t-63.5 17.5t-83 9.5t-110.5 7q-207 10 -272 23q-134 26 -179 108q-43 79 -24 231q24 208 125 293q63 56 160 78t264 22 q216 0 438 -45z" />
<glyph unicode="T" horiz-adv-x="1179" d="M1337 1364l-14 -121h-510l-135 -1098q-4 -31 24 -36l72 -15l-12 -94h-344l12 94l76 15q29 5 33 36l135 1098h-510l14 121h1159z" />
<glyph unicode="U" horiz-adv-x="1568" d="M1608 1364l-13 -94l-75 -15q-29 -5 -33 -36l-131 -1074q-4 -31 24 -36l72 -15l-12 -94h-221l-5 72q0 9 -0.5 14t-7.5 11.5t-20 6.5q-18 0 -43 -14l-139 -84q-134 -20 -275 -20q-104 0 -176.5 9t-125.5 32.5t-83 57.5t-44.5 90.5t-13.5 125t13 166.5l92 752q4 31 -24 36 l-72 15l12 94h344l-12 -94l-76 -15q-29 -5 -33 -36l-90 -744q-10 -82 -12 -136t8 -98t31 -68.5t61.5 -41t93.5 -22t134 -5.5q115 0 230.5 14t173.5 28l59 14l129 1059q4 31 -25 36l-72 15l13 94h344z" />
<glyph unicode="V" horiz-adv-x="1443" d="M1569 1364l-13 -94l-61 -17q-26 -6 -37.5 -15t-21.5 -34l-576 -1204h-274l-279 1204q-6 25 -15 34t-34 15l-59 17l12 94h348l-12 -94l-64 -15q-35 -8 -28 -43l229 -1038q7 -35 17.5 -49t39.5 -14q28 0 42.5 14t31.5 49l475 1040q15 33 -18 41l-62 15l13 94h346z" />
<glyph unicode="W" horiz-adv-x="2318" d="M2433 1364l-10 -94l-64 -17q-27 -6 -38.5 -15.5t-20.5 -33.5l-477 -1204h-307l-168 1233q-4 37 -35 37q-30 0 -41 -37l-473 -1233h-299l-183 1204q-3 24 -13 33.5t-36 15.5l-59 17l12 94h350l-12 -94l-63 -15q-33 -7 -29 -43l145 -1038q5 -33 17 -48t41 -15q30 0 45 14.5 t28 48.5l457 1190h258l172 -1190q5 -33 17 -48t41 -15t44.5 15t28.5 48l391 1040q15 33 -20 41l-57 15l10 94h348z" />
<glyph unicode="X" horiz-adv-x="1376" d="M1466 1364l-10 -94l-70 -17q-31 -7 -51 -32l-405 -502l299 -576q11 -25 43 -32l65 -17l-12 -94h-352l12 94l68 19q12 3 16.5 12.5t-0.5 19.5l-221 457q-15 33 -29 45t-45 12q-33 0 -49 -11.5t-41 -45.5l-338 -444q-12 -15 -12 -25q-2 -15 20 -22l58 -17l-13 -94h-348 l12 94l68 17q34 8 53 32l439 576l-277 502q-13 25 -45 32l-63 17l12 94h348l-12 -94l-70 -19q-11 -3 -15 -13t1 -19l213 -388q13 -24 18.5 -33t19 -16.5t35.5 -7.5q23 0 39 7.5t24.5 16.5t27.5 33l307 388q8 9 6 19t-12 13l-66 19l10 94h342z" />
<glyph unicode="Y" horiz-adv-x="1269" d="M1378 1364l-12 -94l-76 -15q-29 -5 -33 -36l-100 -822q-12 -95 -24 -147.5t-44.5 -111t-87.5 -86.5t-149 -47t-231 -19q-105 0 -203.5 9t-144.5 19l-46 9l31 110q150 -31 379 -31q85 0 145 6t100.5 25.5t63.5 37t38 58.5t20.5 71.5t13.5 94.5l14 113q3 43 -31 43 q-12 0 -36 -16l-140 -89q-102 -14 -196 -14q-129 0 -208 22t-121 70.5t-50.5 125t4.5 184.5l47 385q4 31 -25 36l-71 15l12 94h344l-12 -94l-76 -15q-29 -5 -33 -36l-45 -375q-6 -48 -7.5 -84t3 -66.5t14.5 -51.5t29 -37.5t43.5 -26.5t61.5 -16t80 -8.5t102 -2.5 q56 0 134 13t124 24.5t63 17.5l76 613q4 31 -24 36l-72 15l12 94h344z" />
<glyph unicode="Z" horiz-adv-x="1277" d="M1280 1364l-33 -264l-940 -875q-25 -25 -28 -51q-4 -19 9.5 -35t49.5 -16h821l-14 -123h-1024l31 244l946 897q34 34 32 65q-1 22 -16 30.5t-43 8.5h-805l15 119h999z" />
<glyph unicode="[" horiz-adv-x="561" d="M633 1362l-15 -102h-176l-190 -1567h176l-12 -101h-299l217 1770h299z" />
<glyph unicode="\" horiz-adv-x="841" d="M860 -408h-123l-501 1770h122z" />
<glyph unicode="]" horiz-adv-x="561" d="M565 1362l-217 -1770h-301l12 101h179l190 1567h-178l14 102h301z" />
<glyph unicode="^" horiz-adv-x="1097" d="M1098 750h-160l-238 507l-356 -507h-158l439 614h184z" />
<glyph unicode="_" horiz-adv-x="1019" d="M1004 -137l-17 -129h-1020l17 129h1020z" />
<glyph unicode="`" horiz-adv-x="501" d="M547 1143l-51 -74l-246 180l78 99z" />
<glyph unicode="a" horiz-adv-x="1099" d="M1051 915l-97 -786q-3 -20 1.5 -27t21.5 -10l53 -10l-10 -82h-201l-2 51q0 1 -0.5 4t-1 5t-1 5t-1.5 5t-2.5 4.5t-4 4l-5 3t-6.5 2t-9 0.5q-12 0 -43 -18l-104 -66q-90 -14 -176 -14q-91 0 -154 24t-97.5 64t-49.5 105t-14 133.5t12 162.5q12 91 27.5 157.5t47.5 133 t77.5 107.5t118.5 66.5t169 25.5q91 0 204 -12.5t180 -24.5zM911 836q-150 24 -280 24q-92 0 -148 -16.5t-94.5 -62.5t-58.5 -116t-35 -190q-10 -80 -12 -135t5 -100t23.5 -72t47.5 -45.5t73 -25.5t103 -7q64 0 136.5 10t112.5 20l41 11z" />
<glyph unicode="b" horiz-adv-x="1077" d="M1032 479q-14 -118 -36 -197.5t-58 -139t-93.5 -92.5t-135 -48.5t-189.5 -15.5q-223 0 -377 51l148 1198q2 21 -2.5 27.5t-22.5 9.5l-51 10l8 82h211l-55 -449q-3 -43 31 -43q13 0 39 15l100 63q82 15 180 15q145 0 220 -56.5t88.5 -164.5t-5.5 -265zM897 479 q12 96 12.5 157.5t-11.5 107.5t-43 70t-77.5 35t-120.5 11q-63 0 -135 -10t-112 -20l-41 -11l-86 -700q112 -29 274 -29q63 0 106.5 6t80 23t59.5 43.5t42 72t30.5 103t21.5 141.5z" />
<glyph unicode="c" horiz-adv-x="952" d="M983 924l-27 -97q-144 33 -294 33q-83 0 -135.5 -9t-94 -31.5t-66 -68t-41 -110t-28.5 -166.5q-11 -85 -13 -142.5t7 -102.5t27 -70.5t53.5 -42t80 -22t113.5 -5.5q68 0 143.5 8t117.5 16l42 9l4 -96q-160 -41 -340 -41q-71 0 -123.5 6t-98 20.5t-74.5 39.5t-50 61.5 t-29.5 88.5t-8 119t11.5 154q19 152 52.5 246.5t94.5 149.5t140.5 74.5t205.5 19.5q79 0 161.5 -10.5t125.5 -20.5z" />
<glyph unicode="d" horiz-adv-x="1083" d="M1106 1364l-152 -1235q-3 -20 1.5 -27t21.5 -10l53 -10l-10 -82h-199l-2 51q0 1 -0.5 4t-1 5t-1 5t-1.5 5t-2.5 4.5t-4 4l-5 3t-6.5 2t-9 0.5q-12 0 -43 -18l-106 -66q-80 -14 -176 -14q-113 0 -183 36t-97.5 100.5t-32.5 154.5t12 198q8 65 17.5 115.5t26 103t38.5 91.5 t55.5 74.5t75.5 57.5t99 35t126 13q100 0 193 -12t131 -21l37 303q3 20 -1.5 27t-23.5 10l-51 10l10 82h211zM911 836q-150 24 -280 24q-92 0 -148 -16.5t-94.5 -62.5t-58.5 -116t-35 -190q-10 -80 -12 -135t5 -100t23.5 -72t47.5 -45t73 -24.5t103 -6.5q64 0 136.5 10 t112.5 20l41 11z" />
<glyph unicode="e" horiz-adv-x="1079" d="M1044 553q-5 -49 -18 -111l-56 -4q-57 -5 -124.5 -8.5t-136.5 -3.5q-65 0 -136 2t-109 4l-38 2l-57 43q-23 15 -35 15q-18 0 -28 -12t-12 -22t-3 -30q-8 -55 -10 -93t6 -87t32 -80q59 -76 256 -76q84 0 169.5 8t129.5 16l44 9l6 -98q-16 -5 -45 -11.5t-120.5 -18 t-185.5 -11.5q-64 0 -111 3.5t-93.5 12.5t-78.5 25t-60.5 41.5t-44.5 62t-26 86t-9.5 113.5t10.5 145q26 210 90 322q51 94 149 131t269 37q139 0 223 -21t121 -76q33 -49 40 -122.5t-8 -192.5zM905 535q9 76 11 127.5t-7.5 89t-25 58.5t-49 33t-70.5 15.5t-98 3.5 q-58 0 -99.5 -2t-76.5 -11t-57 -17t-41.5 -30t-30 -39.5t-21.5 -57t-17 -70.5t-16 -90q61 -10 137 -15t122 -4h46q168 -3 293 9z" />
<glyph unicode="f" horiz-adv-x="636" d="M836 1370l-21 -94q-66 8 -127 8q-123 0 -160 -35q-25 -24 -36.5 -64.5t-18.5 -105.5l-16 -127h301l-13 -100h-301l-88 -723q-3 -20 1.5 -27t21.5 -10l53 -10l-10 -82h-293l10 80l54 10q20 4 25.5 10.5t8.5 26.5l88 725h-180l12 100h181l16 129q11 95 36 157.5t87 102.5 q66 43 215 43q32 0 70.5 -3.5t61.5 -6.5z" />
<glyph unicode="g" horiz-adv-x="1099" d="M1137 952l-11 -80l-53 -10q-20 -4 -26 -11t-9 -26l-100 -817q-12 -97 -26.5 -162.5t-39.5 -118t-57 -83t-83.5 -50.5t-113.5 -27t-153 -7q-74 0 -145.5 7t-106.5 14l-35 7l27 101q114 -27 272 -27q53 0 92.5 3t71.5 11.5t54 18.5t39.5 30t28 39.5t19.5 54t14 66t11 82.5 l6 56q-201 -37 -303 -37q-144 0 -224 37.5t-112 119.5q-40 98 -12 336q12 99 30 171t49.5 134.5t77 100.5t111.5 59t154 21q36 0 79.5 -3.5t68.5 -6.5l26 -3l90 -65q24 -19 41 -19q5 0 9 1t7 2.5t6 4t4.5 4t3 5.5t2 5.5t1.5 5.5l2 5l14 51h199zM909 819q-137 41 -278 41 q-92 0 -147.5 -16t-94.5 -61t-58 -114.5t-34 -189.5q-13 -101 -13.5 -165.5t11.5 -111t44.5 -69.5t79 -33t122.5 -10q67 0 137.5 7t107.5 13l37 7z" />
<glyph unicode="h" horiz-adv-x="1136" d="M1067 82l-10 -82h-293l10 80l53 10q20 4 26 11t9 26l56 463q8 60 9 99t-6 71.5t-22.5 50t-45 29.5t-68 16t-97.5 4q-64 0 -137.5 -8.5t-115.5 -17.5l-42 -9l-86 -696q-3 -20 1.5 -27t21.5 -10l53 -10l-10 -82h-293l10 80l53 10q20 4 26 11t9 26l135 1108q3 20 -1 27 t-23 10l-51 10l10 82h211l-56 -446q-7 -44 29 -44q16 0 39 15l100 63q109 13 166 13q73 0 124 -6.5t91 -22.5t61.5 -42t34.5 -65t11.5 -91.5t-8.5 -121.5l-60 -487q-3 -20 1.5 -27t21.5 -10z" />
<glyph unicode="i" horiz-adv-x="483" d="M473 1364l-20 -156h-162l20 156h162zM428 952l-100 -823q-3 -20 1 -27t21 -10l53 -10l-10 -82h-293l11 80l53 10q20 4 26 11t9 26l84 696q3 20 -1.5 27t-21.5 10l-53 10l10 82h211z" />
<glyph unicode="j" horiz-adv-x="468" d="M467 1364l-21 -156h-161l20 156h162zM422 952l-143 -1169q-21 -186 -259 -186q-28 0 -64.5 3t-59.5 6l-23 3l21 96q52 -6 83 -6q107 0 138 21.5t41 105.5l120 997q3 20 -1 27t-21 10l-53 10l10 82h211z" />
<glyph unicode="k" horiz-adv-x="1015" d="M1061 952l-10 -82l-78 -12q-21 -6 -35 -16l-375 -326l311 -391q17 -22 44 -27l67 -16l-10 -82h-178l-332 442q-18 22 -30 29.5t-32 7.5q-30 0 -43 -13t-16 -40l-37 -297q-3 -20 1.5 -27t21.5 -10l53 -10l-10 -82h-293l10 80l53 10q20 4 26 11t9 26l135 1108q3 20 -1 27 t-23 10l-51 10l10 82h211l-94 -768q-3 -29 7 -42t38 -13q30 0 71 37l428 374h152z" />
<glyph unicode="l" horiz-adv-x="462" d="M459 1364l-152 -1235q-3 -20 1.5 -27t21.5 -10l53 -10l-10 -82h-293l10 80l53 10q20 4 26 11t9 26l135 1108q3 20 -1 27t-23 10l-51 10l10 82h211z" />
<glyph unicode="m" horiz-adv-x="1796" d="M1726 80l-10 -82h-293l11 82l53 10q20 3 26 9.5t9 27.5l55 463q8 60 9 99t-6 71.5t-22 50t-44.5 29.5t-68 16t-97.5 4q-30 0 -60 -1.5t-66.5 -5.5t-57 -6.5t-66.5 -9t-60 -8.5q30 -84 19 -159l-66 -541q-3 -20 1.5 -27t21.5 -10l53 -10l-10 -82h-293l10 80l53 10 q20 4 26 11t9 26l56 463q8 60 9 99t-6 71.5t-22.5 50t-45 29.5t-68 16t-97.5 4q-64 0 -132.5 -8t-105.5 -16l-36 -9l-86 -698q-3 -20 1 -27t21 -10l53 -10l-10 -82h-293l11 80l53 10q20 4 26 11t9 26l84 696q3 20 -1.5 27t-21.5 10l-53 10l10 82h191l2 -51q0 -33 28 -33 q12 0 45 19l105 65q92 13 149 13q76 0 127 -5.5t81 -19.5t41 -22t30 -27q6 -6 11 -10t10.5 -5.5t8.5 -2.5t9.5 1t8 2.5t10.5 5l11 5.5l113 61q81 17 199 17q73 0 124 -6.5t90.5 -22.5t61 -42t35 -65t11.5 -91.5t-9 -121.5l-59 -489q-3 -19 1 -26.5t21 -10.5z" />
<glyph unicode="n" horiz-adv-x="1157" d="M1087 80l-10 -82h-293l11 82l53 10q20 3 26 9.5t9 27.5l55 463q8 60 9 99t-6 71.5t-22 50t-44.5 29.5t-68 16t-97.5 4q-64 0 -137.5 -8.5t-115.5 -17.5l-42 -9l-86 -696q-3 -20 1 -27t21 -10l53 -10l-10 -82h-293l11 80l53 10q20 4 26 11t9 26l84 696q3 20 -1.5 27 t-21.5 10l-53 10l10 82h189l2 -51q0 -1 1 -6.5t1.5 -7.5t2.5 -6.5t4.5 -6.5t7.5 -4t11 -2q12 0 45 19l107 65q113 13 170 13q73 0 124 -6.5t90.5 -22.5t61 -42t35 -65t11.5 -91.5t-9 -121.5l-59 -489q-3 -19 1 -26.5t21 -10.5z" />
<glyph unicode="o" horiz-adv-x="1069" d="M1024 475q-13 -106 -27.5 -176.5t-40.5 -128.5t-58.5 -91t-86 -55.5t-119 -30t-160.5 -7.5t-158.5 7.5t-111.5 30t-72.5 55.5t-36 91t-9 128.5t15.5 176.5t28 176.5t41 129t58.5 91t86 55t119 30.5t160.5 8t158.5 -8t111.5 -30t72.5 -55t36 -91.5t8.5 -129t-16 -176.5z M889 475q9 70 13 116t4 90t-5 69t-19 48t-32 33.5t-50.5 18.5t-68.5 10t-90 2q-73 0 -117 -4t-82.5 -20.5t-58.5 -38.5t-38 -70.5t-27.5 -104t-20.5 -149.5q-9 -70 -13 -116t-4 -90t5 -69t19 -48t32 -33.5t50.5 -18.5t68.5 -10t90 -2q73 0 117 4t82.5 20.5t58.5 38.5 t38 70.5t27.5 104t20.5 149.5z" />
<glyph unicode="p" horiz-adv-x="1099" d="M1057 479q-27 -229 -96 -336q-51 -82 -140.5 -119.5t-232.5 -37.5q-98 0 -295 37l-37 -302q-1 -20 3.5 -26.5t21.5 -9.5l51 -11l-8 -82h-293l8 80l55 11q19 5 25.5 11.5t7.5 24.5l135 1104q3 20 -1 27t-21 10l-54 10l11 82h198l2 -51q0 -33 29 -33q14 0 43 19l106 65 q95 13 179 13q145 0 219.5 -56.5t88.5 -164.5t-5 -265zM922 479q10 80 12 134.5t-5 99.5t-23.5 71.5t-47.5 44.5t-73 24.5t-103 6.5q-64 0 -136.5 -10t-113.5 -20l-41 -11l-86 -702q128 -27 275 -27q95 0 150.5 14.5t95.5 59.5t60 116.5t36 198.5z" />
<glyph unicode="q" horiz-adv-x="1075" d="M1051 915l-148 -1194q-1 -20 3.5 -26.5t21.5 -9.5l51 -11l-8 -82h-211l55 453q3 41 -31 41q-14 0 -39 -14l-112 -74q-84 -12 -170 -12q-91 0 -154 24t-97.5 64t-49.5 105t-14 133.5t12 162.5q12 91 27.5 157.5t47.5 133t77.5 107.5t118.5 66.5t169 25.5q91 0 204 -12.5 t180 -24.5zM911 836q-150 24 -280 24q-92 0 -148 -16.5t-94.5 -62.5t-58.5 -116t-35 -190q-10 -80 -12 -135t5 -100t23.5 -72t47.5 -45.5t73 -25.5t103 -7q64 0 136.5 10t112.5 20l41 11z" />
<glyph unicode="r" horiz-adv-x="751" d="M887 956l-23 -122q-73 10 -157 10q-76 0 -150 -5t-109 -11l-36 -5l-84 -694q-3 -20 1 -27t21 -10l53 -10l-10 -82h-293l11 80l53 10q20 4 26 11t9 26l84 696q3 20 -1.5 27t-21.5 10l-53 10l10 82h189l2 -51q0 -1 1 -6.5t1.5 -7.5t2.5 -6.5t4.5 -6.5t7.5 -4t11 -2 q12 0 45 19l107 65q113 13 170 13q74 0 129 -9z" />
<glyph unicode="s" horiz-adv-x="1040" d="M969 930l-27 -101q-185 29 -324 29q-71 0 -122.5 -7.5t-83 -19.5t-51 -33t-27.5 -42.5t-12 -53.5q-6 -25 -5 -60t17 -54q12 -14 31 -23t53.5 -13t55.5 -5.5t76 -2t75 -1.5q80 -2 121.5 -5.5t95.5 -19t78 -43.5t38 -80.5t5 -128.5q-14 -104 -60 -163.5t-140.5 -88 t-256.5 -28.5q-92 0 -188 9.5t-146 19.5l-49 10l27 104q167 -35 372 -35q199 0 264 62q41 36 48 106q11 82 -15 113q-25 28 -86 37.5t-188 11.5q-154 4 -202 14q-112 22 -140 107q-19 56 -8 145q20 153 114 214t307 61q79 0 167.5 -8.5t136.5 -17.5z" />
<glyph unicode="t" horiz-adv-x="692" d="M711 952l-13 -100h-272l-74 -604q-7 -44 -4.5 -77t19.5 -52q29 -29 131 -29q22 0 48.5 2.5t41.5 5.5l16 2l2 -90q-104 -18 -170 -18q-140 0 -186 49q-27 30 -31 93t8 155l70 563h-180l12 100h180l31 254h129l-31 -254h273z" />
<glyph unicode="u" horiz-adv-x="1140" d="M1087 952l-100 -823q-3 -20 1.5 -27t21.5 -10l53 -10l-10 -82h-191l-2 51q0 33 -29 33q-16 0 -43 -18l-106 -66q-99 -14 -156 -14q-87 0 -144 10t-97.5 34t-57 64t-22 100t7.5 142l59 487q3 20 -1 27t-21 10l-53 10l10 82h211l-72 -590q-8 -60 -9 -99.5t6 -71.5t22 -50 t44.5 -30.5t68 -16.5t97.5 -4q64 0 134.5 10t109.5 20l39 9l84 694q3 20 -1 27t-21 10l-54 10l11 82h210z" />
<glyph unicode="v" horiz-adv-x="1044" d="M1141 952l-11 -80l-49 -12q-23 -6 -31.5 -12t-17.5 -25l-377 -823h-266l-176 823q-3 17 -11 24.5t-26 12.5l-49 12l10 80h301l-10 -80l-53 -12q-36 -8 -29 -41l137 -657q5 -29 8 -40.5t13 -21.5t28 -10q19 0 32 10t20.5 22.5t19.5 39.5l287 657q18 33 -14 41l-54 10 l11 82h307z" />
<glyph unicode="w" horiz-adv-x="1595" d="M1686 952l-11 -80l-49 -12q-24 -6 -33 -12.5t-16 -24.5l-303 -823h-270l-95 842q-4 12 -12 12q-6 0 -14 -12l-295 -842h-262l-107 823q-1 18 -9.5 25t-27.5 12l-49 12l10 80h306l-11 -80l-53 -12q-33 -7 -29 -41l62 -657q6 -72 49 -72q27 0 43 17.5t29 54.5l264 770h219 l84 -770q3 -36 15 -54t38 -18q46 0 68 72l213 657q15 34 -15 41l-53 10l10 82h304z" />
<glyph unicode="x" horiz-adv-x="1036" d="M1083 952l-10 -80l-53 -12q-9 -2 -15 -4t-11 -6t-7.5 -6.5t-7.5 -9.5t-8 -11l-260 -327l204 -367q1 -2 4 -7t4 -6.5t3.5 -5t4 -5l4 -4t5.5 -4t6.5 -3t7.5 -2.5l52 -12l-11 -80h-311l10 80l51 12q28 5 31 25q0 14 -6 26l-152 285q-11 19 -20.5 26t-26.5 7q-29 0 -55 -33 l-219 -285q-12 -18 -12 -26q-3 -20 22 -25l49 -12l-10 -80h-305l10 80l55 12q12 3 21 9t12.5 10t14.5 18l284 367l-190 327q-1 2 -4 7t-4 6.5t-3.5 5t-4 5l-4 4t-5.5 4t-6.5 3t-7.5 2.5l-49 12l10 80h303l-10 -80l-49 -12q-21 -3 -28 -16.5t1 -30.5l137 -254q13 -25 25 -34 t29 -9t28.5 9t26.5 30l203 258q11 15 8.5 29t-19.5 18l-51 12l10 80h299z" />
<glyph unicode="y" horiz-adv-x="1107" d="M1124 952l-10 -80l-53 -10q-19 -5 -25.5 -11.5t-9.5 -25.5l-96 -784q-12 -97 -26.5 -162.5t-39.5 -118.5t-57 -83t-83 -50.5t-113.5 -27.5t-153.5 -7q-74 0 -145.5 7t-106.5 15l-35 7l27 100q114 -26 272 -26q53 0 92.5 3t71.5 11.5t54 18.5t39.5 30t28 39.5t19.5 54 t14 66t11 82.5l4 37q7 43 -29 43q-14 0 -39 -17l-102 -65q-60 -12 -117 -12q-87 0 -144 10t-97.5 34t-57 64t-22 100t7.5 142l59 487q3 20 -1 27t-21 10l-54 10l11 82h292l-10 -80l-53 -10q-19 -5 -25.5 -11.5t-9.5 -25.5l-55 -463q-8 -60 -9 -99.5t6 -71.5t22 -50 t44.5 -30.5t68 -16.5t97.5 -4q64 0 126 10t92 20l30 11l84 692q3 20 -1.5 27t-21.5 10l-53 10l10 82h293z" />
<glyph unicode="z" horiz-adv-x="929" d="M934 952l-29 -235l-665 -549q-17 -12 -21 -31q-2 -13 6.5 -24t32.5 -11h602l-12 -102h-752l27 221l668 561q23 19 20 43q0 27 -37 27h-588l13 100h735z" />
<glyph unicode="{" horiz-adv-x="602" d="M674 1362l-15 -111q-78 0 -122 -28q-30 -21 -46.5 -61t-25.5 -109l-41 -340q-12 -98 -44 -151t-99 -87q59 -34 77.5 -85.5t6.5 -149.5l-41 -342q-8 -63 -2.5 -100.5t26.5 -61.5q12 -14 44 -24.5t65 -10.5h12l-12 -109h-82q-59 0 -104 23t-60 61q-29 66 -10 220l41 337 q11 83 -8 125t-76 62l14 112q60 19 89.5 61t39.5 128l41 336q19 149 64 219q28 40 78 63t108 23h82z" />
<glyph unicode="|" horiz-adv-x="464" d="M463 1362l-209 -1702h-125l209 1702h125z" />
<glyph unicode="}" horiz-adv-x="602" d="M563 532l-14 -112q-62 -20 -90.5 -61t-38.5 -126l-41 -337q-18 -146 -64 -220q-25 -38 -76 -61t-110 -23h-82l12 109q78 0 123 29q60 45 74 170l41 342q12 97 43.5 149t97.5 86q-58 34 -76 86.5t-6 151.5l41 340q15 120 -22 162q-13 15 -45.5 24.5t-65.5 9.5h-14l14 111 h82q58 0 103.5 -24t60.5 -62q29 -65 10 -219l-41 -336q-10 -85 8.5 -127t75.5 -62z" />
<glyph unicode="~" horiz-adv-x="1155" d="M1245 1432q-38 -61 -68 -96.5t-67 -63.5q-38 -29 -87.5 -47.5t-90.5 -18.5q-36 0 -85.5 13.5t-82.5 31.5l-113 56q-76 39 -129 39q-55 0 -102 -35.5t-103 -118.5l-75 55q78 128 147 180t160 52q73 0 217 -72q88 -43 122.5 -55.5t72.5 -12.5q57 0 101.5 31t102.5 113z" />
<glyph unicode="&#xa1;" horiz-adv-x="524" d="M440 981l-100 -981h-156l140 981h116zM518 1362l-24 -186h-172l24 186h172z" />
<glyph unicode="&#xa2;" d="M1163 924l-26 -97q-143 33 -295 33q-83 0 -135.5 -9t-94 -31.5t-66 -68t-41 -110t-28.5 -166.5q-11 -85 -13 -142.5t7 -102.5t27 -70.5t53.5 -42t80 -22t113.5 -5.5q68 0 144 8t118 16l42 9l6 -96q-129 -33 -283 -39l-20 -170h-111l21 168q-72 3 -124 13.5t-93 33.5 t-65.5 58.5t-37.5 89.5t-12.5 126t12.5 168q17 144 47 236t84 148t126.5 79t182.5 27l21 163h110l-20 -165q68 -3 135.5 -12.5t101.5 -18.5z" />
<glyph unicode="&#xa3;" d="M1309 1333l-29 -110q-174 39 -342 39q-66 0 -109 -2.5t-103 -19.5t-97 -48q-21 -19 -34 -38t-20.5 -49.5t-9 -41.5t-6.5 -53l-43 -353h426l-14 -120h-428l-23 -189q-11 -90 -36.5 -139.5t-92.5 -102.5l858 11l-14 -117h-1020l12 106q78 22 109 80t51 217l16 134h-153 l14 120h154l43 349q6 50 11 78t16.5 67t33 70t53.5 59q113 98 361 98q103 0 207 -11t156 -23z" />
<glyph unicode="&#xa4;" d="M1432 1323l-35 -119q-269 47 -439 47q-137 0 -219.5 -15.5t-134.5 -61.5q-85 -76 -127 -291h590l-14 -117h-596q-10 -65 -11 -86q-8 -61 -10 -82h596l-14 -117h-590q-9 -214 59 -293q42 -48 122.5 -65t219.5 -17q93 0 202.5 11.5t172.5 22.5l64 12l6 -113 q-27 -6 -73.5 -15t-172 -23.5t-229.5 -14.5q-173 0 -278 25t-159 89q-89 104 -77 381h-160l14 117h154q2 25 10 84q2 31 10 84h-153l14 117h160q55 278 168 383q70 63 180 87.5t279 24.5q214 0 471 -55z" />
<glyph unicode="&#xa5;" d="M1337 1364l-10 -80l-55 -10q-10 -2 -16 -6.5t-11 -15t-6 -11.5l-203 -315h191l-15 -113h-245l-129 -201h258l-15 -112h-297l-45 -371q-2 -21 2.5 -27.5t22.5 -9.5l51 -10l-10 -82h-285l10 82l54 10q20 3 25.5 9.5t8.5 27.5l46 371h-297l14 112h258l-76 201h-239l14 113 h182l-121 315q-1 2 -2 7.5t-2.5 8.5t-3.5 6.5t-6 5.5t-10 3l-53 10l10 82h309l-10 -80l-60 -10q-19 -3 -26 -17t-2 -28l176 -481q12 -33 37 -33q22 0 43 33l295 481q10 12 5.5 27t-22.5 18l-57 8l10 82h307z" />
<glyph unicode="&#xa6;" horiz-adv-x="464" d="M471 1362l-84 -678h-139l84 678h139zM342 313l-80 -653h-139l80 653h139z" />
<glyph unicode="&#xa7;" d="M1194 1339l-31 -108q-186 39 -344 39q-35 0 -57 -0.5t-54 -4.5t-52 -11t-44 -20.5t-38.5 -32.5t-26.5 -48t-17 -66q-8 -49 -5.5 -89.5t20.5 -61.5q35 -40 219 -111q31 -12 79 -30.5t73 -28.5t62 -26t73 -33q81 -38 97 -93t3 -163q-24 -191 -215 -246l29 -17 q59 -34 84 -76t23.5 -91t-9.5 -115q-10 -80 -33.5 -132t-73.5 -91t-133 -56.5t-209 -17.5q-88 0 -178.5 9.5t-137.5 19.5l-46 10l27 104q184 -37 344 -37q155 0 208 25q79 33 93 160q9 63 6.5 95t-21.5 54q-40 45 -219 113q-38 15 -97.5 37.5t-101.5 40t-88 39.5 q-57 26 -82 64.5t-24 84.5t8 107q23 199 221 247q-77 30 -110 69.5t-34 94.5t9 135q14 109 59 172t139 94t251 31q79 0 167.5 -10t137.5 -20zM1008 432q5 46 5 79t-19 57.5t-62 41.5l-289 115q-90 0 -125 -20q-57 -35 -72 -150q-3 -42 -4 -75.5t18.5 -60.5t61.5 -44 l289 -115q88 0 125 21q56 33 72 151z" />
<glyph unicode="&#xa8;" horiz-adv-x="714" d="M774 1266l-18 -150h-160l18 150h160zM412 1266l-19 -150h-160l19 150h160z" />
<glyph unicode="&#xa9;" horiz-adv-x="1632" d="M1597 684q-15 -120 -30 -204t-39.5 -159.5t-51.5 -123.5t-72 -88t-95.5 -61.5t-127.5 -37t-162.5 -20t-205.5 -4.5t-204 5t-157 20t-118.5 36.5t-80 61.5t-50 88t-21 123.5t0 159.5t20.5 204t30 204t39 159.5t51 123.5t72 88t95.5 61.5t127.5 36.5t162 20t205 5t204 -5 t157.5 -20t118.5 -36.5t80.5 -61.5t51 -88t21 -123.5t0 -159.5t-20.5 -204zM1516 684q11 90 17 156.5t5 127.5t-6 103t-22 79t-36.5 60t-56 42t-74.5 28.5t-98 16t-120.5 8.5t-147.5 2q-110 0 -181.5 -3t-142.5 -14.5t-113 -28.5t-83.5 -51.5t-64 -77t-44.5 -111 t-35.5 -146.5t-27.5 -191t-20 -191t-0.5 -147t17.5 -110.5t45 -76.5t70.5 -52t105.5 -28.5t139 -14.5t181 -3t181.5 3t142.5 14.5t113 28.5t83.5 52t64 76.5t45 110.5t36 147t27.5 191zM1231 1053l-21 -88q-117 26 -260 26q-53 0 -83.5 -2.5t-61.5 -13.5t-47 -29.5 t-32 -53.5t-25.5 -83t-18.5 -121t-11.5 -120.5t5 -82.5t19 -53t40 -29t59 -13.5t83.5 -2.5q42 0 90.5 3.5t81 8t63 9t31.5 4.5l-2 -86q-132 -33 -273 -33q-71 0 -117.5 5.5t-85.5 21.5t-59.5 43t-32 72t-10.5 105.5t12 147.5q10 87 24 147.5t36.5 106t49.5 72.5t70 43.5 t91.5 22t118.5 5.5q48 0 98 -5t81 -10.5t58 -11t29 -5.5z" />
<glyph unicode="&#xaa;" horiz-adv-x="737" d="M774 889l-8 -64h-156l-2 29q0 18 -16 18q-12 0 -25 -10l-61 -37q-49 -8 -98 -8q-128 0 -172.5 36t-32.5 136q12 95 57.5 131t159.5 37l227 4l8 62q6 52 -32 69q-26 13 -101 13q-112 0 -233 -27l-4 72q3 0 23.5 4t42.5 7.5t51.5 7.5t63 6.5t64.5 2.5q44 0 74 -2.5 t63.5 -11.5t51.5 -25.5t28 -46.5t5 -73l-37 -299q-3 -19 14 -21zM760 721l-10 -82h-605l11 82h604zM639 1092l-178 -2q-6 0 -33 -0.5t-47 -3t-33 -7.5q-35 -18 -45 -94q-7 -65 19.5 -81.5t111.5 -16.5q39 0 73.5 4t69 11.5t39.5 8.5z" />
<glyph unicode="&#xab;" horiz-adv-x="837" d="M840 981l-254 -457l164 -458l-101 -66l-184 524l285 518zM535 981l-252 -457l161 -458l-98 -66l-186 524l286 518z" />
<glyph unicode="&#xac;" horiz-adv-x="1071" d="M1047 545l-68 -545h-139l51 414h-746l17 131h885z" />
<glyph unicode="&#xad;" horiz-adv-x="577" d="M551 563l-16 -133h-385l16 133h385z" />
<glyph unicode="&#xae;" horiz-adv-x="1632" d="M1597 684q-15 -120 -30 -204t-39.5 -159.5t-51.5 -123.5t-72 -88t-95.5 -61.5t-127.5 -37t-162.5 -20t-205.5 -4.5t-204 5t-157 20t-118.5 36.5t-80 61.5t-50 88t-21 123.5t0 159.5t20.5 204t30 204t39 159.5t51 123.5t72 88t95.5 61.5t127.5 36.5t162 20t205 5t204 -5 t157.5 -20t118.5 -36.5t80.5 -61.5t51 -88t21 -123.5t0 -159.5t-20.5 -204zM1516 684q11 90 17 156.5t5 127.5t-6 103t-22 79t-36.5 60t-56 42t-74.5 28.5t-98 16t-120.5 8.5t-147.5 2q-110 0 -181.5 -3t-142.5 -14.5t-113 -28.5t-83.5 -51.5t-64 -77t-44.5 -111 t-35.5 -146.5t-27.5 -191t-20 -191t-0.5 -147t17.5 -110.5t45 -76.5t70.5 -52t105.5 -28.5t139 -14.5t181 -3t181.5 3t142.5 14.5t113 28.5t83.5 52t64 76.5t45 110.5t36 147t27.5 191zM1266 858q-12 -93 -64 -145q-31 -27 -65 -41q-36 -14 -72 -17q-31 -4 -35 -24 q0 -9 8 -25l111 -200q8 -14 15.5 -18t27.5 -9l41 -10l-8 -68h-140l-139 258l10 88h-229l-31 -252q0 -5 3.5 -10.5t7.5 -5.5l49 -10l-8 -68h-228l8 68l54 10q9 0 14 16l72 588q0 4 -3.5 9t-7.5 5l-49 11l8 67h433q132 0 181 -48.5t36 -168.5zM1159 860q8 74 -14 101 q-29 32 -135 32h-240l-33 -266h240q99 0 143 35q32 29 39 98z" />
<glyph unicode="&#xaf;" horiz-adv-x="649" d="M705 1241l-13 -113h-456l12 113h457z" />
<glyph unicode="&#xb0;" horiz-adv-x="786" d="M834 1090q-15 -128 -115 -220t-227 -92q-129 0 -208.5 92.5t-62.5 221.5q19 128 120 218.5t228 90.5t204.5 -91.5t60.5 -219.5zM717 1085q11 80 -38 139.5t-128 59.5q-81 0 -144 -59.5t-71 -141.5q-8 -77 40 -132t124 -56q79 -1 142.5 54.5t74.5 135.5z" />
<glyph unicode="&#xb1;" d="M1194 817l-16 -129h-365l-49 -407h-127l49 407h-364l16 129h364l50 406h127l-50 -406h365zM1112 129l-16 -129h-858l16 129h858z" />
<glyph unicode="&#xb2;" horiz-adv-x="886" d="M889 1153q-13 -109 -90 -166q-40 -29 -82 -45q-85 -35 -90 -37q-156 -58 -213 -99t-66 -116l-6 -43h496l-11 -94h-608l17 133q7 59 29 103t60.5 75t73.5 49.5t90 40.5l117 47q91 33 121 56q45 34 53 98q4 34 -3.5 57t-21.5 35.5t-41.5 19t-51.5 8t-64 1.5 q-109 0 -276 -29l-3 92q140 31 283 31q45 0 76.5 -2t70.5 -8.5t63.5 -21t46 -37.5t29 -60.5t1.5 -87.5z" />
<glyph unicode="&#xb3;" horiz-adv-x="886" d="M862 793q-8 -64 -32.5 -110.5t-58 -73t-81.5 -42.5t-93.5 -21t-104.5 -5q-44 0 -93 4t-80.5 9t-60 10t-29.5 5l23 90q22 -5 103.5 -14.5t154.5 -9.5q60 0 97.5 5.5t71 22t51 49t24.5 85.5q8 73 -24.5 102t-94.5 29q-23 0 -52.5 -1t-50.5 -2t-24 -1l-31 131l244 176 q14 14 14 24q0 15 -24 15h-404l10 94h543l-18 -141l-246 -179q-10 -6 -12 -16q0 -19 22 -16q3 0 20 1t27 1q120 3 171.5 -53.5t37.5 -167.5z" />
<glyph unicode="&#xb4;" horiz-adv-x="501" d="M559 1249l-287 -180l-34 74l270 205z" />
<glyph unicode="&#xb6;" horiz-adv-x="1163" d="M1157 1362l-217 -1770h-106l202 1659h-162l-204 -1659h-107l117 951h-84q-47 0 -137 4q-89 5 -139 35.5t-78 97.5q-38 81 -17 264q22 179 77.5 275t152.5 127q32 10 72 13t149 3h481z" />
<glyph unicode="&#xb7;" horiz-adv-x="512" d="M446 776l-22 -190h-191l23 190h190z" />
<glyph unicode="&#xb8;" horiz-adv-x="393" d="M350 -225q-20 -156 -219 -156q-103 0 -174 33l31 65q61 -22 108 -22q23 0 45.5 4t43.5 12.5t35.5 25t17.5 38.5q3 21 -6.5 35t-26 19.5t-26.5 7t-19 1.5q-45 0 -88 -16l-19 43l82 135h109l-103 -106l2 -5q51 15 97 15q57 0 86.5 -36t23.5 -93z" />
<glyph unicode="&#xb9;" horiz-adv-x="886" d="M756 649l-13 -98h-413l12 98h158l75 617h-180l13 98h288l-88 -715h148z" />
<glyph unicode="&#xba;" horiz-adv-x="737" d="M778 1098q-11 -87 -28.5 -138.5t-52.5 -85t-87.5 -45.5t-138.5 -12q-167 0 -214.5 56.5t-25.5 224.5q11 89 30 141.5t56 84.5t88.5 43t135.5 11q116 0 169 -24t69 -86t-1 -170zM760 721l-10 -82h-605l11 82h604zM682 1098q6 50 8.5 78.5t-0.5 56.5t-12 40.5t-28.5 23 t-47 13.5t-70.5 3q-61 0 -93.5 -6.5t-56.5 -30.5t-34.5 -63.5t-19.5 -114.5q-18 -139 7.5 -176t143.5 -37q42 0 69 2.5t49.5 12.5t34.5 23t22.5 39.5t16 56t11.5 79.5z" />
<glyph unicode="&#xbb;" horiz-adv-x="837" d="M805 524l-316 -524l-79 66l270 458l-139 457l104 61zM500 524l-314 -524l-82 66l273 458l-139 457l102 61z" />
<glyph unicode="&#xbc;" horiz-adv-x="1845" d="M1706 274l-12 -94h-133l-23 -180h-106l20 180h-465l23 182l422 455h133l-432 -461q-25 -25 -27 -45q-3 -18 8.5 -27.5t32.5 -9.5h317l37 293h107l-37 -293h135zM1489 1362l-1008 -1362h-96l1006 1362h98zM692 649l-12 -98h-414l13 98h157l76 617h-180l12 98h289l-88 -715 h147z" />
<glyph unicode="&#xbd;" horiz-adv-x="1871" d="M1716 600q-13 -109 -90 -166q-40 -29 -82 -45q-85 -35 -90 -37q-156 -58 -212.5 -99t-65.5 -116l-7 -45l496 2l-12 -94h-606l16 133q7 59 29 103t60 75t74 49.5t91 40.5l117 48q88 32 120 55q44 32 54 98q3 33 -5 56.5t-22 36t-41.5 19t-51.5 8t-63 1.5q-131 0 -276 -29 l-2 92q140 31 283 31q45 0 76 -2t70.5 -8.5t64 -21t45.5 -37.5t28.5 -60.5t1.5 -87.5zM1489 1362l-1008 -1362h-96l1006 1362h98zM692 649l-12 -98h-414l13 98h157l76 617h-180l12 98h289l-88 -715h147z" />
<glyph unicode="&#xbe;" horiz-adv-x="1875" d="M1810 274l-12 -94h-133l-23 -180h-106l23 180h-467l22 182l422 455h135l-434 -461q-2 -2 -7 -8t-7 -8.5t-5.5 -7.5t-5 -10t-2.5 -11q-3 -18 8.5 -27.5t32.5 -9.5h318l37 293h106l-35 -293h133zM1632 1362l-1007 -1362h-95l1004 1362h98zM858 793q-8 -64 -33 -110.5 t-58 -73t-81.5 -42.5t-94 -21t-104.5 -5q-44 0 -93 4t-80 9t-59.5 10t-29.5 5l21 90q26 -6 106.5 -15t153.5 -9q60 0 97.5 5.5t71 22t51 49t24.5 85.5q15 131 -119 131q-32 0 -80 -2t-49 -2l-29 131l244 176q14 14 14 24q0 15 -24 15h-406l12 94h543l-18 -141l-246 -179 q-12 -8 -12 -16q0 -19 20 -16q3 0 21 1t28 1q120 3 171.5 -53.5t37.5 -167.5z" />
<glyph unicode="&#xbf;" horiz-adv-x="1060" d="M168 362q5 41 8 62.5t8.5 55t11 51t14.5 43.5t19.5 40.5t26 34.5t34.5 33t44 28t55.5 27.5t67.5 24.5q42 13 63 20t47.5 17.5t38 19t26 20.5t20.5 27t11.5 33.5t8.5 44.5l4 39h139l-4 -39q-9 -67 -23.5 -106.5t-50 -72.5t-82.5 -54.5t-137 -53.5q-51 -18 -79.5 -29.5 t-53.5 -30.5t-36 -33t-21.5 -48.5t-15 -63t-11.5 -90.5q-5 -38 -5 -69t4 -55t14.5 -42.5t22.5 -31.5t32.5 -22t40.5 -14.5t50.5 -8t58 -3.5t67.5 -1q89 0 184 10.5t145 20.5l50 10l2 -109q-20 -5 -55.5 -13t-144 -21t-214.5 -13q-63 0 -111 4t-94 14.5t-76 28.5t-56.5 45.5 t-37 65.5t-16 88.5t5.5 115.5zM684 1192l25 186h172l-25 -186h-172z" />
<glyph unicode="&#xc0;" horiz-adv-x="1482" d="M1065 1532l-51 -74l-246 180l78 99zM1495 94l-12 -94h-355l11 94l63 12q13 3 19 4.5t11.5 7.5t6.5 15q2 7 -4 31l-74 250h-741l-135 -250q-13 -26 -13 -31q-3 -14 4.5 -18.5t26.5 -8.5l59 -12l-12 -94h-350l12 94l74 19q23 6 35.5 16t23.5 31l578 1048q22 41 -16 47 l-74 15l12 94h397l336 -1204q5 -21 14.5 -31t30.5 -16zM1130 524l-184 690q-5 20 -8 28.5t-11.5 15t-23.5 6.5q-6 0 -11 -1t-9 -2t-8 -5t-6 -5.5t-5.5 -7.5t-4.5 -8t-5.5 -10.5t-5.5 -10.5l-371 -690h653z" />
<glyph unicode="&#xc1;" horiz-adv-x="1482" d="M1102 1638l-287 -180l-35 74l271 205zM1495 94l-12 -94h-355l11 94l63 12q13 3 19 4.5t11.5 7.5t6.5 15q2 7 -4 31l-74 250h-741l-135 -250q-13 -26 -13 -31q-3 -14 4.5 -18.5t26.5 -8.5l59 -12l-12 -94h-350l12 94l74 19q23 6 35.5 16t23.5 31l578 1048q22 41 -16 47 l-74 15l12 94h397l336 -1204q5 -21 14.5 -31t30.5 -16zM1130 524l-184 690q-5 20 -8 28.5t-11.5 15t-23.5 6.5q-6 0 -11 -1t-9 -2t-8 -5t-6 -5.5t-5.5 -7.5t-4.5 -8t-5.5 -10.5t-5.5 -10.5l-371 -690h653z" />
<glyph unicode="&#xc2;" horiz-adv-x="1482" d="M1157 1528l-61 -72l-166 152l-205 -152l-43 72l264 209zM1495 94l-12 -94h-355l11 94l63 12q13 3 19 4.5t11.5 7.5t6.5 15q2 7 -4 31l-74 250h-741l-135 -250q-13 -26 -13 -31q-3 -14 4.5 -18.5t26.5 -8.5l59 -12l-12 -94h-350l12 94l74 19q23 6 35.5 16t23.5 31 l578 1048q22 41 -16 47l-74 15l12 94h397l336 -1204q5 -21 14.5 -31t30.5 -16zM1130 524l-184 690q-5 20 -8 28.5t-11.5 15t-23.5 6.5q-6 0 -11 -1t-9 -2t-8 -5t-6 -5.5t-5.5 -7.5t-4.5 -8t-5.5 -10.5t-5.5 -10.5l-371 -690h653z" />
<glyph unicode="&#xc3;" horiz-adv-x="1482" d="M1174 1630q-80 -125 -162 -125q-40 0 -107 39q-44 24 -61 30.5t-35 6.5q-23 0 -38 -14t-42 -58l-65 52q44 67 80.5 94.5t80.5 27.5q37 0 109 -38q49 -26 64.5 -32.5t29.5 -6.5q34 0 78 75zM1495 94l-12 -94h-355l11 94l63 12q13 3 19 4.5t11.5 7.5t6.5 15q2 7 -4 31 l-74 250h-741l-135 -250q-13 -26 -13 -31q-3 -14 4.5 -18.5t26.5 -8.5l59 -12l-12 -94h-350l12 94l74 19q23 6 35.5 16t23.5 31l578 1048q22 41 -16 47l-74 15l12 94h397l336 -1204q5 -21 14.5 -31t30.5 -16zM1130 524l-184 690q-5 20 -8 28.5t-11.5 15t-23.5 6.5 q-6 0 -11 -1t-9 -2t-8 -5t-6 -5.5t-5.5 -7.5t-4.5 -8t-5.5 -10.5t-5.5 -10.5l-371 -690h653z" />
<glyph unicode="&#xc4;" horiz-adv-x="1482" d="M1190 1669l-19 -149h-159l18 149h160zM827 1669l-18 -149h-160l19 149h159zM1495 94l-12 -94h-355l11 94l63 12q13 3 19 4.5t11.5 7.5t6.5 15q2 7 -4 31l-74 250h-741l-135 -250q-13 -26 -13 -31q-3 -14 4.5 -18.5t26.5 -8.5l59 -12l-12 -94h-350l12 94l74 19 q23 6 35.5 16t23.5 31l578 1048q22 41 -16 47l-74 15l12 94h397l336 -1204q5 -21 14.5 -31t30.5 -16zM1130 524l-184 690q-5 20 -8 28.5t-11.5 15t-23.5 6.5q-6 0 -11 -1t-9 -2t-8 -5t-6 -5.5t-5.5 -7.5t-4.5 -8t-5.5 -10.5t-5.5 -10.5l-371 -690h653z" />
<glyph unicode="&#xc5;" horiz-adv-x="1482" d="M1176 1657q-15 -121 -73.5 -172t-189.5 -51q-130 0 -175 50.5t-31 172.5q15 120 73.5 170.5t188.5 50.5t175.5 -50.5t31.5 -170.5zM1075 1655q10 84 -11.5 116.5t-105.5 32.5q-83 0 -111.5 -32t-39.5 -115q-10 -84 11.5 -116t105.5 -32q83 0 111.5 31.5t39.5 114.5z M1495 94l-12 -94h-355l11 94l63 12q13 3 19 4.5t11.5 7.5t6.5 15q2 7 -4 31l-74 250h-741l-135 -250q-13 -26 -13 -31q-3 -14 4.5 -18.5t26.5 -8.5l59 -12l-12 -94h-350l12 94l74 19q23 6 35.5 16t23.5 31l578 1048q22 41 -16 47l-74 15l12 94h397l336 -1204q5 -21 14.5 -31 t30.5 -16zM1130 524l-184 690q-5 20 -8 28.5t-11.5 15t-23.5 6.5q-6 0 -11 -1t-9 -2t-8 -5t-6 -5.5t-5.5 -7.5t-4.5 -8t-5.5 -10.5t-5.5 -10.5l-371 -690h653z" />
<glyph unicode="&#xc6;" horiz-adv-x="1689" d="M1589 0h-778l10 94l76 15q28 4 33 36l59 473q-53 0 -82 -0.5t-73.5 -2t-69.5 -5.5t-62 -11t-60.5 -17.5t-55 -26t-54.5 -36.5t-50 -47.5t-51.5 -61t-49.5 -76.5l-102 -170q-13 -21 -13 -31q-3 -14 4.5 -18.5t26.5 -8.5l59 -12l-12 -94h-344l12 94l74 19q23 6 34 15.5 t25 31.5l639 1048q11 17 7.5 30.5t-23.5 16.5l-74 15l13 94h1050l-16 -119h-537l-61 -508h516l-14 -116h-517l-61 -502h537zM1004 739l53 435q10 81 -70 81q-23 0 -41 -11t-27 -22.5t-24 -35.5l-338 -559q127 112 447 112z" />
<glyph unicode="&#xc7;" horiz-adv-x="1273" d="M1335 1323l-35 -119q-268 47 -438 47q-137 0 -219.5 -15.5t-134.5 -61.5q-62 -56 -97.5 -169.5t-60.5 -324.5q-27 -207 -17.5 -321t58.5 -171q42 -48 122.5 -65t219.5 -17q93 0 202.5 11.5t172.5 22.5l63 12l7 -113q-205 -45 -420 -53l-86 -92l4 -5q47 15 94 15 q59 0 88 -36t23 -93q-20 -156 -219 -156q-102 0 -173 33l31 65q61 -22 107 -22q23 0 45.5 4t44 12.5t36 25t17.5 38.5q2 21 -7.5 35t-26 19.5t-26.5 7t-18 1.5q-44 0 -90 -16l-16 43l69 121q-151 3 -244 28.5t-145 85.5q-61 73 -75 212t16 370q28 238 74.5 374.5 t126.5 207.5q68 64 177.5 89t278.5 25q214 0 471 -55z" />
<glyph unicode="&#xc8;" horiz-adv-x="1224" d="M963 1532l-52 -74l-245 180l77 99zM1292 1364l-14 -119h-752l-61 -487h733l-14 -117h-733l-64 -522h752l-15 -119h-993l12 94l76 15q29 5 33 36l131 1074q4 31 -25 36l-71 15l12 94h993z" />
<glyph unicode="&#xc9;" horiz-adv-x="1224" d="M1040 1638l-286 -180l-35 74l270 205zM1292 1364l-14 -119h-752l-61 -487h733l-14 -117h-733l-64 -522h752l-15 -119h-993l12 94l76 15q29 5 33 36l131 1074q4 31 -25 36l-71 15l12 94h993z" />
<glyph unicode="&#xca;" horiz-adv-x="1224" d="M1098 1528l-62 -72l-166 152l-204 -152l-43 72l264 209zM1292 1364l-14 -119h-752l-61 -487h733l-14 -117h-733l-64 -522h752l-15 -119h-993l12 94l76 15q29 5 33 36l131 1074q4 31 -25 36l-71 15l12 94h993z" />
<glyph unicode="&#xcb;" horiz-adv-x="1224" d="M1114 1669l-18 -149h-160l18 149h160zM752 1669l-19 -149h-160l19 149h160zM1292 1364l-14 -119h-752l-61 -487h733l-14 -117h-733l-64 -522h752l-15 -119h-993l12 94l76 15q29 5 33 36l131 1074q4 31 -25 36l-71 15l12 94h993z" />
<glyph unicode="&#xcc;" horiz-adv-x="606" d="M614 1532l-51 -74l-246 180l78 99zM643 1364l-12 -94l-76 -15q-29 -5 -33 -36l-131 -1074q-4 -31 25 -36l71 -15l-12 -94h-344l12 94l76 15q29 5 33 36l131 1074q4 31 -25 36l-71 15l12 94h344z" />
<glyph unicode="&#xcd;" horiz-adv-x="606" d="M651 1638l-286 -180l-35 74l270 205zM643 1364l-12 -94l-76 -15q-29 -5 -33 -36l-131 -1074q-4 -31 25 -36l71 -15l-12 -94h-344l12 94l76 15q29 5 33 36l131 1074q4 31 -25 36l-71 15l12 94h344z" />
<glyph unicode="&#xce;" horiz-adv-x="606" d="M727 1528l-61 -72l-166 152l-205 -152l-43 72l264 209zM643 1364l-12 -94l-76 -15q-29 -5 -33 -36l-131 -1074q-4 -31 25 -36l71 -15l-12 -94h-344l12 94l76 15q29 5 33 36l131 1074q4 31 -25 36l-71 15l12 94h344z" />
<glyph unicode="&#xcf;" horiz-adv-x="606" d="M758 1669l-19 -149h-159l18 149h160zM395 1669l-18 -149h-160l19 149h159zM643 1364l-12 -94l-76 -15q-29 -5 -33 -36l-131 -1074q-4 -31 25 -36l71 -15l-12 -94h-344l12 94l76 15q29 5 33 36l131 1074q4 31 -25 36l-71 15l12 94h344z" />
<glyph unicode="&#xd0;" horiz-adv-x="1525" d="M1487 684q-10 -77 -18.5 -133.5t-23 -120.5t-32 -109t-43.5 -93t-59 -80t-78 -62.5t-100.5 -47.5t-126 -27.5t-154.5 -10.5h-705l13 94l76 15q27 4 32 36l60 496h-138l15 117h137l57 461q4 31 -24 36l-72 15l12 94h705q186 0 296 -48t148.5 -136t43 -214t-20.5 -282z M1343 682q9 72 13 111t8 98t0 90.5t-12.5 75.5t-26.5 67t-46 50.5t-68 40t-94 21.5t-122 9h-452l-62 -487h482l-15 -117h-481l-64 -522h453q69 0 125 9t99 21.5t77.5 40.5t58.5 50t43.5 67.5t30.5 75.5t22 91t16.5 97.5t14.5 110.5z" />
<glyph unicode="&#xd1;" horiz-adv-x="1652" d="M1270 1630q-80 -125 -162 -125q-40 0 -107 39q-44 24 -61 30.5t-35 6.5q-23 0 -38 -14t-42 -58l-65 52q44 67 80.5 94.5t81.5 27.5q36 0 108 -38q49 -26 64.5 -32.5t29.5 -6.5q34 0 78 75zM1690 1364l-13 -94l-75 -15q-29 -5 -33 -36l-150 -1219h-299l-516 1223 q-5 13 -9 19.5t-12.5 13t-21.5 6.5q-27 0 -37.5 -14t-13.5 -42l-129 -1061q-4 -31 25 -36l71 -15l-12 -94h-334l12 94l76 15q29 5 33 36l131 1074q4 31 -25 36l-71 15l12 94h406l514 -1212q8 -20 17 -28.5t26 -8.5q27 0 36.5 13t12.5 42l129 1049q4 31 -25 36l-72 15l13 94 h334z" />
<glyph unicode="&#xd2;" horiz-adv-x="1378" d="M1024 1532l-51 -74l-246 180l78 99zM1339 680q-11 -93 -21 -159t-24 -132.5t-29 -111t-37 -88.5t-47 -71t-61 -52t-76.5 -38.5t-95.5 -24t-117 -14t-141 -3.5t-141 4t-114 14.5t-90 24.5t-68 39.5t-48.5 53t-30 71.5t-15.5 88.5t-2 110.5t8.5 131.5t17.5 156.5 q15 120 29 204t35 159.5t44.5 123.5t61 88t79 61.5t104.5 36.5t132.5 20t167.5 5q80 0 141 -3.5t113.5 -14.5t90 -24.5t67 -39t48 -53t29.5 -71.5t15 -89t1.5 -111.5t-9 -132.5t-17.5 -159zM1196 680q37 234 27.5 363.5t-88 174t-289.5 44.5q-77 0 -128.5 -3t-100.5 -14.5 t-79 -27.5t-59 -50t-45.5 -72.5t-33 -103t-27 -135.5t-23.5 -176q-13 -103 -19 -169t-6 -131.5t7 -102.5t26 -72.5t45.5 -52t72 -30t98.5 -17t131 -3.5q79 0 134.5 3.5t103.5 18t78.5 29.5t57.5 53t41.5 72t29.5 103.5t24 130.5t22 168z" />
<glyph unicode="&#xd3;" horiz-adv-x="1378" d="M1040 1638l-286 -180l-35 74l270 205zM1339 680q-11 -93 -21 -159t-24 -132.5t-29 -111t-37 -88.5t-47 -71t-61 -52t-76.5 -38.5t-95.5 -24t-117 -14t-141 -3.5t-141 4t-114 14.5t-90 24.5t-68 39.5t-48.5 53t-30 71.5t-15.5 88.5t-2 110.5t8.5 131.5t17.5 156.5 q15 120 29 204t35 159.5t44.5 123.5t61 88t79 61.5t104.5 36.5t132.5 20t167.5 5q80 0 141 -3.5t113.5 -14.5t90 -24.5t67 -39t48 -53t29.5 -71.5t15 -89t1.5 -111.5t-9 -132.5t-17.5 -159zM1196 680q37 234 27.5 363.5t-88 174t-289.5 44.5q-77 0 -128.5 -3t-100.5 -14.5 t-79 -27.5t-59 -50t-45.5 -72.5t-33 -103t-27 -135.5t-23.5 -176q-13 -103 -19 -169t-6 -131.5t7 -102.5t26 -72.5t45.5 -52t72 -30t98.5 -17t131 -3.5q79 0 134.5 3.5t103.5 18t78.5 29.5t57.5 53t41.5 72t29.5 103.5t24 130.5t22 168z" />
<glyph unicode="&#xd4;" horiz-adv-x="1378" d="M1118 1528l-61 -72l-166 152l-205 -152l-43 72l264 209zM1339 680q-11 -93 -21 -159t-24 -132.5t-29 -111t-37 -88.5t-47 -71t-61 -52t-76.5 -38.5t-95.5 -24t-117 -14t-141 -3.5t-141 4t-114 14.5t-90 24.5t-68 39.5t-48.5 53t-30 71.5t-15.5 88.5t-2 110.5t8.5 131.5 t17.5 156.5q15 120 29 204t35 159.5t44.5 123.5t61 88t79 61.5t104.5 36.5t132.5 20t167.5 5q80 0 141 -3.5t113.5 -14.5t90 -24.5t67 -39t48 -53t29.5 -71.5t15 -89t1.5 -111.5t-9 -132.5t-17.5 -159zM1196 680q37 234 27.5 363.5t-88 174t-289.5 44.5q-77 0 -128.5 -3 t-100.5 -14.5t-79 -27.5t-59 -50t-45.5 -72.5t-33 -103t-27 -135.5t-23.5 -176q-13 -103 -19 -169t-6 -131.5t7 -102.5t26 -72.5t45.5 -52t72 -30t98.5 -17t131 -3.5q79 0 134.5 3.5t103.5 18t78.5 29.5t57.5 53t41.5 72t29.5 103.5t24 130.5t22 168z" />
<glyph unicode="&#xd5;" horiz-adv-x="1378" d="M1126 1630q-80 -125 -161 -125q-40 0 -107 39q-44 24 -61 30.5t-35 6.5q-23 0 -38 -14t-42 -58l-66 52q44 67 80.5 94.5t81.5 27.5q37 0 109 -38q49 -26 64.5 -32.5t29.5 -6.5q34 0 78 75zM1339 680q-11 -93 -21 -159t-24 -132.5t-29 -111t-37 -88.5t-47 -71t-61 -52 t-76.5 -38.5t-95.5 -24t-117 -14t-141 -3.5t-141 4t-114 14.5t-90 24.5t-68 39.5t-48.5 53t-30 71.5t-15.5 88.5t-2 110.5t8.5 131.5t17.5 156.5q15 120 29 204t35 159.5t44.5 123.5t61 88t79 61.5t104.5 36.5t132.5 20t167.5 5q80 0 141 -3.5t113.5 -14.5t90 -24.5t67 -39 t48 -53t29.5 -71.5t15 -89t1.5 -111.5t-9 -132.5t-17.5 -159zM1196 680q37 234 27.5 363.5t-88 174t-289.5 44.5q-77 0 -128.5 -3t-100.5 -14.5t-79 -27.5t-59 -50t-45.5 -72.5t-33 -103t-27 -135.5t-23.5 -176q-13 -103 -19 -169t-6 -131.5t7 -102.5t26 -72.5t45.5 -52 t72 -30t98.5 -17t131 -3.5q79 0 134.5 3.5t103.5 18t78.5 29.5t57.5 53t41.5 72t29.5 103.5t24 130.5t22 168z" />
<glyph unicode="&#xd6;" horiz-adv-x="1378" d="M1143 1669l-19 -149h-159l18 149h160zM780 1669l-18 -149h-160l19 149h159zM1339 680q-11 -93 -21 -159t-24 -132.5t-29 -111t-37 -88.5t-47 -71t-61 -52t-76.5 -38.5t-95.5 -24t-117 -14t-141 -3.5t-141 4t-114 14.5t-90 24.5t-68 39.5t-48.5 53t-30 71.5t-15.5 88.5 t-2 110.5t8.5 131.5t17.5 156.5q15 120 29 204t35 159.5t44.5 123.5t61 88t79 61.5t104.5 36.5t132.5 20t167.5 5q80 0 141 -3.5t113.5 -14.5t90 -24.5t67 -39t48 -53t29.5 -71.5t15 -89t1.5 -111.5t-9 -132.5t-17.5 -159zM1196 680q37 234 27.5 363.5t-88 174t-289.5 44.5 q-77 0 -128.5 -3t-100.5 -14.5t-79 -27.5t-59 -50t-45.5 -72.5t-33 -103t-27 -135.5t-23.5 -176q-13 -103 -19 -169t-6 -131.5t7 -102.5t26 -72.5t45.5 -52t72 -30t98.5 -17t131 -3.5q79 0 134.5 3.5t103.5 18t78.5 29.5t57.5 53t41.5 72t29.5 103.5t24 130.5t22 168z" />
<glyph unicode="&#xd7;" d="M1186 1020l-350 -340l266 -338l-98 -94l-265 338l-348 -338l-76 94l347 338l-263 338l99 94l264 -336l348 336z" />
<glyph unicode="&#xd8;" horiz-adv-x="1378" d="M1339 680q-11 -93 -21 -159t-24 -132.5t-29 -111t-37 -88.5t-47 -71t-61 -52t-76.5 -38.5t-95.5 -24t-117 -14t-141 -3.5t-141 4t-114 14.5t-90 24.5t-68 39.5t-48.5 53t-30 71.5t-15.5 88.5t-2 110.5t8.5 131.5t17.5 156.5q15 120 29 204t35 159.5t44.5 123.5t61 88 t79 61.5t104.5 36.5t132.5 20t167.5 5q80 0 141 -3.5t113.5 -14.5t90 -24.5t67 -39t48 -53t29.5 -71.5t15 -89t1.5 -111.5t-9 -132.5t-17.5 -159zM1206 1124q-24 78 -105 108t-255 30q-77 0 -128.5 -3t-100.5 -14.5t-79 -27.5t-59 -50t-45.5 -72.5t-33 -103t-27 -135.5 t-23.5 -176q-22 -175 -22 -305zM1221 993l-881 -745q25 -86 106 -116t259 -30q79 0 134.5 3.5t103.5 18t78.5 29.5t57.5 53t41.5 72t29.5 103.5t24 130.5t22 168q25 230 25 313z" />
<glyph unicode="&#xd9;" horiz-adv-x="1568" d="M1106 1532l-51 -74l-246 180l78 99zM1608 1364l-13 -94l-75 -15q-29 -5 -33 -36l-131 -1074q-4 -31 24 -36l72 -15l-12 -94h-221l-5 72q0 9 -0.5 14t-7.5 11.5t-20 6.5q-18 0 -43 -14l-139 -84q-134 -20 -275 -20q-104 0 -176.5 9t-125.5 32.5t-83 57.5t-44.5 90.5 t-13.5 125t13 166.5l92 752q4 31 -24 36l-72 15l12 94h344l-12 -94l-76 -15q-29 -5 -33 -36l-90 -744q-10 -82 -12 -136t8 -98t31 -68.5t61.5 -41t93.5 -22t134 -5.5q115 0 230.5 14t173.5 28l59 14l129 1059q4 31 -25 36l-72 15l13 94h344z" />
<glyph unicode="&#xda;" horiz-adv-x="1568" d="M1163 1638l-286 -180l-35 74l270 205zM1608 1364l-13 -94l-75 -15q-29 -5 -33 -36l-131 -1074q-4 -31 24 -36l72 -15l-12 -94h-221l-5 72q0 9 -0.5 14t-7.5 11.5t-20 6.5q-18 0 -43 -14l-139 -84q-134 -20 -275 -20q-104 0 -176.5 9t-125.5 32.5t-83 57.5t-44.5 90.5 t-13.5 125t13 166.5l92 752q4 31 -24 36l-72 15l12 94h344l-12 -94l-76 -15q-29 -5 -33 -36l-90 -744q-10 -82 -12 -136t8 -98t31 -68.5t61.5 -41t93.5 -22t134 -5.5q115 0 230.5 14t173.5 28l59 14l129 1059q4 31 -25 36l-72 15l13 94h344z" />
<glyph unicode="&#xdb;" horiz-adv-x="1568" d="M1221 1528l-62 -72l-166 152l-205 -152l-43 72l265 209zM1608 1364l-13 -94l-75 -15q-29 -5 -33 -36l-131 -1074q-4 -31 24 -36l72 -15l-12 -94h-221l-5 72q0 9 -0.5 14t-7.5 11.5t-20 6.5q-18 0 -43 -14l-139 -84q-134 -20 -275 -20q-104 0 -176.5 9t-125.5 32.5 t-83 57.5t-44.5 90.5t-13.5 125t13 166.5l92 752q4 31 -24 36l-72 15l12 94h344l-12 -94l-76 -15q-29 -5 -33 -36l-90 -744q-10 -82 -12 -136t8 -98t31 -68.5t61.5 -41t93.5 -22t134 -5.5q115 0 230.5 14t173.5 28l59 14l129 1059q4 31 -25 36l-72 15l13 94h344z" />
<glyph unicode="&#xdc;" horiz-adv-x="1568" d="M1245 1669l-18 -149h-160l18 149h160zM883 1669l-19 -149h-159l18 149h160zM1608 1364l-13 -94l-75 -15q-29 -5 -33 -36l-131 -1074q-4 -31 24 -36l72 -15l-12 -94h-221l-5 72q0 9 -0.5 14t-7.5 11.5t-20 6.5q-18 0 -43 -14l-139 -84q-134 -20 -275 -20q-104 0 -176.5 9 t-125.5 32.5t-83 57.5t-44.5 90.5t-13.5 125t13 166.5l92 752q4 31 -24 36l-72 15l12 94h344l-12 -94l-76 -15q-29 -5 -33 -36l-90 -744q-10 -82 -12 -136t8 -98t31 -68.5t61.5 -41t93.5 -22t134 -5.5q115 0 230.5 14t173.5 28l59 14l129 1059q4 31 -25 36l-72 15l13 94h344 z" />
<glyph unicode="&#xdd;" horiz-adv-x="1269" d="M1020 1638l-287 -180l-35 74l271 205zM1378 1364l-12 -94l-76 -15q-29 -5 -33 -36l-100 -822q-12 -95 -24 -147.5t-44.5 -111t-87.5 -86.5t-149 -47t-231 -19q-105 0 -203.5 9t-144.5 19l-46 9l31 110q150 -31 379 -31q85 0 145 6t100.5 25.5t63.5 37t38 58.5t20.5 71.5 t13.5 94.5l14 113q3 43 -31 43q-12 0 -36 -16l-140 -89q-102 -14 -196 -14q-129 0 -208 22t-121 70.5t-50.5 125t4.5 184.5l47 385q4 31 -25 36l-71 15l12 94h344l-12 -94l-76 -15q-29 -5 -33 -36l-45 -375q-6 -48 -7.5 -84t3 -66.5t14.5 -51.5t29 -37.5t43.5 -26.5 t61.5 -16t80 -8.5t102 -2.5q56 0 134 13t124 24.5t63 17.5l76 613q4 31 -24 36l-72 15l12 94h344z" />
<glyph unicode="&#xde;" horiz-adv-x="1376" d="M1362 711q-5 -38 -8 -59.5t-11.5 -64t-18.5 -69.5t-28 -66.5t-39.5 -65.5t-54.5 -55t-72 -45.5t-92.5 -28t-115.5 -11.5h-131l-218 8l-90 68q-24 16 -37 16q-21 0 -27.5 -10t-8.5 -29l-19 -154q-4 -31 25 -36l71 -15l-12 -94h-344l12 94l76 15q29 5 33 36l131 1074 q4 31 -25 36l-71 15l12 94h344l-12 -94l-76 -15q-29 -5 -33 -36l-12 -99h514q192 0 277.5 -103.5t60.5 -305.5zM1214 690q12 97 0 159t-51 95t-91.5 45t-135.5 12h-440l-76 -614q59 -13 136 -18.5t114.5 -6t138.5 -0.5q49 0 80 1t68.5 4.5t61.5 10t51 18t44 29t34.5 41.5 t29 56.5t21 74t15.5 93.5z" />
<glyph unicode="&#xdf;" horiz-adv-x="1054" d="M633 737l-60 4l13 93l59 8q110 15 164 62.5t68 166.5q5 40 5 69t-4.5 51.5t-16.5 37t-27 23.5t-41.5 14t-53.5 6.5t-69 1.5q-49 0 -80 -2t-61.5 -9.5t-48 -21t-33.5 -36.5t-24.5 -55t-14.5 -79l-132 -1071h-210l10 80l53 10q20 4 26 11t9 26l115 944q12 96 35.5 154 t72.5 93t117.5 47.5t179.5 12.5q63 0 109.5 -4t85.5 -13t63 -25t42.5 -39.5t24 -55.5t8 -74.5t-6.5 -95.5q-10 -88 -48 -147.5t-124 -83.5q-2 -1 -9 -3l-10.5 -3t-9 -4t-8 -5.5t-5.5 -7t-3 -10.5q-2 -22 24 -29q105 -27 148.5 -67.5t48.5 -114.5t-13 -193 q-16 -125 -43 -202.5t-77.5 -122.5t-118 -61.5t-174.5 -16.5h-131l10 84l86 8q48 4 75 7.5t60 11t50.5 16.5t38.5 26t32 38.5t23 54t19.5 73t14.5 95.5q8 63 9 108t-2 79.5t-17 56.5t-30 37t-48 23t-63 12t-82 7z" />
<glyph unicode="&#xe0;" horiz-adv-x="1099" d="M874 1143l-51 -74l-245 180l77 99zM1051 915l-97 -786q-3 -20 1.5 -27t21.5 -10l53 -10l-10 -82h-201l-2 51q0 1 -0.5 4t-1 5t-1 5t-1.5 5t-2.5 4.5t-4 4l-5 3t-6.5 2t-9 0.5q-12 0 -43 -18l-104 -66q-90 -14 -176 -14q-91 0 -154 24t-97.5 64t-49.5 105t-14 133.5 t12 162.5q12 91 27.5 157.5t47.5 133t77.5 107.5t118.5 66.5t169 25.5q91 0 204 -12.5t180 -24.5zM911 836q-150 24 -280 24q-92 0 -148 -16.5t-94.5 -62.5t-58.5 -116t-35 -190q-10 -80 -12 -135t5 -100t23.5 -72t47.5 -45.5t73 -25.5t103 -7q64 0 136.5 10t112.5 20l41 11 z" />
<glyph unicode="&#xe1;" horiz-adv-x="1099" d="M887 1249l-287 -180l-35 74l271 205zM1051 915l-97 -786q-3 -20 1.5 -27t21.5 -10l53 -10l-10 -82h-201l-2 51q0 1 -0.5 4t-1 5t-1 5t-1.5 5t-2.5 4.5t-4 4l-5 3t-6.5 2t-9 0.5q-12 0 -43 -18l-104 -66q-90 -14 -176 -14q-91 0 -154 24t-97.5 64t-49.5 105t-14 133.5 t12 162.5q12 91 27.5 157.5t47.5 133t77.5 107.5t118.5 66.5t169 25.5q91 0 204 -12.5t180 -24.5zM911 836q-150 24 -280 24q-92 0 -148 -16.5t-94.5 -62.5t-58.5 -116t-35 -190q-10 -80 -12 -135t5 -100t23.5 -72t47.5 -45.5t73 -25.5t103 -7q64 0 136.5 10t112.5 20l41 11 z" />
<glyph unicode="&#xe2;" horiz-adv-x="1099" d="M936 1141l-59 -72l-166 152l-205 -152l-45 72l266 209zM1051 915l-97 -786q-3 -20 1.5 -27t21.5 -10l53 -10l-10 -82h-201l-2 51q0 1 -0.5 4t-1 5t-1 5t-1.5 5t-2.5 4.5t-4 4l-5 3t-6.5 2t-9 0.5q-12 0 -43 -18l-104 -66q-90 -14 -176 -14q-91 0 -154 24t-97.5 64 t-49.5 105t-14 133.5t12 162.5q12 91 27.5 157.5t47.5 133t77.5 107.5t118.5 66.5t169 25.5q91 0 204 -12.5t180 -24.5zM911 836q-150 24 -280 24q-92 0 -148 -16.5t-94.5 -62.5t-58.5 -116t-35 -190q-10 -80 -12 -135t5 -100t23.5 -72t47.5 -45.5t73 -25.5t103 -7 q64 0 136.5 10t112.5 20l41 11z" />
<glyph unicode="&#xe3;" horiz-adv-x="1099" d="M952 1221q-80 -125 -159 -125q-39 0 -109 39q-42 23 -59.5 29.5t-36.5 6.5q-23 0 -38 -14t-40 -57l-68 51q44 67 81 95t81 28q38 0 109 -39q74 -39 96 -39q18 0 35 17.5t41 58.5zM1051 915l-97 -786q-3 -20 1.5 -27t21.5 -10l53 -10l-10 -82h-201l-2 51q0 1 -0.5 4t-1 5 t-1 5t-1.5 5t-2.5 4.5t-4 4l-5 3t-6.5 2t-9 0.5q-12 0 -43 -18l-104 -66q-90 -14 -176 -14q-91 0 -154 24t-97.5 64t-49.5 105t-14 133.5t12 162.5q12 91 27.5 157.5t47.5 133t77.5 107.5t118.5 66.5t169 25.5q91 0 204 -12.5t180 -24.5zM911 836q-150 24 -280 24 q-92 0 -148 -16.5t-94.5 -62.5t-58.5 -116t-35 -190q-10 -80 -12 -135t5 -100t23.5 -72t47.5 -45.5t73 -25.5t103 -7q64 0 136.5 10t112.5 20l41 11z" />
<glyph unicode="&#xe4;" horiz-adv-x="1099" d="M979 1266l-18 -150h-160l18 150h160zM616 1266l-18 -150h-160l19 150h159zM1051 915l-97 -786q-3 -20 1.5 -27t21.5 -10l53 -10l-10 -82h-201l-2 51q0 1 -0.5 4t-1 5t-1 5t-1.5 5t-2.5 4.5t-4 4l-5 3t-6.5 2t-9 0.5q-12 0 -43 -18l-104 -66q-90 -14 -176 -14 q-91 0 -154 24t-97.5 64t-49.5 105t-14 133.5t12 162.5q12 91 27.5 157.5t47.5 133t77.5 107.5t118.5 66.5t169 25.5q91 0 204 -12.5t180 -24.5zM911 836q-150 24 -280 24q-92 0 -148 -16.5t-94.5 -62.5t-58.5 -116t-35 -190q-10 -80 -12 -135t5 -100t23.5 -72t47.5 -45.5 t73 -25.5t103 -7q64 0 136.5 10t112.5 20l41 11z" />
<glyph unicode="&#xe5;" horiz-adv-x="1099" d="M915 1221q-12 -101 -60 -144t-157 -43t-146.5 43t-25.5 144q12 99 61 141.5t156 42.5q109 0 146.5 -42t25.5 -142zM831 1221q10 69 -7.5 95.5t-86.5 26.5q-70 0 -94.5 -26.5t-32.5 -95.5t9.5 -96t87.5 -27q69 0 92.5 26.5t31.5 96.5zM1051 915l-97 -786q-3 -20 1.5 -27 t21.5 -10l53 -10l-10 -82h-201l-2 51q0 1 -0.5 4t-1 5t-1 5t-1.5 5t-2.5 4.5t-4 4l-5 3t-6.5 2t-9 0.5q-12 0 -43 -18l-104 -66q-90 -14 -176 -14q-91 0 -154 24t-97.5 64t-49.5 105t-14 133.5t12 162.5q12 91 27.5 157.5t47.5 133t77.5 107.5t118.5 66.5t169 25.5 q91 0 204 -12.5t180 -24.5zM911 836q-150 24 -280 24q-92 0 -148 -16.5t-94.5 -62.5t-58.5 -116t-35 -190q-10 -80 -12 -135t5 -100t23.5 -72t47.5 -45.5t73 -25.5t103 -7q64 0 136.5 10t112.5 20l41 11z" />
<glyph unicode="&#xe6;" horiz-adv-x="1753" d="M1718 553q-3 -24 -16 -111q-7 0 -43 -3t-72.5 -5.5t-94 -5t-110.5 -2.5l-282 6l-58 45q-23 15 -34 15q-8 0 -14.5 -2t-10.5 -6.5t-7 -8t-5 -11.5t-2.5 -11.5t-2 -13t-1.5 -11.5q-7 -60 -9 -94t6 -84.5t33 -81.5q61 -78 256 -78q83 0 168 8t129 16l43 9l6 -96 q-16 -5 -44.5 -11.5t-120 -18t-185.5 -11.5q-226 0 -317 67q-7 5 -17.5 17t-16.5 17t-19.5 8.5t-26.5 -7.5l-135 -82q-82 -20 -250 -20q-145 0 -221.5 28.5t-102.5 91t-12 173.5q10 85 34 137t70 80.5t102.5 38.5t147.5 12l367 6l10 76q5 38 5 68t-5 53.5t-13.5 40.5 t-24 29.5t-33 20t-43.5 12t-53 6t-64 1.5q-87 0 -178.5 -11t-140.5 -23l-48 -11l-8 103q19 5 53.5 13t135.5 21t196 13q154 0 221 -32.5t96 -109.5q31 35 56 55.5t69 43t108 33t152 10.5q139 0 224 -21t121 -76q33 -49 40 -122.5t-8 -192.5zM1579 535q9 76 11 127.5t-7.5 89 t-25 58.5t-49 33t-70 15.5t-97.5 3.5q-109 0 -170 -11t-98 -42q-29 -25 -48 -63t-25.5 -67.5t-12.5 -76.5l-6 -57q62 -10 138 -15t121 -4h46q178 1 293 9zM852 139q-44 104 -18 318q7 0 -59.5 -1.5t-136.5 -3.5l-71 -1q-19 0 -50.5 -0.5t-47.5 -0.5t-41 -1.5t-38 -4.5 t-32 -9t-29 -14.5t-22.5 -21.5t-19.5 -30.5t-13.5 -40.5t-9.5 -52q-7 -52 1.5 -87t25.5 -54.5t53 -29.5t68.5 -12.5t87.5 -2.5q216 0 352 49z" />
<glyph unicode="&#xe7;" horiz-adv-x="952" d="M983 924l-27 -97q-142 33 -294 33q-83 0 -135.5 -9t-94 -31.5t-66 -68t-41 -110t-28.5 -166.5q-11 -85 -13 -142.5t7 -102.5t27 -70.5t53.5 -42t80 -22t113.5 -5.5q68 0 143.5 8t117.5 16l42 9l4 -96q-132 -35 -290 -41l-82 -92l2 -5q47 15 94 15q59 0 89 -36t22 -93 q-17 -156 -220 -156q-101 0 -172 33l31 65q61 -22 107 -22q23 0 45.5 4t44 12.5t36 25t17.5 38.5q2 21 -7.5 35t-25.5 19.5t-26 7t-19 1.5q-45 0 -88 -16l-18 43l69 121q-145 5 -219 47.5t-99.5 146.5t-2.5 295q19 152 52.5 246.5t94.5 149.5t140.5 74.5t205.5 19.5 q79 0 161.5 -10.5t125.5 -20.5z" />
<glyph unicode="&#xe8;" horiz-adv-x="1079" d="M854 1143l-51 -74l-246 180l78 99zM1044 553q-5 -49 -18 -111l-56 -4q-57 -5 -124.5 -8.5t-136.5 -3.5q-65 0 -136 2t-109 4l-38 2l-57 43q-23 15 -35 15q-18 0 -28 -12t-12 -22t-3 -30q-8 -55 -10 -93t6 -87t32 -80q59 -76 256 -76q84 0 169.5 8t129.5 16l44 9l6 -98 q-16 -5 -45 -11.5t-120.5 -18t-185.5 -11.5q-64 0 -111 3.5t-93.5 12.5t-78.5 25t-60.5 41.5t-44.5 62t-25.5 86t-8.5 113.5t11 145q22 207 88 322q51 94 149 131t269 37q139 0 223 -21t121 -76q33 -49 40 -122.5t-8 -192.5zM905 535q9 76 11 127.5t-7.5 89t-25 58.5t-49 33 t-70.5 15.5t-98 3.5q-58 0 -99.5 -2t-76.5 -11t-57 -17t-41.5 -30t-30 -39.5t-21.5 -57t-17 -70.5t-16 -90q61 -10 137 -15t122 -4h46q168 -3 293 9z" />
<glyph unicode="&#xe9;" horiz-adv-x="1079" d="M887 1249l-287 -180l-35 74l271 205zM1044 553q-5 -49 -18 -111l-56 -4q-57 -5 -124.5 -8.5t-136.5 -3.5q-65 0 -136 2t-109 4l-38 2l-57 43q-23 15 -35 15q-18 0 -28 -12t-12 -22t-3 -30q-8 -55 -10 -93t6 -87t32 -80q59 -76 256 -76q84 0 169.5 8t129.5 16l44 9l6 -98 q-16 -5 -45 -11.5t-120.5 -18t-185.5 -11.5q-64 0 -111 3.5t-93.5 12.5t-78.5 25t-60.5 41.5t-44.5 62t-25.5 86t-8.5 113.5t11 145q22 207 88 322q51 94 149 131t269 37q139 0 223 -21t121 -76q33 -49 40 -122.5t-8 -192.5zM905 535q9 76 11 127.5t-7.5 89t-25 58.5t-49 33 t-70.5 15.5t-98 3.5q-58 0 -99.5 -2t-76.5 -11t-57 -17t-41.5 -30t-30 -39.5t-21.5 -57t-17 -70.5t-16 -90q61 -10 137 -15t122 -4h46q168 -3 293 9z" />
<glyph unicode="&#xea;" horiz-adv-x="1079" d="M936 1141l-59 -72l-166 152l-205 -152l-45 72l266 209zM1044 553q-5 -49 -18 -111l-56 -4q-57 -5 -124.5 -8.5t-136.5 -3.5q-65 0 -136 2t-109 4l-38 2l-57 43q-23 15 -35 15q-18 0 -28 -12t-12 -22t-3 -30q-8 -55 -10 -93t6 -87t32 -80q59 -76 256 -76q84 0 169.5 8 t129.5 16l44 9l6 -98q-16 -5 -45 -11.5t-120.5 -18t-185.5 -11.5q-64 0 -111 3.5t-93.5 12.5t-78.5 25t-60.5 41.5t-44.5 62t-25.5 86t-8.5 113.5t11 145q22 207 88 322q51 94 149 131t269 37q139 0 223 -21t121 -76q33 -49 40 -122.5t-8 -192.5zM905 535q9 76 11 127.5 t-7.5 89t-25 58.5t-49 33t-70.5 15.5t-98 3.5q-58 0 -99.5 -2t-76.5 -11t-57 -17t-41.5 -30t-30 -39.5t-21.5 -57t-17 -70.5t-16 -90q61 -10 137 -15t122 -4h46q168 -3 293 9z" />
<glyph unicode="&#xeb;" horiz-adv-x="1079" d="M938 1266l-18 -150h-160l18 150h160zM575 1266l-18 -150h-160l19 150h159zM1044 553q-5 -49 -18 -111l-56 -4q-57 -5 -124.5 -8.5t-136.5 -3.5q-65 0 -136 2t-109 4l-38 2l-57 43q-23 15 -35 15q-18 0 -28 -12t-12 -22t-3 -30q-8 -55 -10 -93t6 -87t32 -80 q59 -76 256 -76q84 0 169.5 8t129.5 16l44 9l6 -98q-16 -5 -45 -11.5t-120.5 -18t-185.5 -11.5q-64 0 -111 3.5t-93.5 12.5t-78.5 25t-60.5 41.5t-44.5 62t-25.5 86t-8.5 113.5t11 145q22 207 88 322q51 94 149 131t269 37q139 0 223 -21t121 -76q33 -49 40 -122.5 t-8 -192.5zM905 535q9 76 11 127.5t-7.5 89t-25 58.5t-49 33t-70.5 15.5t-98 3.5q-58 0 -99.5 -2t-76.5 -11t-57 -17t-41.5 -30t-30 -39.5t-21.5 -57t-17 -70.5t-16 -90q61 -10 137 -15t122 -4h46q168 -3 293 9z" />
<glyph unicode="&#xec;" horiz-adv-x="483" d="M485 1143l-51 -74l-246 180l78 99zM428 952l-100 -823q-3 -20 1 -27t21 -10l53 -10l-10 -82h-293l11 80l53 10q20 4 26 11t9 26l84 696q3 20 -1.5 27t-21.5 10l-53 10l10 82h211z" />
<glyph unicode="&#xed;" horiz-adv-x="483" d="M524 1249l-286 -180l-35 74l270 205zM428 952l-100 -823q-3 -20 1 -27t21 -10l53 -10l-10 -82h-293l11 80l53 10q20 4 26 11t9 26l84 696q3 20 -1.5 27t-21.5 10l-53 10l10 82h211z" />
<glyph unicode="&#xee;" horiz-adv-x="483" d="M588 1141l-60 -72l-166 152l-204 -152l-45 72l266 209zM428 952l-100 -823q-3 -20 1 -27t21 -10l53 -10l-10 -82h-293l11 80l53 10q20 4 26 11t9 26l84 696q3 20 -1.5 27t-21.5 10l-53 10l10 82h211z" />
<glyph unicode="&#xef;" horiz-adv-x="483" d="M631 1266l-19 -150h-159l18 150h160zM268 1266l-18 -150h-160l19 150h159zM428 952l-100 -823q-3 -20 1 -27t21 -10l53 -10l-10 -82h-293l11 80l53 10q20 4 26 11t9 26l84 696q3 20 -1.5 27t-21.5 10l-53 10l10 82h211z" />
<glyph unicode="&#xf0;" horiz-adv-x="1050" d="M645 965q80 0 148 -23l-150 234l-168 -97l-26 72l153 88l-80 125h129l58 -90l131 76l26 -70l-116 -68l221 -340q73 -110 37 -397q-13 -106 -28 -177t-40 -128.5t-57.5 -90.5t-85 -55.5t-116.5 -30t-157 -7.5q-94 0 -156 7.5t-109 30t-71 55.5t-35 91t-8.5 128.5 t15.5 176.5t28 176.5t40.5 129t58 91t84.5 55t116.5 30.5t157.5 8zM872 475q7 56 11 95.5t5.5 77.5t0 63t-7.5 49t-15 38t-25 27t-34 19t-46 10.5t-58 6t-72 1.5q-70 0 -112.5 -4t-80 -20.5t-57 -39t-37 -70.5t-27 -103.5t-20.5 -149.5q-9 -70 -13 -116t-4 -90t4.5 -69 t18.5 -48t31.5 -33.5t48.5 -18.5t66 -10t88 -2q71 0 113.5 4t80 20.5t56.5 38.5t36.5 70.5t27 103.5t21.5 150z" />
<glyph unicode="&#xf1;" horiz-adv-x="1157" d="M973 1221q-80 -125 -160 -125q-38 0 -108 39q-66 36 -97 36q-23 0 -38 -14t-40 -57l-67 51q44 67 81 95t81 28q37 0 108 -39q74 -39 96 -39q18 0 35 17.5t41 58.5zM1087 80l-10 -82h-293l11 82l53 10q20 3 26 9.5t9 27.5l55 463q8 60 9 99t-6 71.5t-22 50t-44.5 29.5 t-68 16t-97.5 4q-64 0 -137.5 -8.5t-115.5 -17.5l-42 -9l-86 -696q-3 -20 1 -27t21 -10l53 -10l-10 -82h-293l11 80l53 10q20 4 26 11t9 26l84 696q3 20 -1.5 27t-21.5 10l-53 10l10 82h189l2 -51q0 -1 1 -6.5t1.5 -7.5t2.5 -6.5t4.5 -6.5t7.5 -4t11 -2q12 0 45 19l107 65 q113 13 170 13q73 0 124 -6.5t90.5 -22.5t61 -42t35 -65t11.5 -91.5t-9 -121.5l-59 -489q-3 -19 1 -26.5t21 -10.5z" />
<glyph unicode="&#xf2;" horiz-adv-x="1069" d="M813 1143l-51 -74l-246 180l78 99zM1024 475q-13 -106 -27.5 -176.5t-40.5 -128.5t-58.5 -91t-86 -55.5t-119 -30t-160.5 -7.5t-158.5 7.5t-111.5 30t-72.5 55.5t-36 91t-9 128.5t15.5 176.5t28 176.5t41 129t58.5 91t86 55t119 30.5t160.5 8t158.5 -8t111.5 -30 t72.5 -55t36 -91.5t8.5 -129t-16 -176.5zM889 475q9 70 13 116t4 90t-5 69t-19 48t-32 33.5t-50.5 18.5t-68.5 10t-90 2q-73 0 -117 -4t-82.5 -20.5t-58.5 -38.5t-38 -70.5t-27.5 -104t-20.5 -149.5q-9 -70 -13 -116t-4 -90t5 -69t19 -48t32 -33.5t50.5 -18.5t68.5 -10 t90 -2q73 0 117 4t82.5 20.5t58.5 38.5t38 70.5t27.5 104t20.5 149.5z" />
<glyph unicode="&#xf3;" horiz-adv-x="1069" d="M846 1249l-287 -180l-35 74l271 205zM1024 475q-13 -106 -27.5 -176.5t-40.5 -128.5t-58.5 -91t-86 -55.5t-119 -30t-160.5 -7.5t-158.5 7.5t-111.5 30t-72.5 55.5t-36 91t-9 128.5t15.5 176.5t28 176.5t41 129t58.5 91t86 55t119 30.5t160.5 8t158.5 -8t111.5 -30 t72.5 -55t36 -91.5t8.5 -129t-16 -176.5zM889 475q9 70 13 116t4 90t-5 69t-19 48t-32 33.5t-50.5 18.5t-68.5 10t-90 2q-73 0 -117 -4t-82.5 -20.5t-58.5 -38.5t-38 -70.5t-27.5 -104t-20.5 -149.5q-9 -70 -13 -116t-4 -90t5 -69t19 -48t32 -33.5t50.5 -18.5t68.5 -10 t90 -2q73 0 117 4t82.5 20.5t58.5 38.5t38 70.5t27.5 104t20.5 149.5z" />
<glyph unicode="&#xf4;" horiz-adv-x="1069" d="M913 1141l-59 -72l-166 152l-205 -152l-45 72l267 209zM1024 475q-13 -106 -27.5 -176.5t-40.5 -128.5t-58.5 -91t-86 -55.5t-119 -30t-160.5 -7.5t-158.5 7.5t-111.5 30t-72.5 55.5t-36 91t-9 128.5t15.5 176.5t28 176.5t41 129t58.5 91t86 55t119 30.5t160.5 8 t158.5 -8t111.5 -30t72.5 -55t36 -91.5t8.5 -129t-16 -176.5zM889 475q9 70 13 116t4 90t-5 69t-19 48t-32 33.5t-50.5 18.5t-68.5 10t-90 2q-73 0 -117 -4t-82.5 -20.5t-58.5 -38.5t-38 -70.5t-27.5 -104t-20.5 -149.5q-9 -70 -13 -116t-4 -90t5 -69t19 -48t32 -33.5 t50.5 -18.5t68.5 -10t90 -2q73 0 117 4t82.5 20.5t58.5 38.5t38 70.5t27.5 104t20.5 149.5z" />
<glyph unicode="&#xf5;" horiz-adv-x="1069" d="M932 1221q-80 -125 -160 -125q-38 0 -108 39q-66 36 -97 36q-23 0 -38 -14t-40 -57l-67 51q44 67 81 95t81 28q37 0 108 -39q74 -39 96 -39q18 0 35 17.5t41 58.5zM1024 475q-13 -106 -27.5 -176.5t-40.5 -128.5t-58.5 -91t-86 -55.5t-119 -30t-160.5 -7.5t-158.5 7.5 t-111.5 30t-72.5 55.5t-36 91t-9 128.5t15.5 176.5t28 176.5t41 129t58.5 91t86 55t119 30.5t160.5 8t158.5 -8t111.5 -30t72.5 -55t36 -91.5t8.5 -129t-16 -176.5zM889 475q9 70 13 116t4 90t-5 69t-19 48t-32 33.5t-50.5 18.5t-68.5 10t-90 2q-73 0 -117 -4t-82.5 -20.5 t-58.5 -38.5t-38 -70.5t-27.5 -104t-20.5 -149.5q-9 -70 -13 -116t-4 -90t5 -69t19 -48t32 -33.5t50.5 -18.5t68.5 -10t90 -2q73 0 117 4t82.5 20.5t58.5 38.5t38 70.5t27.5 104t20.5 149.5z" />
<glyph unicode="&#xf6;" horiz-adv-x="1069" d="M938 1266l-18 -150h-160l18 150h160zM575 1266l-18 -150h-160l19 150h159zM1024 475q-13 -106 -27.5 -176.5t-40.5 -128.5t-58.5 -91t-86 -55.5t-119 -30t-160.5 -7.5t-158.5 7.5t-111.5 30t-72.5 55.5t-36 91t-9 128.5t15.5 176.5t28 176.5t41 129t58.5 91t86 55 t119 30.5t160.5 8t158.5 -8t111.5 -30t72.5 -55t36 -91.5t8.5 -129t-16 -176.5zM889 475q9 70 13 116t4 90t-5 69t-19 48t-32 33.5t-50.5 18.5t-68.5 10t-90 2q-73 0 -117 -4t-82.5 -20.5t-58.5 -38.5t-38 -70.5t-27.5 -104t-20.5 -149.5q-9 -70 -13 -116t-4 -90t5 -69 t19 -48t32 -33.5t50.5 -18.5t68.5 -10t90 -2q73 0 117 4t82.5 20.5t58.5 38.5t38 70.5t27.5 104t20.5 149.5z" />
<glyph unicode="&#xf7;" d="M897 1178l-23 -191h-172l23 191h172zM1186 745l-17 -129h-856l17 129h856zM799 375l-23 -191h-172l23 191h172z" />
<glyph unicode="&#xf8;" horiz-adv-x="1069" d="M1024 475q-13 -106 -27.5 -176.5t-40.5 -128.5t-58.5 -91t-86 -55.5t-119 -30t-160.5 -7.5t-158.5 7.5t-111.5 30t-72.5 55.5t-36 91t-9 128.5t15.5 176.5t28 176.5t41 129t58.5 91t86 55t119 30.5t160.5 8t158.5 -8t111.5 -30t72.5 -55t36 -91.5t8.5 -129t-16 -176.5z M889 788q-24 45 -78.5 59.5t-169.5 14.5q-73 0 -117 -4t-82.5 -20.5t-58.5 -38.5t-38 -70.5t-27.5 -104t-20.5 -149.5q-18 -135 -18 -213zM907 690l-610 -528q22 -45 77.5 -59.5t170.5 -14.5q73 0 117 4t82.5 20.5t58.5 38.5t38 70.5t27.5 104t20.5 149.5q18 135 18 215z " />
<glyph unicode="&#xf9;" horiz-adv-x="1140" d="M813 1143l-51 -74l-246 180l78 99zM1087 952l-100 -823q-3 -20 1.5 -27t21.5 -10l53 -10l-10 -82h-191l-2 51q0 33 -29 33q-16 0 -43 -18l-106 -66q-99 -14 -156 -14q-87 0 -144 10t-97.5 34t-57 64t-22 100t7.5 142l59 487q3 20 -1 27t-21 10l-53 10l10 82h211l-72 -590 q-8 -60 -9 -99.5t6 -71.5t22 -50t44.5 -30.5t68 -16.5t97.5 -4q64 0 134.5 10t109.5 20l39 9l84 694q3 20 -1 27t-21 10l-54 10l11 82h210z" />
<glyph unicode="&#xfa;" horiz-adv-x="1140" d="M866 1249l-286 -180l-35 74l270 205zM1087 952l-100 -823q-3 -20 1.5 -27t21.5 -10l53 -10l-10 -82h-191l-2 51q0 33 -29 33q-16 0 -43 -18l-106 -66q-99 -14 -156 -14q-87 0 -144 10t-97.5 34t-57 64t-22 100t7.5 142l59 487q3 20 -1 27t-21 10l-53 10l10 82h211 l-72 -590q-8 -60 -9 -99.5t6 -71.5t22 -50t44.5 -30.5t68 -16.5t97.5 -4q64 0 134.5 10t109.5 20l39 9l84 694q3 20 -1 27t-21 10l-54 10l11 82h210z" />
<glyph unicode="&#xfb;" horiz-adv-x="1140" d="M936 1141l-59 -72l-166 152l-205 -152l-45 72l266 209zM1087 952l-100 -823q-3 -20 1.5 -27t21.5 -10l53 -10l-10 -82h-191l-2 51q0 33 -29 33q-16 0 -43 -18l-106 -66q-99 -14 -156 -14q-87 0 -144 10t-97.5 34t-57 64t-22 100t7.5 142l59 487q3 20 -1 27t-21 10l-53 10 l10 82h211l-72 -590q-8 -60 -9 -99.5t6 -71.5t22 -50t44.5 -30.5t68 -16.5t97.5 -4q64 0 134.5 10t109.5 20l39 9l84 694q3 20 -1 27t-21 10l-54 10l11 82h210z" />
<glyph unicode="&#xfc;" horiz-adv-x="1140" d="M958 1266l-18 -150h-160l19 150h159zM596 1266l-18 -150h-160l18 150h160zM1087 952l-100 -823q-3 -20 1.5 -27t21.5 -10l53 -10l-10 -82h-191l-2 51q0 33 -29 33q-16 0 -43 -18l-106 -66q-99 -14 -156 -14q-87 0 -144 10t-97.5 34t-57 64t-22 100t7.5 142l59 487 q3 20 -1 27t-21 10l-53 10l10 82h211l-72 -590q-8 -60 -9 -99.5t6 -71.5t22 -50t44.5 -30.5t68 -16.5t97.5 -4q64 0 134.5 10t109.5 20l39 9l84 694q3 20 -1 27t-21 10l-54 10l11 82h210z" />
<glyph unicode="&#xfd;" horiz-adv-x="1107" d="M866 1249l-286 -180l-35 74l270 205zM1124 952l-10 -80l-53 -10q-19 -5 -25.5 -11.5t-9.5 -25.5l-96 -784q-12 -97 -26.5 -162.5t-39.5 -118.5t-57 -83t-83 -50.5t-113.5 -27.5t-153.5 -7q-74 0 -145.5 7t-106.5 15l-35 7l27 100q114 -26 272 -26q53 0 92.5 3t71.5 11.5 t54 18.5t39.5 30t28 39.5t19.5 54t14 66t11 82.5l4 37q7 43 -29 43q-14 0 -39 -17l-102 -65q-60 -12 -117 -12q-87 0 -144 10t-97.5 34t-57 64t-22 100t7.5 142l59 487q3 20 -1 27t-21 10l-54 10l11 82h292l-10 -80l-53 -10q-19 -5 -25.5 -11.5t-9.5 -25.5l-55 -463 q-8 -60 -9 -99.5t6 -71.5t22 -50t44.5 -30.5t68 -16.5t97.5 -4q64 0 126 10t92 20l30 11l84 692q3 20 -1.5 27t-21.5 10l-53 10l10 82h293z" />
<glyph unicode="&#xfe;" horiz-adv-x="1099" d="M1057 479q-27 -229 -96 -336q-51 -82 -140.5 -119.5t-232.5 -37.5q-98 0 -295 37l-37 -302q-1 -20 3.5 -26.5t21.5 -9.5l51 -11l-8 -82h-293l8 80l55 11q19 5 25.5 11.5t7.5 24.5l186 1516q3 20 -1 27t-23 10l-51 10l10 82h211l-56 -449q-6 -43 29 -43q16 0 39 15l100 63 q83 15 183 15q145 0 219.5 -56.5t88.5 -164.5t-5 -265zM922 479q10 80 12 134.5t-5 99.5t-23.5 71.5t-47.5 44.5t-73 24.5t-103 6.5q-64 0 -136.5 -10t-113.5 -20l-41 -11l-86 -702q128 -27 275 -27q64 0 107.5 6t80 23.5t59.5 43.5t42 71.5t30.5 102.5t22.5 142z" />
<glyph unicode="&#xff;" horiz-adv-x="1107" d="M958 1266l-18 -150h-160l19 150h159zM596 1266l-18 -150h-160l18 150h160zM1124 952l-10 -80l-53 -10q-19 -5 -25.5 -11.5t-9.5 -25.5l-96 -784q-12 -97 -26.5 -162.5t-39.5 -118.5t-57 -83t-83 -50.5t-113.5 -27.5t-153.5 -7q-74 0 -145.5 7t-106.5 15l-35 7l27 100 q114 -26 272 -26q53 0 92.5 3t71.5 11.5t54 18.5t39.5 30t28 39.5t19.5 54t14 66t11 82.5l4 37q7 43 -29 43q-14 0 -39 -17l-102 -65q-60 -12 -117 -12q-87 0 -144 10t-97.5 34t-57 64t-22 100t7.5 142l59 487q3 20 -1 27t-21 10l-54 10l11 82h292l-10 -80l-53 -10 q-19 -5 -25.5 -11.5t-9.5 -25.5l-55 -463q-8 -60 -9 -99.5t6 -71.5t22 -50t44.5 -30.5t68 -16.5t97.5 -4q64 0 126 10t92 20l30 11l84 692q3 20 -1.5 27t-21.5 10l-53 10l10 82h293z" />
<glyph unicode="&#x152;" horiz-adv-x="2064" d="M2132 1364l-14 -119h-752l-61 -487h731l-15 -117h-731l-63 -522h751l-14 -119h-891l8 74q-69 -46 -163.5 -67t-247.5 -21q-99 0 -171 6t-128.5 24.5t-92.5 40t-59 66.5t-32.5 89t-9 123t7.5 153t22 192q12 97 22.5 166.5t24.5 137.5t28.5 113.5t37 89t46.5 69.5t59.5 50 t74 36t92.5 21t112 12t136 3q154 0 244 -20t147 -66l10 72h891zM1155 680q31 264 33 330q2 132 -49 184q-57 57 -224 66q-40 2 -90 2q-77 0 -127.5 -2.5t-98 -15.5t-75.5 -27.5t-55.5 -50t-41.5 -71t-29.5 -104t-25 -135t-22.5 -176.5q-11 -88 -16.5 -138.5t-9.5 -113 t-3 -94.5t7.5 -72.5t18 -58.5t32.5 -40.5t47.5 -30.5t66 -17t84.5 -11t107 -2q78 0 132.5 4.5t101 16t75.5 30.5t53 50.5t38.5 72.5t26.5 99.5t22 129.5t21 164v3.5t0.5 3.5t0.5 4z" />
<glyph unicode="&#x153;" horiz-adv-x="1808" d="M1774 553q0 -2 -17 -111q-3 0 -58.5 -4.5t-123.5 -8t-137 -3.5l-283 6l-57 45q-22 15 -35 15q-18 0 -28 -12t-12 -22t-3 -30q-8 -54 -10 -93t6.5 -87.5t32.5 -79.5q61 -78 256 -78q84 0 169.5 8t129.5 16l43 9l6 -96q-16 -5 -44.5 -11.5t-120 -18t-185.5 -11.5 q-229 0 -320 67q-37 30 -55 64q-51 -74 -141.5 -102.5t-254.5 -28.5q-95 0 -158.5 7.5t-111.5 30t-72.5 55.5t-36 91t-9 128.5t15.5 176.5t28 176.5t41 129t58.5 91t86 55t119 30.5t160.5 8q158 0 241.5 -26t117.5 -93q54 65 146 92t239 27q139 0 223 -21t121 -76 q33 -49 40.5 -122t-7.5 -193zM1634 535q9 76 11 127.5t-7.5 89t-25 58.5t-49 33t-70.5 15.5t-98 3.5q-58 0 -99.5 -2t-76.5 -11t-57 -17t-41.5 -30t-30 -39.5t-21.5 -57t-17 -70.5t-16 -90q61 -10 137 -15t122 -4h46q178 1 293 9zM893 475q9 70 13 116.5t3.5 89.5t-5.5 68.5 t-19.5 48t-33.5 33.5t-51 19t-68.5 10t-90.5 2q-73 0 -117 -4t-82.5 -20.5t-58.5 -38.5t-38 -70.5t-27.5 -104t-20.5 -149.5q-9 -70 -13 -116t-4 -90t5 -69t19 -48t32 -33.5t50.5 -18.5t68.5 -10t90 -2q73 0 117.5 4t83.5 20t59.5 39t38.5 70.5t28 104t21 149.5z" />
<glyph unicode="&#x178;" horiz-adv-x="1269" d="M1102 1669l-19 -149h-159l18 149h160zM739 1669l-18 -149h-160l19 149h159zM1378 1364l-12 -94l-76 -15q-29 -5 -33 -36l-100 -822q-12 -95 -24 -147.5t-44.5 -111t-87.5 -86.5t-149 -47t-231 -19q-105 0 -203.5 9t-144.5 19l-46 9l31 110q150 -31 379 -31q85 0 145 6 t100.5 25.5t63.5 37t38 58.5t20.5 71.5t13.5 94.5l14 113q3 43 -31 43q-12 0 -36 -16l-140 -89q-102 -14 -196 -14q-129 0 -208 22t-121 70.5t-50.5 125t4.5 184.5l47 385q4 31 -25 36l-71 15l12 94h344l-12 -94l-76 -15q-29 -5 -33 -36l-45 -375q-6 -48 -7.5 -84t3 -66.5 t14.5 -51.5t29 -37.5t43.5 -26.5t61.5 -16t80 -8.5t102 -2.5q56 0 134 13t124 24.5t63 17.5l76 613q4 31 -24 36l-72 15l12 94h344z" />
<glyph unicode="&#x2c6;" horiz-adv-x="667" d="M711 1141l-60 -72l-166 152l-204 -152l-45 72l266 209z" />
<glyph unicode="&#x2dc;" horiz-adv-x="694" d="M748 1221q-80 -125 -160 -125q-39 0 -109 39q-42 23 -59.5 29.5t-36.5 6.5q-23 0 -38 -14t-40 -57l-67 51q44 68 80.5 95.5t80.5 27.5q38 0 109 -39q74 -39 96 -39q18 0 35 17.5t41 58.5z" />
<glyph unicode="&#x2000;" horiz-adv-x="939" />
<glyph unicode="&#x2001;" horiz-adv-x="1878" />
<glyph unicode="&#x2002;" horiz-adv-x="939" />
<glyph unicode="&#x2003;" horiz-adv-x="1878" />
<glyph unicode="&#x2004;" horiz-adv-x="626" />
<glyph unicode="&#x2005;" horiz-adv-x="469" />
<glyph unicode="&#x2006;" horiz-adv-x="313" />
<glyph unicode="&#x2007;" horiz-adv-x="313" />
<glyph unicode="&#x2008;" horiz-adv-x="234" />
<glyph unicode="&#x2009;" horiz-adv-x="375" />
<glyph unicode="&#x200a;" horiz-adv-x="104" />
<glyph unicode="&#x2010;" horiz-adv-x="577" d="M551 563l-16 -133h-385l16 133h385z" />
<glyph unicode="&#x2011;" horiz-adv-x="577" d="M551 563l-16 -133h-385l16 133h385z" />
<glyph unicode="&#x2012;" horiz-adv-x="577" d="M551 563l-16 -133h-385l16 133h385z" />
<glyph unicode="&#x2013;" horiz-adv-x="921" d="M895 563l-16 -133h-729l16 133h729z" />
<glyph unicode="&#x2014;" horiz-adv-x="1468" d="M1442 563l-17 -133h-1275l18 133h1274z" />
<glyph unicode="&#x2018;" horiz-adv-x="397" d="M496 1499l-136 -235h74l-20 -166h-178l20 166l137 235h103z" />
<glyph unicode="&#x2019;" horiz-adv-x="397" d="M465 1364l-21 -166l-137 -235h-102l135 235h-74l21 166h178z" />
<glyph unicode="&#x201a;" horiz-adv-x="397" d="M317 166l-20 -166l-137 -236h-103l136 236h-74l20 166h178z" />
<glyph unicode="&#x201c;" horiz-adv-x="700" d="M799 1499l-135 -235h73l-20 -166h-178l20 166l137 235h103zM496 1499l-136 -235h74l-20 -166h-178l20 166l137 235h103z" />
<glyph unicode="&#x201d;" horiz-adv-x="700" d="M768 1364l-20 -166l-138 -235h-102l135 235h-74l21 166h178zM465 1364l-21 -166l-137 -235h-102l135 235h-74l21 166h178z" />
<glyph unicode="&#x201e;" horiz-adv-x="700" d="M621 166l-21 -166l-137 -236h-103l136 236h-74l20 166h179zM317 166l-20 -166l-137 -236h-103l136 236h-74l20 166h178z" />
<glyph unicode="&#x2022;" horiz-adv-x="727" d="M725 692q-15 -117 -104 -200t-203 -84q-116 -2 -187.5 82t-56.5 202q13 118 105 201.5t208 81.5q114 -1 183 -83.5t55 -199.5z" />
<glyph unicode="&#x2026;" horiz-adv-x="1114" d="M1036 186l-22 -186h-207l22 186h207zM684 186l-25 -186h-204l22 186h207zM330 186l-23 -186h-207l23 186h207z" />
<glyph unicode="&#x202f;" horiz-adv-x="375" />
<glyph unicode="&#x2039;" horiz-adv-x="532" d="M535 981l-252 -457l161 -458l-98 -66l-186 524l286 518z" />
<glyph unicode="&#x203a;" horiz-adv-x="532" d="M500 524l-314 -524l-82 66l273 458l-139 457l102 61z" />
<glyph unicode="&#x205f;" horiz-adv-x="469" />
<glyph unicode="&#x20ac;" d="M1432 1323l-35 -119q-269 47 -439 47q-137 0 -219.5 -15.5t-134.5 -61.5q-85 -76 -127 -291h590l-14 -117h-596q-10 -65 -11 -86q-8 -61 -10 -82h596l-14 -117h-590q-9 -214 59 -293q42 -48 122.5 -65t219.5 -17q93 0 202.5 11.5t172.5 22.5l64 12l6 -113 q-27 -6 -73.5 -15t-172 -23.5t-229.5 -14.5q-173 0 -278 25t-159 89q-89 104 -77 381h-160l14 117h154q2 25 10 84q2 31 10 84h-153l14 117h160q55 278 168 383q70 63 180 87.5t279 24.5q214 0 471 -55z" />
<glyph unicode="&#x2122;" horiz-adv-x="1710" d="M1810 1364l-96 -776h-92l84 682q2 16 -1 23t-19 7t-31 -22l-293 -424h-105l-188 424q0 1 -2 5t-2.5 4.5t-2.5 4t-3.5 4t-3.5 2t-5 2t-6 0.5q-11 0 -17 -4.5t-8.5 -9.5t-4.5 -16l-82 -682h-94l96 776h211l170 -401q0 -9 8 -9q3 0 12 9l262 401h213zM844 1364l-13 -90h-256 l-83 -686h-97l84 686h-256l13 90h608z" />
<glyph unicode="&#x25fc;" horiz-adv-x="952" d="M0 952h952v-952h-952v952z" />
<glyph unicode="&#xfb01;" horiz-adv-x="1021" d="M967 952l-103 -823q-2 -20 3 -27t22 -10l53 -10l-10 -82h-293l10 80l53 10q19 5 25.5 11.5t7.5 25.5l86 688q2 20 -4 28.5t-24 8.5h-349l-88 -723q-3 -20 1.5 -27t21.5 -10l53 -10l-10 -82h-293l10 80l54 10q20 4 25.5 10.5t8.5 26.5l88 725h-180l12 100h181l16 129 q11 95 36 157.5t87 102.5q66 43 215 43q50 0 109 -3t93 -6l34 -3l-21 -100q-113 8 -199 8q-140 0 -175.5 -42t-51.5 -175q-4 -29 -6 -45l-8 -66h510z" />
<glyph unicode="&#xfb02;" horiz-adv-x="1021" d="M1014 1354l-150 -1225q-3 -20 2 -27t23 -10l53 -10l-10 -82h-293l10 80l53 10q19 5 25.5 11.5t7.5 25.5l90 725h-381l-88 -723q-3 -20 1.5 -27t21.5 -10l53 -10l-10 -82h-293l10 80l54 10q20 4 25.5 10.5t8.5 26.5l88 725h-180l12 100h181l16 129q11 95 36 157.5 t87 102.5q66 43 215 43q107 0 332 -30zM877 1266q-83 16 -177 16h-18h-23t-22.5 -0.5t-25.5 -2t-23 -4t-23.5 -6t-19 -8.5t-17.5 -12q-10 -9 -17.5 -21t-13.5 -30.5t-10 -30t-8 -37.5t-5.5 -35.5t-4.5 -40t-4 -36.5l-8 -66h381z" />
</font>
</defs>
</svg>
