<?xml version="1.0" encoding="utf-8"?>
<!-- Generator: Adobe Illustrator 19.0.0, SVG Export Plug-In . SVG Version: 6.00 Build 0)  -->
<svg version="1.1" id="Layer_1" xmlns="http://www.w3.org/2000/svg" xmlns:xlink="http://www.w3.org/1999/xlink" x="0px" y="0px"
	 width="22px" height="22px" viewBox="0 0 22 22" style="enable-background:new 0 0 22 22;" xml:space="preserve">
<style type="text/css">
	.st0{fill:none;stroke:#253A47;stroke-width:2;stroke-linecap:round;stroke-miterlimit:10;}
	.st1{fill:#253A47;}
</style>
<line class="st0" x1="7.4" y1="11" x2="15.4" y2="11"/>
<g>
	<path id="XMLID_14_" class="st1" d="M17,3L17,3c1.1,0,2,0.9,2,2l0,12c0,0.5-0.2,1-0.6,1.4C18,18.8,17.5,19,17,19L5,19
		c-1.1,0-2-0.9-2-2L3,5c0-1.1,0.9-2,2-2L17,3 M17,1L5,1C2.8,1,1,2.8,1,5l0,12c0,2.2,1.8,4,4,4l12,0c2.2,0,4-1.8,4-4l0-12
		C21,2.8,19.2,1,17,1L17,1z"/>
</g>
</svg>
