<?xml version="1.0" encoding="utf-8"?>
<!-- Generator: Adobe Illustrator 19.0.0, SVG Export Plug-In . SVG Version: 6.00 Build 0)  -->
<svg version="1.1" id="Layer_1" xmlns="http://www.w3.org/2000/svg" xmlns:xlink="http://www.w3.org/1999/xlink" x="0px" y="0px"
	 width="50px" height="50px" viewBox="0 0 50 50" style="enable-background:new 0 0 50 50;" xml:space="preserve">
<style type="text/css">
	.st0{fill-rule:evenodd;clip-rule:evenodd;fill:#FFFFFF;}
</style>
<g>
	<path class="st0" d="M18.7,36V21.1h-5V36H18.7L18.7,36z M16.2,19.1c1.7,0,2.8-1.1,2.8-2.6c0-1.5-1.1-2.6-2.8-2.6
		c-1.7,0-2.8,1.1-2.8,2.6C13.4,18,14.5,19.1,16.2,19.1L16.2,19.1L16.2,19.1z"/>
	<path class="st0" d="M21.4,36h5v-8.3c0-0.4,0-0.9,0.2-1.2c0.4-0.9,1.2-1.8,2.5-1.8c1.8,0,2.5,1.4,2.5,3.4v8h5v-8.5
		c0-4.6-2.4-6.7-5.7-6.7c-2.7,0-3.8,1.5-4.5,2.5h0v-2.2h-5C21.5,22.5,21.4,36,21.4,36L21.4,36z"/>
</g>
</svg>
