<?xml version="1.0" encoding="utf-8"?>
<!-- Generator: Adobe Illustrator 19.0.0, SVG Export Plug-In . SVG Version: 6.00 Build 0)  -->
<svg version="1.1" id="Layer_1" xmlns="http://www.w3.org/2000/svg" xmlns:xlink="http://www.w3.org/1999/xlink" x="0px" y="0px"
	 width="33px" height="33px" viewBox="0 0 33 33" style="enable-background:new 0 0 33 33;" xml:space="preserve">
<style type="text/css">
	.st0{fill:#67767F;}
</style>
<g id="XMLID_64_">
	<g id="XMLID_96_">
		<path id="XMLID_97_" class="st0" d="M18.2,9.2c0.6-0.8,1.1-1.9,1-2.9c-0.9,0-2.1,0.6-2.7,1.4c-0.6,0.7-1.1,1.8-1,2.9
			C16.5,10.6,17.5,10,18.2,9.2z M20.9,17.8H8.1l0,0L20.9,17.8L20.9,17.8c-0.3-0.6-0.4-1.5-0.3-2.3v0h0c0.1-1,0.7-2,1.2-2.3
			c0,0,0,0,0,0v0h0c0.1-0.1,0.4-0.4,0.6-0.5c-0.8-1.2-2.1-1.8-3.4-1.8c-1.3-0.1-2.7,0.8-3.5,0.8c-0.7,0-1.8-0.8-3-0.8l0,0
			c0,0-0.2,0-0.2,0c-1.5,0-2.9,0.9-3.6,2.3v0h0v0c-0.3,0.5-0.7,1.6-0.7,2.4v0C8,16,8,17.2,8.1,17.8c0,0,0,0,0,0l0,0
			c0.1,0.6,0.4,1.7,0.6,2.3v0h0c0.2,0.6,0.8,1.8,1.2,2.3v0h0c0.8,1.1,1.7,2.4,2.9,2.3c1.2,0,1.6-0.8,3-0.8c1.4,0,1.8,0.7,3,0.7
			c1.3-0.1,2-1.2,2.8-2.3c0.4-0.6,1-1.7,1.2-2.4h0c0-0.1,0.1-0.2,0.1-0.3C22.2,19.6,21.2,18.5,20.9,17.8z M8.7,20.1L8.7,20.1
			C8.7,20.1,8.7,20.1,8.7,20.1L8.7,20.1z"/>
	</g>
</g>
</svg>
