<?xml version="1.0" encoding="UTF-8" standalone="no"?>
<svg
   xmlns:dc="http://purl.org/dc/elements/1.1/"
   xmlns:cc="http://creativecommons.org/ns#"
   xmlns:rdf="http://www.w3.org/1999/02/22-rdf-syntax-ns#"
   xmlns:svg="http://www.w3.org/2000/svg"
   xmlns="http://www.w3.org/2000/svg"
   xmlns:sodipodi="http://sodipodi.sourceforge.net/DTD/sodipodi-0.dtd"
   xmlns:inkscape="http://www.inkscape.org/namespaces/inkscape"
   version="1.1"
   id="Layer_1"
   x="0px"
   y="0px"
   width="120px"
   height="120px"
   viewBox="0 0 120 120"
   style="enable-background:new 0 0 120 120;"
   xml:space="preserve"
   sodipodi:docname="omics-icon.svg"
   inkscape:version="1.1-dev (f9311a1, 2019-12-25)"><metadata
   id="metadata209"><rdf:RDF><cc:Work
       rdf:about=""><dc:format>image/svg+xml</dc:format><dc:type
         rdf:resource="http://purl.org/dc/dcmitype/StillImage" /><dc:title></dc:title></cc:Work></rdf:RDF></metadata><defs
   id="defs207" /><sodipodi:namedview
   pagecolor="#ffffff"
   bordercolor="#666666"
   inkscape:document-rotation="0"
   borderopacity="1"
   objecttolerance="10"
   gridtolerance="10"
   guidetolerance="10"
   inkscape:pageopacity="0"
   inkscape:pageshadow="2"
   inkscape:window-width="1535"
   inkscape:window-height="877"
   id="namedview205"
   showgrid="false"
   inkscape:zoom="3.3004712"
   inkscape:cx="-29.772511"
   inkscape:cy="129.72034"
   inkscape:window-x="12"
   inkscape:window-y="23"
   inkscape:window-maximized="0"
   inkscape:current-layer="Layer_1" />
<style
   type="text/css"
   id="style156">
	.st0{fill:none;stroke:#54C8E3;stroke-width:2;stroke-linecap:round;stroke-miterlimit:10;}
	.st1{fill:none;stroke:#54C8E3;stroke-width:1.172;stroke-miterlimit:10;}
	.st2{fill:none;stroke:#54C8E3;stroke-width:0.997;stroke-miterlimit:10;}
	.st3{fill:none;}
</style>




<rect
   class="st3"
   width="120"
   height="120"
   id="rect202" />
<g
   transform="matrix(0.8,0,0,0.8,-48.413016,27.602419)"
   id="g990"><g
     transform="translate(94.834944,3.3328574)"
     id="g5549"><path
       id="path982"
       d="m 25.9,29.2 c 9,1 12.3,-3.9 19.4,-6.3"
       class="st0"
       inkscape:connector-curvature="0" /><g
       id="g5542"><path
         inkscape:connector-curvature="0"
         class="st0"
         d="M 25.9,29.2 C 28.1,20.4 33.8,19 38.5,13.2"
         id="path984" /><path
         inkscape:connector-curvature="0"
         class="st0"
         d="M 25.9,29.2 C 23.7,38 18,39.4 13.3,45.2"
         id="path986" /><path
         inkscape:connector-curvature="0"
         class="st0"
         d="m 25.9,29.2 c -9,-1 -12.3,3.9 -19.4,6.3"
         id="path988" /></g></g></g><g
   transform="matrix(0.5,0,0,0.5,-1.0977936,-1.5962291)"
   id="g2260"><path
     id="path1596"
     d="m 109.61533,39.921304 c -19.299999,19.3 -43.499999,-4.8 -62.899999,14.5 -19.4,19.3 4.8,43.499999 -14.5,62.899996"
     class="st1"
     style="fill:none;stroke:#54c8e3;stroke-width:2;stroke-linecap:round;stroke-miterlimit:10"
     inkscape:connector-curvature="0" /><path
     id="path1598"
     d="m 15.21533,86.121304 c 19.300001,-19.4 43.500001,4.8 62.800001,-14.5 19.3,-19.3 -4.8,-43.6 14.5,-62.9000001"
     class="st1"
     style="fill:none;stroke:#54c8e3;stroke-width:2;stroke-linecap:round;stroke-miterlimit:10"
     inkscape:connector-curvature="0" /><line
     id="line1600"
     y2="73.221306"
     x2="75.015327"
     y1="55.021301"
     x1="56.815331"
     class="st1"
     style="fill:none;stroke:#54c8e3;stroke-width:2;stroke-linecap:round;stroke-miterlimit:10" /><line
     id="line1602"
     y2="68.521309"
     x2="80.715332"
     y1="51.721302"
     x1="64.015327"
     class="st1"
     style="fill:none;stroke:#54c8e3;stroke-width:2;stroke-linecap:round;stroke-miterlimit:10" /><line
     id="line1604"
     y2="61.721302"
     x2="84.415337"
     y1="51.721302"
     x1="74.415329"
     class="st1"
     style="fill:none;stroke:#54c8e3;stroke-width:2;stroke-linecap:round;stroke-miterlimit:10" /><line
     id="line1606"
     y2="22.521305"
     x2="85.415337"
     y1="37.021301"
     x1="100.01534"
     class="st1"
     style="fill:none;stroke:#54c8e3;stroke-width:2;stroke-linecap:round;stroke-miterlimit:10" /><line
     id="line1608"
     y2="32.321301"
     x2="85.115334"
     y1="41.021301"
     x1="93.815338"
     class="st1"
     style="fill:none;stroke:#54c8e3;stroke-width:2;stroke-linecap:round;stroke-miterlimit:10" /><line
     id="line1610"
     y2="14.921305"
     x2="88.015335"
     y1="26.621305"
     x1="99.815338"
     class="st1"
     style="fill:none;stroke:#54c8e3;stroke-width:2;stroke-linecap:round;stroke-miterlimit:10" /><line
     id="line1612"
     y2="76.521309"
     x2="67.915329"
     y1="60.021305"
     x1="51.315331"
     class="st1"
     style="fill:none;stroke:#54c8e3;stroke-width:2;stroke-linecap:round;stroke-miterlimit:10" /><line
     id="line1614"
     y2="79.42131"
     x2="60.215332"
     y1="66.721306"
     x1="47.515331"
     class="st1"
     style="fill:none;stroke:#54c8e3;stroke-width:2;stroke-linecap:round;stroke-miterlimit:10" /><line
     id="line1616"
     y2="78.721306"
     x2="49.11533"
     y1="74.221306"
     x1="44.615326"
     class="st1"
     style="fill:none;stroke:#54c8e3;stroke-width:2;stroke-linecap:round;stroke-miterlimit:10" /><line
     id="line1618"
     y2="103.22131"
     x2="39.715328"
     y1="88.621307"
     x1="25.115332"
     class="st1"
     style="fill:none;stroke:#54c8e3;stroke-width:2;stroke-linecap:round;stroke-miterlimit:10" /><line
     id="line1620"
     y2="93.321312"
     x2="40.015327"
     y1="84.721306"
     x1="31.315329"
     class="st1"
     style="fill:none;stroke:#54c8e3;stroke-width:2;stroke-linecap:round;stroke-miterlimit:10" /><line
     id="line1622"
     y2="110.82131"
     x2="37.115326"
     y1="99.021301"
     x1="25.415331"
     class="st1"
     style="fill:none;stroke:#54c8e3;stroke-width:2;stroke-linecap:round;stroke-miterlimit:10" /></g><g
   transform="matrix(0.5,0,0,0.5,124.37293,40.256829)"
   id="g4091"><path
     id="path3451"
     d="m -20.960136,142.21261 c 0,-13.2 -13.2,-13.2 -13.2,-13.2 h -65.7 c 0,0 -13.200004,0 -13.200004,-13.2 0,-13.2 13.200004,-13.1 13.200004,-13.1 h 65.8 c 0,0 13.2,0 13.2,-13.200003 0,-13.2 -13.2,-13.1 -13.2,-13.1 h -65.8 c 0,0 -13.200004,0 -13.200004,-13.2"
     class="st1"
     style="fill:none;stroke:#54c8e3;stroke-width:2;stroke-miterlimit:10"
     inkscape:connector-curvature="0" /><circle
     id="circle3453"
     r="7"
     cy="76.312607"
     cx="-41.960136"
     class="st2"
     style="fill:#fafafa;stroke:#54c8e3;stroke-width:2;stroke-miterlimit:10" /><circle
     id="circle3455"
     r="7"
     cy="76.312607"
     cx="-66.960136"
     class="st2"
     style="fill:#fafafa;stroke:#54c8e3;stroke-width:2;stroke-miterlimit:10" /><circle
     id="circle3457"
     r="7"
     cy="76.312607"
     cx="-91.960136"
     class="st2"
     style="fill:#fafafa;stroke:#54c8e3;stroke-width:2;stroke-miterlimit:10" /><circle
     id="circle3459"
     r="7"
     cy="102.71261"
     cx="-41.960136"
     class="st2"
     style="fill:#fafafa;stroke:#54c8e3;stroke-width:2;stroke-miterlimit:10" /><circle
     id="circle3461"
     r="7"
     cy="102.71261"
     cx="-66.960136"
     class="st2"
     style="fill:#fafafa;stroke:#54c8e3;stroke-width:2;stroke-miterlimit:10" /><circle
     id="circle3463"
     r="7"
     cy="102.71261"
     cx="-91.960136"
     class="st2"
     style="fill:#fafafa;stroke:#54c8e3;stroke-width:2;stroke-miterlimit:10" /><circle
     id="circle3465"
     r="7"
     cy="129.11261"
     cx="-41.960136"
     class="st2"
     style="fill:#fafafa;stroke:#54c8e3;stroke-width:2;stroke-miterlimit:10" /><circle
     id="circle3467"
     r="7"
     cy="129.11261"
     cx="-66.960136"
     class="st2"
     style="fill:#fafafa;stroke:#54c8e3;stroke-width:2;stroke-miterlimit:10" /><circle
     id="circle3469"
     r="7"
     cy="129.11261"
     cx="-91.960136"
     class="st2"
     style="fill:#fafafa;stroke:#54c8e3;stroke-width:2;stroke-miterlimit:10" /></g><g
   transform="matrix(0.5,0,0,0.5,0.55311202,62.768589)"
   id="g4176"><line
     class="st1"
     x1="24.200001"
     y1="29.700001"
     x2="24.200001"
     y2="42.299999"
     id="line4098" /><line
     class="st1"
     x1="14.2"
     y1="29.700001"
     x2="14.2"
     y2="42.299999"
     id="line4100" /><line
     class="st1"
     x1="28.5"
     y1="29.700001"
     x2="28.5"
     y2="42.299999"
     id="line4102" /><line
     class="st1"
     x1="41"
     y1="29.700001"
     x2="41"
     y2="42.299999"
     id="line4104" /><line
     class="st1"
     x1="36.799999"
     y1="29.700001"
     x2="36.799999"
     y2="42.299999"
     id="line4106" /><line
     class="st1"
     x1="32.700001"
     y1="29.700001"
     x2="32.700001"
     y2="42.299999"
     id="line4108" /><line
     class="st1"
     x1="45.200001"
     y1="29.700001"
     x2="45.200001"
     y2="42.299999"
     id="line4110" /><line
     class="st1"
     x1="75.199997"
     y1="29.700001"
     x2="75.199997"
     y2="42.299999"
     id="line4112" /><line
     class="st1"
     x1="85.800003"
     y1="29.700001"
     x2="85.800003"
     y2="42.299999"
     id="line4114" /><line
     class="st1"
     x1="95.800003"
     y1="29.700001"
     x2="95.800003"
     y2="42.299999"
     id="line4116" /><line
     class="st1"
     x1="105.8"
     y1="29.700001"
     x2="105.8"
     y2="42.299999"
     id="line4118" /><line
     class="st1"
     x1="55.200001"
     y1="29.700001"
     x2="55.200001"
     y2="42.299999"
     id="line4120" /><line
     class="st1"
     x1="65.199997"
     y1="29.700001"
     x2="65.199997"
     y2="42.299999"
     id="line4122" /><line
     class="st1"
     x1="95.800003"
     y1="53.700001"
     x2="95.800003"
     y2="66.300003"
     id="line4124" /><line
     class="st1"
     x1="105.8"
     y1="53.700001"
     x2="105.8"
     y2="66.300003"
     id="line4126" /><line
     class="st1"
     x1="91.599998"
     y1="53.700001"
     x2="91.599998"
     y2="66.300003"
     id="line4128" /><line
     class="st1"
     x1="87.300003"
     y1="53.700001"
     x2="87.300003"
     y2="66.300003"
     id="line4130" /><line
     class="st1"
     x1="78.900002"
     y1="53.700001"
     x2="78.900002"
     y2="66.300003"
     id="line4132" /><line
     class="st1"
     x1="83.199997"
     y1="53.700001"
     x2="83.199997"
     y2="66.300003"
     id="line4134" /><line
     class="st1"
     x1="74.800003"
     y1="53.700001"
     x2="74.800003"
     y2="66.300003"
     id="line4136" /><line
     class="st1"
     x1="44.799999"
     y1="53.700001"
     x2="44.799999"
     y2="66.300003"
     id="line4138" /><line
     class="st1"
     x1="34.200001"
     y1="53.700001"
     x2="34.200001"
     y2="66.300003"
     id="line4140" /><line
     class="st1"
     x1="24.200001"
     y1="53.700001"
     x2="24.200001"
     y2="66.300003"
     id="line4142" /><line
     class="st1"
     x1="44.799999"
     y1="77.699997"
     x2="44.799999"
     y2="90.300003"
     id="line4144" /><line
     class="st1"
     x1="34.200001"
     y1="77.699997"
     x2="34.200001"
     y2="90.300003"
     id="line4146" /><line
     class="st1"
     x1="24.200001"
     y1="77.699997"
     x2="24.200001"
     y2="90.300003"
     id="line4148" /><line
     class="st1"
     x1="14.2"
     y1="53.700001"
     x2="14.2"
     y2="66.300003"
     id="line4150" /><line
     class="st1"
     x1="64.800003"
     y1="53.700001"
     x2="64.800003"
     y2="66.300003"
     id="line4152" /><line
     class="st1"
     x1="54.799999"
     y1="53.700001"
     x2="54.799999"
     y2="66.300003"
     id="line4154" /><line
     class="st1"
     x1="105.8"
     y1="77.699997"
     x2="105.8"
     y2="90.300003"
     id="line4156" /><line
     class="st1"
     x1="95.800003"
     y1="77.699997"
     x2="95.800003"
     y2="90.300003"
     id="line4158" /><line
     class="st1"
     x1="85.800003"
     y1="77.699997"
     x2="85.800003"
     y2="90.300003"
     id="line4160" /><line
     class="st1"
     x1="75.800003"
     y1="77.699997"
     x2="75.800003"
     y2="90.300003"
     id="line4162" /><line
     class="st1"
     x1="71.599998"
     y1="77.699997"
     x2="71.599998"
     y2="90.300003"
     id="line4164" /><line
     class="st1"
     x1="67.300003"
     y1="77.699997"
     x2="67.300003"
     y2="90.300003"
     id="line4166" /><line
     class="st1"
     x1="59"
     y1="77.699997"
     x2="59"
     y2="90.300003"
     id="line4168" /><line
     class="st1"
     x1="63.200001"
     y1="77.699997"
     x2="63.200001"
     y2="90.300003"
     id="line4170" /><line
     class="st1"
     x1="54.799999"
     y1="77.699997"
     x2="54.799999"
     y2="90.300003"
     id="line4172" /><line
     class="st1"
     x1="14.2"
     y1="77.699997"
     x2="14.2"
     y2="90.300003"
     id="line4174" /></g><g
   transform="matrix(0.5,0,0,0.5,85.896826,-51.20481)"
   id="g5537"><g
     id="g4887"
     transform="translate(-41.130013,94.447564)"><circle
       r="18"
       cy="89.599998"
       cx="35.299999"
       class="st1"
       id="XMLID_9_" /></g><g
     id="g4907"
     transform="translate(-41.130013,94.447564)"><circle
       id="circle4889"
       r="9.1999998"
       cy="89.599998"
       cx="35.299999"
       class="st2" /><circle
       id="circle4891"
       r="9.1999998"
       cy="73.5"
       cx="63.5"
       class="st2" /><line
       id="line4893"
       y2="64.300003"
       x2="63.5"
       y1="50.5"
       x1="63.5"
       class="st2" /><line
       id="line4895"
       y2="77.800003"
       x2="54.900002"
       y1="84.400002"
       x1="43.400002"
       class="st2" /><circle
       id="circle4897"
       r="9.1999998"
       cy="25.299999"
       cx="35.299999"
       class="st2" /><circle
       id="circle4899"
       r="9.1999998"
       cy="25.299999"
       cx="91.599998"
       class="st2" /><circle
       id="circle4901"
       r="9.1999998"
       cy="41.400002"
       cx="63.5"
       class="st2" /><line
       id="line4903"
       y2="36.900002"
       x2="71.900002"
       y1="30.1"
       x1="83.699997"
       class="st2" /><line
       id="line4905"
       y2="37.099998"
       x2="54.900002"
       y1="30.299999"
       x1="43"
       class="st2" /></g></g></svg>
