<?xml version="1.0" encoding="utf-8"?>
<!-- Generator: Adobe Illustrator 19.0.0, SVG Export Plug-In . SVG Version: 6.00 Build 0)  -->
<svg version="1.1" id="Layer_1" xmlns="http://www.w3.org/2000/svg" xmlns:xlink="http://www.w3.org/1999/xlink" x="0px" y="0px"
	 width="22px" height="22px" viewBox="0 0 22 22" style="enable-background:new 0 0 22 22;" xml:space="preserve">
<style type="text/css">
	.st0{fill:#253A47;}
</style>
<g>
	<path id="XMLID_16_" class="st0" d="M11,3c4.4,0,8,3.6,8,8c0,4.4-3.6,8-8,8s-8-3.6-8-8C3,6.6,6.6,3,11,3 M11,1C5.5,1,1,5.5,1,11
		s4.5,10,10,10s10-4.5,10-10S16.5,1,11,1L11,1z"/>
</g>
<g>
	<path id="XMLID_12_" class="st0" d="M11,8.5c1.4,0,2.5,1.1,2.5,2.5s-1.1,2.5-2.5,2.5S8.5,12.4,8.5,11S9.6,8.5,11,8.5 M11,6.5
		c-2.5,0-4.5,2-4.5,4.5s2,4.5,4.5,4.5s4.5-2,4.5-4.5S13.5,6.5,11,6.5L11,6.5z"/>
</g>
</svg>
