<?xml version="1.0" encoding="UTF-8" standalone="no"?>
<!-- Created with Inkscape (http://www.inkscape.org/) -->

<svg
   xmlns:dc="http://purl.org/dc/elements/1.1/"
   xmlns:cc="http://creativecommons.org/ns#"
   xmlns:rdf="http://www.w3.org/1999/02/22-rdf-syntax-ns#"
   xmlns:svg="http://www.w3.org/2000/svg"
   xmlns="http://www.w3.org/2000/svg"
   xmlns:sodipodi="http://sodipodi.sourceforge.net/DTD/sodipodi-0.dtd"
   xmlns:inkscape="http://www.inkscape.org/namespaces/inkscape"
   width="50"
   height="50"
   id="svg4006"
   version="1.1"
   inkscape:version="0.92.3 (2405546, 2018-03-11)"
   sodipodi:docname="readthedocs copy.svg">
  <defs
     id="defs4008" />
  <sodipodi:namedview
     id="base"
     pagecolor="#ffffff"
     bordercolor="#666666"
     borderopacity="1.0"
     inkscape:pageopacity="0.0"
     inkscape:pageshadow="2"
     inkscape:zoom="3.959798"
     inkscape:cx="108.27561"
     inkscape:cy="50.982231"
     inkscape:document-units="px"
     inkscape:current-layer="g3857"
     showgrid="false"
     fit-margin-top="20"
     fit-margin-left="20"
     fit-margin-right="20"
     fit-margin-bottom="20"
     showguides="true"
     inkscape:guide-bbox="true"
     inkscape:window-width="1366"
     inkscape:window-height="705"
     inkscape:window-x="-8"
     inkscape:window-y="-8"
     inkscape:window-maximized="1" />
  <metadata
     id="metadata4011">
    <rdf:RDF>
      <cc:Work
         rdf:about="">
        <dc:format>image/svg+xml</dc:format>
        <dc:type
           rdf:resource="http://purl.org/dc/dcmitype/StillImage" />
        <dc:title></dc:title>
      </cc:Work>
    </rdf:RDF>
  </metadata>
  <g
     inkscape:label="Layer 1"
     inkscape:groupmode="layer"
     id="layer1"
     transform="translate(-382.79819,-577.98851)">
    <g
       transform="matrix(0.95778934,0,0,0.74283922,469.32531,633.08369)"
       id="g3857"
       style="fill:#54c8e3;fill-opacity:1">
      <path
         id="path3929-8"
         style="color:#000000;font-style:normal;font-variant:normal;font-weight:normal;font-stretch:normal;font-size:medium;line-height:normal;font-family:Sans;-inkscape-font-specification:Sans;text-indent:0;text-align:start;text-decoration:none;text-decoration-line:none;letter-spacing:normal;word-spacing:normal;text-transform:none;writing-mode:lr-tb;direction:ltr;baseline-shift:baseline;text-anchor:start;display:inline;overflow:visible;visibility:visible;fill:#54c8e3;fill-opacity:1;stroke:none;stroke-width:1.8079536;marker:none;enable-background:accumulate"
         d="m -65.805289,-41.058275 a 0.90406713,0.90406708 0 0 0 -0.1225,1.7675 c 0,0 2.201749,0.728588 5.95,1.0325 3.009825,0.24404 6.4225,-0.21 6.4225,-0.21 a 0.90406713,0.90406708 0 1 0 -0.2275,-1.785 c 0,0 -3.338499,0.412757 -6.055,0.1925 -3.577376,-0.290058 -5.53,-0.945 -5.53,-0.945 a 0.90406713,0.90406708 0 0 0 -0.4375,-0.0525 z m 0,-4.479999 a 0.90406713,0.90406708 0 0 0 -0.1225,1.7675 c 0,0 2.201749,0.728587 5.95,1.0325 3.009825,0.24404 6.4225,-0.21 6.4225,-0.21 a 0.90406713,0.90406708 0 1 0 -0.2275,-1.785 c 0,0 -3.338499,0.412756 -6.055,0.1925 -3.577376,-0.290059 -5.53,-0.945 -5.53,-0.945 a 0.90406713,0.90406708 0 0 0 -0.4375,-0.0525 z m 0,-4.48 a 0.90406713,0.90406708 0 0 0 -0.1225,1.7675 c 0,0 2.201749,0.728587 5.95,1.0325 3.009825,0.24404 6.4225,-0.21 6.4225,-0.21 a 0.90406713,0.90406708 0 1 0 -0.2275,-1.785 c 0,0 -3.338499,0.412757 -6.055,0.1925 -3.577376,-0.290059 -5.53,-0.945 -5.53,-0.945 a 0.90406713,0.90406708 0 0 0 -0.4375,-0.0525 z m 0,-4.48 a 0.90406713,0.90406708 0 0 0 -0.1225,1.7675 c 0,0 2.201749,0.728587 5.95,1.0325 3.009825,0.24404 6.4225,-0.21 6.4225,-0.21 a 0.90406713,0.90406708 0 1 0 -0.2275,-1.785 c 0,0 -3.338499,0.412757 -6.055,0.1925 -3.577376,-0.290058 -5.53,-0.945 -5.53,-0.945 a 0.90406713,0.90406708 0 0 0 -0.4375,-0.0525 z m -6.276419,-4.724723 c -4.708045,0.03139 -6.462079,1.481232 -6.462079,1.481232 v 35.158914 c 0,0 1.712805,-1.47925 7.227111,-1.253351 5.514304,0.2259 6.651822,2.158955 13.428752,2.295096 6.776929,0.136141 8.48046,-1.041745 8.48046,-1.041745 l 0.09766,-35.84256 c 0,0 -3.049835,0.86318 -8.985055,0.911528 -5.935221,0.04835 -7.361802,-1.50984 -12.810216,-1.692836 -0.340526,-0.01144 -0.662767,-0.01837 -0.976636,-0.01628 z m 3.9391,2.295096 c 0,0 2.852851,0.943051 8.12236,1.204518 4.453691,0.220987 8.919947,-0.439486 8.919947,-0.439486 v 31.854627 c 0,0 -2.260532,1.184878 -7.910756,0.781308 -4.378825,-0.312759 -9.19666,-1.969549 -9.19666,-1.969549 z m -2.750859,0.830141 a 0.91152753,0.91152756 0 0 1 0,1.823055 c 0,0 -1.475592,0.0076 -2.376483,0.09766 -1.512574,0.151257 -2.539254,0.699922 -2.539254,0.699922 a 0.91010953,0.91010948 0 1 1 -0.846419,-1.61145 c 0,0 1.339299,-0.708518 3.206623,-0.895251 1.079009,-0.107911 2.555533,-0.11394 2.555533,-0.11394 z m -0.878973,4.492528 c 0.503874,-0.01276 0.878973,0 0.878973,0 a 0.91000001,0.90999996 0 0 1 0,1.806777 c 0,0 -1.475592,0.0076 -2.376483,0.09766 -1.512574,0.151258 -2.539254,0.699922 -2.539254,0.699922 a 0.91010953,0.91010948 0 0 1 -0.846419,-1.61145 c 0,0 1.339299,-0.708518 3.206623,-0.895249 0.539505,-0.05395 1.172686,-0.0849 1.67656,-0.09766 z m 0.878973,4.476251 a 0.91152745,0.9115274 0 0 1 0,1.823054 c 0,0 -1.475592,-0.0087 -2.376483,0.08139 -1.512574,0.151258 -2.539254,0.699923 -2.539254,0.699923 a 0.91010937,0.9101094 0 0 1 -0.846419,-1.61145 c 0,0 1.339299,-0.708517 3.206623,-0.895249 1.079009,-0.107912 2.555533,-0.09766 2.555533,-0.09766 z"
         inkscape:connector-curvature="0" />
      <path
         style="fill:none;fill-opacity:1;stroke-width:0.92208964"
         id="path4536"
         sodipodi:type="arc"
         sodipodi:cx="-66.21064"
         sodipodi:cy="-44.276794"
         sodipodi:rx="15.987397"
         sodipodi:ry="17.806221"
         sodipodi:start="0"
         sodipodi:end="0.91417137"
         d="m -50.223243,-44.276794 a 15.987397,17.806221 0 0 1 -6.227937,14.103542 l -9.75946,-14.103542 z" />
    </g>
  </g>
</svg>
