<?xml version="1.0" encoding="UTF-8" standalone="no"?>
<!-- Generator: Adobe Illustrator 19.0.0, SVG Export Plug-In . SVG Version: 6.00 Build 0)  -->

<svg
   xmlns:dc="http://purl.org/dc/elements/1.1/"
   xmlns:cc="http://creativecommons.org/ns#"
   xmlns:rdf="http://www.w3.org/1999/02/22-rdf-syntax-ns#"
   xmlns:svg="http://www.w3.org/2000/svg"
   xmlns="http://www.w3.org/2000/svg"
   xmlns:sodipodi="http://sodipodi.sourceforge.net/DTD/sodipodi-0.dtd"
   xmlns:inkscape="http://www.inkscape.org/namespaces/inkscape"
   version="1.1"
   id="Layer_1"
   x="0px"
   y="0px"
   width="50"
   height="50"
   viewBox="0 0 50 50"
   xml:space="preserve"
   sodipodi:docname="site-logo-copy-hover.svg"
   inkscape:version="0.92.3 (2405546, 2018-03-11)"><metadata
   id="metadata29"><rdf:RDF><cc:Work
       rdf:about=""><dc:format>image/svg+xml</dc:format><dc:type
         rdf:resource="http://purl.org/dc/dcmitype/StillImage" /><dc:title></dc:title></cc:Work></rdf:RDF></metadata><defs
   id="defs27" /><sodipodi:namedview
   pagecolor="#ffffff"
   bordercolor="#666666"
   borderopacity="1"
   objecttolerance="10"
   gridtolerance="10"
   guidetolerance="10"
   inkscape:pageopacity="0"
   inkscape:pageshadow="2"
   inkscape:window-width="1366"
   inkscape:window-height="705"
   id="namedview25"
   showgrid="false"
   inkscape:zoom="6.8655838"
   inkscape:cx="65.415666"
   inkscape:cy="41.148289"
   inkscape:window-x="-8"
   inkscape:window-y="-8"
   inkscape:window-maximized="1"
   inkscape:current-layer="g22" />
<style
   type="text/css"
   id="style2">
	.st0{fill:#253A47;}
	.st1{fill:#54C8E3;}
</style>







<g
   id="g22"
   transform="matrix(0.42708395,0,0,0.42708395,-40.986853,11.107411)">
	<path
   class="st1"
   d="m 168.91523,14.523967 c -0.96555,0 -2.05179,0 -3.01735,0.120693 v 0 c -9.77619,0.482776 -18.58684,5.793303 -23.89737,13.638402 h 2.89665 c 7.00024,-7.724405 15.08672,-8.931343 21.00072,-8.327874 v 0 c 10.01759,0.844857 16.41437,6.879548 16.41437,14.121177 0,6.63816 -5.55192,12.310769 -13.8798,13.879789 v 2.655263 c 0.1207,0 0.36209,0 0.48278,0 14.00048,0 25.3457,-8.086485 25.3457,-17.983378 0,-10.017587 -11.34522,-18.104072 -25.3457,-18.104072 z"
   id="path18"
   inkscape:connector-curvature="0"
   style="fill:#ffffff;fill-opacity:1" />
	<path
   class="st1"
   d="m 161.6736,36.852322 c -7.00024,7.724405 -15.08672,8.931343 -21.00072,8.327874 v 0 c -10.01759,-0.844857 -16.41437,-6.879548 -16.41437,-14.121177 0,-6.63816 5.55192,-12.310769 13.8798,-13.879789 v -2.655263 c -0.1207,0 -0.36209,0 -0.48278,0 -14.00048,0 -25.3457,8.086485 -25.3457,17.983378 0,10.017587 11.34522,17.983379 25.3457,17.983379 0.96555,0 2.05179,0 3.01735,-0.120694 v 0 c 9.77619,-0.482775 18.58684,-5.793303 23.89737,-13.638401 h -2.89665 z"
   id="path20"
   inkscape:connector-curvature="0"
   style="fill:#ffffff;fill-opacity:1" />
</g>
</svg>