<?xml version="1.0" encoding="UTF-8" standalone="no"?>
<!-- Generator: Adobe Illustrator 19.0.0, SVG Export Plug-In . SVG Version: 6.00 Build 0)  -->

<svg
   xmlns:dc="http://purl.org/dc/elements/1.1/"
   xmlns:cc="http://creativecommons.org/ns#"
   xmlns:rdf="http://www.w3.org/1999/02/22-rdf-syntax-ns#"
   xmlns:svg="http://www.w3.org/2000/svg"
   xmlns="http://www.w3.org/2000/svg"
   xmlns:sodipodi="http://sodipodi.sourceforge.net/DTD/sodipodi-0.dtd"
   xmlns:inkscape="http://www.inkscape.org/namespaces/inkscape"
   version="1.1"
   id="Layer_1"
   x="0px"
   y="0px"
   width="50"
   height="50"
   viewBox="0 0 50 50"
   xml:space="preserve"
   sodipodi:docname="site-logo-copy.svg"
   inkscape:version="0.92.3 (2405546, 2018-03-11)"><metadata
   id="metadata29"><rdf:RDF><cc:Work
       rdf:about=""><dc:format>image/svg+xml</dc:format><dc:type
         rdf:resource="http://purl.org/dc/dcmitype/StillImage" /><dc:title></dc:title></cc:Work></rdf:RDF></metadata><defs
   id="defs27" /><sodipodi:namedview
   pagecolor="#ffffff"
   bordercolor="#666666"
   borderopacity="1"
   objecttolerance="10"
   gridtolerance="10"
   guidetolerance="10"
   inkscape:pageopacity="0"
   inkscape:pageshadow="2"
   inkscape:window-width="1366"
   inkscape:window-height="705"
   id="namedview25"
   showgrid="false"
   inkscape:zoom="4.8547008"
   inkscape:cx="75.059015"
   inkscape:cy="45.598533"
   inkscape:window-x="-8"
   inkscape:window-y="-8"
   inkscape:window-maximized="1"
   inkscape:current-layer="g22" />
<style
   type="text/css"
   id="style2">
	.st0{fill:#253A47;}
	.st1{fill:#54C8E3;}
</style>







<g
   id="g22"
   transform="matrix(0.42708395,0,0,0.42708395,-40.986853,11.107411)">
	<path
   class="st1"
   d="m 166.23538,16.170769 c -0.8,0 -1.7,0 -2.5,0.1 v 0 c -8.1,0.4 -15.4,4.8 -19.8,11.3 h 2.4 c 5.8,-6.4 12.5,-7.4 17.4,-6.9 v 0 c 8.3,0.7 13.6,5.7 13.6,11.7 0,5.5 -4.6,10.2 -11.5,11.5 v 2.2 c 0.1,0 0.3,0 0.4,0 11.6,0 21,-6.7 21,-14.9 0,-8.3 -9.4,-15 -21,-15 z"
   id="path18"
   inkscape:connector-curvature="0"
   style="fill:#54c8e3" />
	<path
   class="st1"
   d="m 160.23538,34.670769 c -5.8,6.4 -12.5,7.4 -17.4,6.9 v 0 c -8.3,-0.7 -13.6,-5.7 -13.6,-11.7 0,-5.5 4.6,-10.2 11.5,-11.5 v -2.2 c -0.1,0 -0.3,0 -0.4,0 -11.6,0 -21,6.7 -21,14.9 0,8.3 9.4,14.9 21,14.9 0.8,0 1.7,0 2.5,-0.1 v 0 c 8.1,-0.4 15.4,-4.8 19.8,-11.3 h -2.4 z"
   id="path20"
   inkscape:connector-curvature="0"
   style="fill:#54c8e3" />
</g>
</svg>