<?xml version="1.0" encoding="utf-8"?>
<!-- Generator: Adobe Illustrator 19.0.0, SVG Export Plug-In . SVG Version: 6.00 Build 0)  -->
<svg version="1.1" id="Layer_1" xmlns="http://www.w3.org/2000/svg" xmlns:xlink="http://www.w3.org/1999/xlink" x="0px" y="0px"
	 width="105px" height="105px" viewBox="0 0 105 105" style="enable-background:new 0 0 105 105;" xml:space="preserve">
<style type="text/css">
	.st0{fill:#54C8E3;}
	.st1{opacity:0.7;fill:#FFFFFF;}
</style>
<path class="st0" d="M52.5,7.5c24.8,0,45,20.2,45,45s-20.2,45-45,45s-45-20.2-45-45S27.7,7.5,52.5,7.5 M52.5,2.5
	c-27.6,0-50,22.4-50,50c0,27.6,22.4,50,50,50s50-22.4,50-50C102.5,24.9,80.1,2.5,52.5,2.5L52.5,2.5z"/>
<path class="st1" d="M87.9,17.1l-3.5,3.5c17.5,17.5,17.5,46.1,0,63.6c-17.5,17.5-46.1,17.5-63.6,0l-3.5,3.5
	c19.5,19.5,51.2,19.5,70.7,0C107.4,68.3,107.4,36.7,87.9,17.1z"/>
</svg>
