<?xml version="1.0" encoding="utf-8"?>
<!-- Generator: Adobe Illustrator 19.0.0, SVG Export Plug-In . SVG Version: 6.00 Build 0)  -->
<svg version="1.1" id="Layer_1" xmlns="http://www.w3.org/2000/svg" xmlns:xlink="http://www.w3.org/1999/xlink" x="0px" y="0px"
	 width="120px" height="120px" viewBox="0 0 120 120" style="enable-background:new 0 0 120 120;" xml:space="preserve">
<style type="text/css">
	.st0{fill:none;stroke:#54C8E3;stroke-width:2;stroke-linecap:round;stroke-miterlimit:10;}
	.st1{fill:none;stroke:#54C8E3;stroke-width:1.172;stroke-miterlimit:10;}
	.st2{fill:none;stroke:#54C8E3;stroke-width:0.997;stroke-miterlimit:10;}
	.st3{fill:none;}
</style>
<g>
	<path class="st0" d="M85.8,91.5c-11.8-5.3-18.4-0.1-29.2,0"/>
	<path class="st0" d="M85.8,91.5c-6.9,11-15.3,10.3-24.3,16.2"/>
	<path class="st0" d="M85.8,91.5c6.9-11,15.3-10.3,24.3-16.2"/>
	<path class="st0" d="M85.8,91.5c11.8,5.3,18.4,0.1,29.2,0"/>
</g>
<g>
	<g id="XMLID_38_">
		<path id="XMLID_42_" class="st1" d="M40.5,76.9c9-4.6,9.1-11.1,14.3-17.7"/>
		<path id="XMLID_41_" class="st1" d="M40.5,76.9c-3.3-9.6,1.2-14.3,2.1-22.7"/>
		<path id="XMLID_40_" class="st1" d="M40.5,76.9c3.3,9.6-1.2,14.3-2.1,22.7"/>
		<path id="XMLID_39_" class="st1" d="M40.5,76.9c-9,4.6-9.1,11.1-14.3,17.7"/>
	</g>
	<g id="XMLID_33_">
		<path id="XMLID_37_" class="st0" d="M40.5,76.9c9-4.6,9.1-11.1,14.3-17.7"/>
		<path id="XMLID_36_" class="st0" d="M40.5,76.9c-3.3-9.6,1.2-14.3,2.1-22.7"/>
		<path id="XMLID_35_" class="st0" d="M40.5,76.9c3.3,9.6-1.2,14.3-2.1,22.7"/>
		<path id="XMLID_34_" class="st0" d="M40.5,76.9c-9,4.6-9.1,11.1-14.3,17.7"/>
	</g>
</g>
<g>
	<g id="XMLID_27_">
		<path id="XMLID_31_" class="st2" d="M70.2,44.1c1.5,8.5,6.8,10.2,10.8,16.1"/>
		<path id="XMLID_30_" class="st2" d="M70.2,44.1c8.6-0.2,11.3,4.6,17.9,7.4"/>
		<path id="XMLID_29_" class="st2" d="M70.2,44.1c-8.6,0.2-11.3-4.6-17.9-7.4"/>
		<path id="XMLID_28_" class="st2" d="M70.2,44.1c-1.5-8.5-6.8-10.2-10.8-16.1"/>
	</g>
	<g id="XMLID_22_">
		<path id="XMLID_26_" class="st0" d="M70.2,44.1c1.5,8.5,6.8,10.2,10.8,16.1"/>
		<path id="XMLID_25_" class="st0" d="M70.2,44.1c8.6-0.2,11.3,4.6,17.9,7.4"/>
		<path id="XMLID_24_" class="st0" d="M70.2,44.1c-8.6,0.2-11.3-4.6-17.9-7.4"/>
		<path id="XMLID_23_" class="st0" d="M70.2,44.1c-1.5-8.5-6.8-10.2-10.8-16.1"/>
	</g>
</g>
<g>
	<path class="st0" d="M25.9,29.2c9,1,12.3-3.9,19.4-6.3"/>
	<path class="st0" d="M25.9,29.2c2.2-8.8,7.9-10.2,12.6-16"/>
	<path class="st0" d="M25.9,29.2c-2.2,8.8-7.9,10.2-12.6,16"/>
	<path class="st0" d="M25.9,29.2c-9-1-12.3,3.9-19.4,6.3"/>
</g>
<rect class="st3" width="120" height="120"/>
</svg>
