<?xml version="1.0" encoding="UTF-8" standalone="no"?>
<!-- Created with Inkscape (http://www.inkscape.org/) -->

<svg
   xmlns:dc="http://purl.org/dc/elements/1.1/"
   xmlns:cc="http://creativecommons.org/ns#"
   xmlns:rdf="http://www.w3.org/1999/02/22-rdf-syntax-ns#"
   xmlns:svg="http://www.w3.org/2000/svg"
   xmlns="http://www.w3.org/2000/svg"
   xmlns:sodipodi="http://sodipodi.sourceforge.net/DTD/sodipodi-0.dtd"
   xmlns:inkscape="http://www.inkscape.org/namespaces/inkscape"
   width="50"
   height="50"
   id="svg4006"
   version="1.1"
   inkscape:version="0.92.3 (2405546, 2018-03-11)"
   sodipodi:docname="readthedocs copy - Copy.svg">
  <defs
     id="defs4008" />
  <sodipodi:namedview
     id="base"
     pagecolor="#ffffff"
     bordercolor="#666666"
     borderopacity="1.0"
     inkscape:pageopacity="0.0"
     inkscape:pageshadow="2"
     inkscape:zoom="7.919596"
     inkscape:cx="52.548253"
     inkscape:cy="27.574276"
     inkscape:document-units="px"
     inkscape:current-layer="g3857"
     showgrid="false"
     fit-margin-top="20"
     fit-margin-left="20"
     fit-margin-right="20"
     fit-margin-bottom="20"
     showguides="true"
     inkscape:guide-bbox="true"
     inkscape:window-width="1366"
     inkscape:window-height="705"
     inkscape:window-x="-8"
     inkscape:window-y="-8"
     inkscape:window-maximized="1" />
  <metadata
     id="metadata4011">
    <rdf:RDF>
      <cc:Work
         rdf:about="">
        <dc:format>image/svg+xml</dc:format>
        <dc:type
           rdf:resource="http://purl.org/dc/dcmitype/StillImage" />
        <dc:title />
      </cc:Work>
    </rdf:RDF>
  </metadata>
  <g
     inkscape:label="Layer 1"
     inkscape:groupmode="layer"
     id="layer1"
     transform="translate(-382.79819,-577.98851)">
    <g
       transform="matrix(0.95778934,0,0,0.74283922,469.32531,633.08369)"
       id="g3857"
       style="fill:#54c8e3;fill-opacity:1">
      <path
         id="path3929-8"
         style="fill:#ffffff;fill-opacity:1"
         d="m -65.805289,-41.058275 a 0.90406713,0.90406708 0 0 0 -0.1225,1.7675 c 0,0 2.201749,0.728588 5.95,1.0325 3.009825,0.24404 6.4225,-0.21 6.4225,-0.21 a 0.90406713,0.90406708 0 1 0 -0.2275,-1.785 c 0,0 -3.338499,0.412757 -6.055,0.1925 -3.577376,-0.290058 -5.53,-0.945 -5.53,-0.945 a 0.90406713,0.90406708 0 0 0 -0.4375,-0.0525 z m 0,-4.479999 a 0.90406713,0.90406708 0 0 0 -0.1225,1.7675 c 0,0 2.201749,0.728587 5.95,1.0325 3.009825,0.24404 6.4225,-0.21 6.4225,-0.21 a 0.90406713,0.90406708 0 1 0 -0.2275,-1.785 c 0,0 -3.338499,0.412756 -6.055,0.1925 -3.577376,-0.290059 -5.53,-0.945 -5.53,-0.945 a 0.90406713,0.90406708 0 0 0 -0.4375,-0.0525 z m 0,-4.48 a 0.90406713,0.90406708 0 0 0 -0.1225,1.7675 c 0,0 2.201749,0.728587 5.95,1.0325 3.009825,0.24404 6.4225,-0.21 6.4225,-0.21 a 0.90406713,0.90406708 0 1 0 -0.2275,-1.785 c 0,0 -3.338499,0.412757 -6.055,0.1925 -3.577376,-0.290059 -5.53,-0.945 -5.53,-0.945 a 0.90406713,0.90406708 0 0 0 -0.4375,-0.0525 z m 0,-4.48 a 0.90406713,0.90406708 0 0 0 -0.1225,1.7675 c 0,0 2.201749,0.728587 5.95,1.0325 3.009825,0.24404 6.4225,-0.21 6.4225,-0.21 a 0.90406713,0.90406708 0 1 0 -0.2275,-1.785 c 0,0 -3.338499,0.412757 -6.055,0.1925 -3.577376,-0.290058 -5.53,-0.945 -5.53,-0.945 a 0.90406713,0.90406708 0 0 0 -0.4375,-0.0525 z m -6.276419,-4.724723 c -4.708045,0.03139 -6.462079,1.481232 -6.462079,1.481232 v 35.158914 c 0,0 1.712805,-1.47925 7.227111,-1.253351 5.514304,0.2259 6.651822,2.158955 13.428752,2.295096 6.776929,0.136141 8.48046,-1.041745 8.48046,-1.041745 l 0.09766,-35.84256 c 0,0 -3.049835,0.86318 -8.985055,0.911528 -5.935221,0.04835 -7.361802,-1.50984 -12.810216,-1.692836 -0.340526,-0.01144 -0.662767,-0.01837 -0.976636,-0.01628 z m 3.9391,2.295096 c 0,0 2.852851,0.943051 8.12236,1.204518 4.453691,0.220987 8.919947,-0.439486 8.919947,-0.439486 v 31.854627 c 0,0 -2.260532,1.184878 -7.910756,0.781308 -4.378825,-0.312759 -9.19666,-1.969549 -9.19666,-1.969549 z m -2.750859,0.830141 a 0.91152753,0.91152756 0 0 1 0,1.823055 c 0,0 -1.475592,0.0076 -2.376483,0.09766 -1.512574,0.151257 -2.539254,0.699922 -2.539254,0.699922 a 0.91010953,0.91010948 0 1 1 -0.846419,-1.61145 c 0,0 1.339299,-0.708518 3.206623,-0.895251 1.079009,-0.107911 2.555533,-0.11394 2.555533,-0.11394 z m -0.878973,4.492528 c 0.503874,-0.01276 0.878973,0 0.878973,0 a 0.91000001,0.90999996 0 0 1 0,1.806777 c 0,0 -1.475592,0.0076 -2.376483,0.09766 -1.512574,0.151258 -2.539254,0.699922 -2.539254,0.699922 a 0.91010953,0.91010948 0 0 1 -0.846419,-1.61145 c 0,0 1.339299,-0.708518 3.206623,-0.895249 0.539505,-0.05395 1.172686,-0.0849 1.67656,-0.09766 z m 0.878973,4.476251 a 0.91152745,0.9115274 0 0 1 0,1.823054 c 0,0 -1.475592,-0.0087 -2.376483,0.08139 -1.512574,0.151258 -2.539254,0.699923 -2.539254,0.699923 a 0.91010937,0.9101094 0 0 1 -0.846419,-1.61145 c 0,0 1.339299,-0.708517 3.206623,-0.895249 1.079009,-0.107912 2.555533,-0.09766 2.555533,-0.09766 z"
         inkscape:connector-curvature="0" />
      <path
         style="fill:none;fill-opacity:1;stroke-width:0.92208964"
         id="path4536"
         sodipodi:type="arc"
         sodipodi:cx="-66.21064"
         sodipodi:cy="-44.276794"
         sodipodi:rx="15.987397"
         sodipodi:ry="17.806221"
         sodipodi:start="0"
         sodipodi:end="0.91417137"
         d="m -50.223243,-44.276794 a 15.987397,17.806221 0 0 1 -6.227937,14.103542 l -9.75946,-14.103542 z" />
      <path
         style="fill:#ffffff;fill-opacity:1"
         d="m 27.715945,38.811546 c -0.416688,-0.06279 -2.12132,-0.384226 -3.788072,-0.714294 -1.666752,-0.330067 -3.939595,-0.674655 -5.050763,-0.765751 -2.085718,-0.170993 -6.16062,0.207968 -6.985984,0.64969 -0.453817,0.242876 -0.466404,-0.15741 -0.403034,-12.817176 l 0.06541,-13.067881 1.136422,-0.362561 c 1.800143,-0.574312 7.861864,-0.52974 11.111678,0.0817 2.889698,0.54369 9.058456,0.687886 13.197378,0.30849 l 2.211966,-0.202761 -0.06539,13.190338 -0.0654,13.190337 -0.757614,0.228082 c -0.812716,0.244669 -9.348186,0.471428 -10.606602,0.281782 z m 9.407046,-1.487288 0.56821,-0.18163 V 25.156454 13.170281 l -0.820749,0.186199 c -1.454634,0.330006 -10.765753,0.178235 -13.195117,-0.215079 -1.250064,-0.202385 -2.314932,-0.331735 -2.366374,-0.287443 -0.05144,0.04429 -0.153404,5.304446 -0.226581,11.689232 l -0.13305,11.608703 1.016292,0.273658 c 3.393833,0.913865 6.568522,1.26736 10.548548,1.174555 2.222335,-0.05182 4.296305,-0.175949 4.608821,-0.275848 z M 15.215307,21.763744 c 0.486136,-0.114138 1.508916,-0.211975 2.272844,-0.217416 1.600526,-0.0114 2.108427,-0.246891 1.976242,-0.916302 -0.185466,-0.939236 -6.486927,-0.451967 -6.864039,0.530771 -0.214387,0.558684 0.548537,1.190014 1.18947,0.984302 0.29788,-0.09561 0.939348,-0.267216 1.425483,-0.381355 z m 1.699782,-3.410585 c 2.119397,-0.157852 2.787394,-0.484792 2.503276,-1.22519 -0.29993,-0.781606 -5.734807,-0.329425 -6.614563,0.550331 -0.619687,0.619686 0.01583,1.168923 1.134776,0.980709 0.493857,-0.08307 1.833287,-0.220703 2.976511,-0.30585 z m -0.05828,-3.337834 c 2.143903,-0.178209 2.651651,-0.355724 2.651651,-0.927048 0,-0.697001 -0.862814,-0.862446 -3.223851,-0.618176 -2.557372,0.264583 -3.594679,0.626442 -3.594679,1.253986 0,0.662622 0.309065,0.817162 1.262691,0.631374 0.486136,-0.09471 1.793021,-0.247771 2.904188,-0.340136 z"
         id="path823"
         inkscape:connector-curvature="0"
         transform="matrix(1.0440709,0,0,1.3461863,-90.34045,-74.168378)" />
      <path
         style="fill:#ffffff;fill-opacity:1;stroke-width:0.04464286"
         d="m 21.049402,36.1669 c -0.09604,-0.0251 -0.09493,0.547254 -0.01243,-6.397798 0.106807,-8.991084 0.160924,-12.961023 0.178612,-13.102679 0.0092,-0.07366 0.0082,2.02567 -0.0022,4.665179 -0.01039,2.639509 -0.0189,7.064174 -0.01891,9.832589 -1.2e-5,2.768415 -0.01509,5.031152 -0.03351,5.028304 -0.01842,-0.0028 -0.06864,-0.01437 -0.111607,-0.0256 z"
         id="path825"
         inkscape:connector-curvature="0"
         transform="matrix(1.0440709,0,0,1.3461863,-90.34045,-74.168378)" />
    </g>
  </g>
</svg>
