<?xml version="1.0" encoding="utf-8"?>
<!-- Generator: Adobe Illustrator 19.0.0, SVG Export Plug-In . SVG Version: 6.00 Build 0)  -->
<svg version="1.1" id="Layer_1" xmlns="http://www.w3.org/2000/svg" xmlns:xlink="http://www.w3.org/1999/xlink" x="0px" y="0px"
	 width="234px" height="50px" viewBox="0 0 234 50" style="enable-background:new 0 0 234 50;" xml:space="preserve">
<style type="text/css">
	.st0{fill:#253A47;}
	.st1{fill:#54C8E3;}
</style>
<path class="st0" d="M37.3,15.7h8.8v30.6h-8.8V15.7z"/>
<path class="st0" d="M31.6,25.4c-0.8-1.9-1.9-3.6-3.3-5c-1.4-1.4-3.1-2.6-5-3.4c-1.9-0.8-4.1-1.2-6.4-1.2c-2.4,0-4.5,0.4-6.5,1.2
	c-0.2,0.1-0.4,0.2-0.7,0.3V2H1v29.5c0,2.2,0.4,4.2,1.2,6.2c0.8,1.9,1.9,3.6,3.3,5c1.4,1.4,3.1,2.6,5,3.4c2,0.8,4.1,1.3,6.5,1.3
	c2.4,0,4.5-0.4,6.4-1.3c1.9-0.8,3.6-2,5-3.4c1.4-1.4,2.5-3.1,3.3-5c0.8-1.9,1.2-4,1.2-6.2C32.7,29.3,32.4,27.3,31.6,25.4z
	 M23.5,34.5c-0.3,0.9-0.7,1.8-1.4,2.6c-0.6,0.8-1.4,1.4-2.2,1.8c-0.9,0.4-1.9,0.7-3,0.7c-1.1,0-2.2-0.2-3.1-0.7
	c-0.9-0.4-1.7-1-2.2-1.8c-0.6-0.8-1-1.6-1.4-2.6c-0.3-0.9-0.5-1.9-0.5-2.9c0-1,0.2-2,0.5-2.9c0.3-0.9,0.8-1.8,1.4-2.5
	c0.6-0.7,1.3-1.3,2.2-1.8c0.9-0.4,1.9-0.7,3.1-0.7c1.1,0,2.1,0.2,3,0.7c0.9,0.4,1.6,1,2.2,1.8c0.6,0.7,1.1,1.6,1.4,2.5
	c0.3,0.9,0.4,1.9,0.4,2.9C24,32.5,23.8,33.5,23.5,34.5z"/>
<path class="st0" d="M50.7,31.5c0-2.2,0.4-4.2,1.2-6.2c0.8-1.9,1.9-3.6,3.3-5c1.4-1.4,3.1-2.6,5-3.4c2-0.8,4.1-1.2,6.5-1.2
	c2.4,0,4.5,0.4,6.4,1.2c1.9,0.8,3.6,1.9,5,3.4c1.4,1.4,2.5,3.1,3.3,5c0.8,1.9,1.2,4,1.2,6.2c0,2.2-0.4,4.2-1.2,6.2
	c-0.8,1.9-1.9,3.6-3.3,5c-1.4,1.4-3.1,2.6-5,3.4c-1.9,0.8-4.1,1.3-6.4,1.3c-2.4,0-4.5-0.4-6.5-1.3c-2-0.8-3.6-2-5-3.4
	c-1.4-1.4-2.5-3.1-3.3-5C51.1,35.8,50.7,33.7,50.7,31.5z M66.6,39.5c1.1,0,2.1-0.2,3-0.7c0.9-0.4,1.6-1,2.2-1.8
	c0.6-0.8,1.1-1.6,1.4-2.6c0.3-0.9,0.4-1.9,0.4-2.9c0-1-0.1-2-0.4-2.9c-0.3-0.9-0.7-1.8-1.4-2.5c-0.6-0.7-1.4-1.3-2.2-1.8
	c-0.9-0.4-1.9-0.7-3-0.7c-1.1,0-2.2,0.2-3.1,0.7c-0.9,0.4-1.7,1-2.2,1.8c-0.6,0.7-1,1.6-1.4,2.5c-0.3,0.9-0.5,1.9-0.5,2.9
	c0,1,0.2,2,0.5,2.9c0.3,0.9,0.8,1.8,1.4,2.6c0.6,0.8,1.3,1.4,2.2,1.8C64.5,39.3,65.5,39.5,66.6,39.5z"/>
<path class="st1" d="M115.7,27.5v-8.8h-7.1V2h-8.8v29.5c0,2.2,0.4,4.2,1.2,6.2c0.8,1.9,1.9,3.6,3.3,5c1.4,1.4,3.1,2.6,5,3.4
	c1.9,0.8,4.1,1.3,6.4,1.3v-7.9c-1.1,0-2.1-0.2-3-0.7c-0.9-0.4-1.7-1-2.2-1.8c-0.6-0.8-1-1.6-1.4-2.6c-0.3-0.9-0.5-1.9-0.5-2.9v-4
	H115.7z"/>
<circle class="st0" cx="90.7" cy="41.6" r="5.8"/>
<path class="st1" d="M192.8,2h9.1v45.4h-9.1V2z"/>
<path class="st1" d="M211.1,37.2c1,0.9,2.2,1.6,3.8,2.2c1.6,0.6,3.1,0.9,4.6,0.9c1.3,0,2.5-0.2,3.3-0.5c0.9-0.3,1.3-1,1.3-2
	c0-0.4-0.1-0.7-0.3-1c-0.2-0.3-0.5-0.6-1-0.9c-0.5-0.3-1.2-0.6-2.1-0.9c-0.9-0.3-2.1-0.6-3.4-1c-1.1-0.3-2.3-0.7-3.4-1.2
	c-1.1-0.5-2.1-1.1-3-1.8c-0.9-0.7-1.6-1.6-2.1-2.6c-0.5-1-0.8-2.2-0.8-3.5c0-1.4,0.3-2.6,0.9-3.8c0.6-1.1,1.5-2.1,2.6-2.9
	c1.1-0.8,2.4-1.5,4-1.9c1.5-0.4,3.2-0.7,5-0.7c2.5,0,4.7,0.3,6.6,0.9c1.9,0.6,3.6,1.4,5.2,2.5l-3.9,6c-1-0.6-2.1-1.2-3.3-1.7
	c-1.2-0.5-2.6-0.8-4.2-0.8c-1.4,0-2.4,0.2-3,0.6c-0.6,0.4-0.9,0.9-0.9,1.6c0,1,0.7,1.7,2,2.1c1.3,0.5,3.1,1,5.3,1.6
	c3,0.8,5.2,2,6.6,3.5c1.4,1.5,2.1,3.4,2.1,5.9c0,1.6-0.4,3.1-1.1,4.2c-0.7,1.2-1.7,2.2-3,2.9c-1.2,0.8-2.7,1.4-4.2,1.7
	c-1.6,0.4-3.2,0.6-4.8,0.6c-2.7,0-5.2-0.4-7.5-1.1c-2.4-0.7-4.3-1.8-5.7-3.3L211.1,37.2z"/>
<g>
	<path class="st1" d="M167.2,18.1c-0.8,0-1.7,0-2.5,0.1v0c-8.1,0.4-15.4,4.8-19.8,11.3h2.4c5.8-6.4,12.5-7.4,17.4-6.9v0
		c8.3,0.7,13.6,5.7,13.6,11.7c0,5.5-4.6,10.2-11.5,11.5V48c0.1,0,0.3,0,0.4,0c11.6,0,21-6.7,21-14.9
		C188.2,24.8,178.8,18.1,167.2,18.1z"/>
	<path class="st1" d="M161.2,36.6c-5.8,6.4-12.5,7.4-17.4,6.9v0c-8.3-0.7-13.6-5.7-13.6-11.7c0-5.5,4.6-10.2,11.5-11.5v-2.2
		c-0.1,0-0.3,0-0.4,0c-11.6,0-21,6.7-21,14.9c0,8.3,9.4,14.9,21,14.9c0.8,0,1.7,0,2.5-0.1v0c8.1-0.4,15.4-4.8,19.8-11.3H161.2z"/>
</g>
</svg>
