<?xml version="1.0" encoding="utf-8"?>
<!-- Generator: Adobe Illustrator 19.0.0, SVG Export Plug-In . SVG Version: 6.00 Build 0)  -->
<svg version="1.1" id="Layer_1" xmlns="http://www.w3.org/2000/svg" xmlns:xlink="http://www.w3.org/1999/xlink" x="0px" y="0px"
	 width="22px" height="22px" viewBox="0 0 22 22" style="enable-background:new 0 0 22 22;" xml:space="preserve">
<style type="text/css">
	.st0{fill:#FFFFFF;}
</style>
<g>
	<path id="XMLID_14_" class="st0" d="M17,3c1.1,0,2,0.9,2,2v12c0,1.1-0.9,2-2,2H5c-1.1,0-2-0.9-2-2V5c0-1.1,0.9-2,2-2H17 M17,1H5
		C2.8,1,1,2.8,1,5v12c0,2.2,1.8,4,4,4h12c2.2,0,4-1.8,4-4V5C21,2.8,19.2,1,17,1L17,1z"/>
</g>
</svg>
