<?xml version="1.0" encoding="utf-8"?>
<!-- Generator: Adobe Illustrator 19.0.0, SVG Export Plug-In . SVG Version: 6.00 Build 0)  -->
<svg version="1.1" id="Layer_1" xmlns="http://www.w3.org/2000/svg" xmlns:xlink="http://www.w3.org/1999/xlink" x="0px" y="0px"
	 width="50px" height="50px" viewBox="0 0 50 50" style="enable-background:new 0 0 50 50;" xml:space="preserve">
<style type="text/css">
	.st0{fill:#FFFFFF;}
</style>
<g id="XMLID_12_">
	<path id="XMLID_13_" class="st0" d="M41,25.4c0-8.3-6.7-15-15-15s-15,6.7-15,15c0,6.6,4.2,12.2,10.1,14.2c0.4-0.3,0.8-0.6,0.8-1.1
		c0-0.8,0-2.9,0-2.9s-0.7,0.1-1.6,0.1c-2.3,0-3.1-1.5-3.4-2.3c-0.5-1.1-1.1-1.6-1.7-2c-0.4-0.2-0.5-0.5,0-0.6c2.1-0.4,2.6,2.3,4,2.8
		c1,0.3,2.3,0.2,2.9-0.2c0.1-0.8,0.7-1.6,1.2-1.9c-3.5-0.3-5.6-1.6-6.7-3.5l-0.1-0.2L16.1,27l-0.1-0.2c-0.3-1-0.5-2.1-0.5-3.4
		c0-2.3,0.7-3.1,1.7-4.3c-0.7-2.6,0.3-4.3,0.3-4.3s1.5-0.3,4.4,1.7c1.6-0.7,5.7-0.7,7.7-0.1c1.2-0.8,3.4-1.9,4.3-1.6
		c0.2,0.4,0.8,1.5,0.3,4c0.3,0.5,1.9,1.7,1.9,5c0,1.2-0.2,2.2-0.4,3.1l-0.1,0.4c0,0-0.1,0.2-0.2,0.4l-0.1,0.2
		c-1,2.3-3.2,3.1-6.6,3.5c1.1,0.7,1.4,1.6,1.4,4s0,2.7,0,3.3c0,0.5,0.4,0.8,0.7,1.1C36.7,37.6,41,32,41,25.4z"/>
</g>
</svg>
