<?xml version="1.0" encoding="utf-8"?>
<!-- Generator: Adobe Illustrator 19.0.0, SVG Export Plug-In . SVG Version: 6.00 Build 0)  -->
<svg version="1.1" id="Layer_1" xmlns="http://www.w3.org/2000/svg" xmlns:xlink="http://www.w3.org/1999/xlink" x="0px" y="0px"
	 width="50px" height="50px" viewBox="0 0 50 50" style="enable-background:new 0 0 50 50;" xml:space="preserve">
<style type="text/css">
	.st0{fill:none;}
	.st1{fill:none;stroke:#253A47;stroke-width:2;stroke-miterlimit:10;}
	.st2{fill:none;stroke:#253A47;stroke-width:2;stroke-linecap:round;stroke-miterlimit:10;}
</style>
<g>
	<circle id="XMLID_17_" class="st0" cx="25" cy="25" r="25"/>
</g>
<g>
	<path id="XMLID_11_" class="st1" d="M36.4,38.6c0,1.1-0.9,2-2,2H15.6c-1.1,0-2-0.9-2-2V23.2c0-1.1,0.9-2,2-2h18.7c1.1,0,2,0.9,2,2
		V38.6z"/>
</g>
<g id="XMLID_8_">
	<path id="XMLID_41_" class="st1" d="M5.1,18.2v-4.8c0-1.7,1.3-3,3-3h7.3c1.7,0,3,1.3,3,3v7.8"/>
</g>
<circle class="st1" cx="25.1" cy="31.1" r="5.5"/>
<line class="st2" x1="24.8" y1="28.9" x2="24.8" y2="33.4"/>
</svg>
