<?xml version="1.0" encoding="utf-8"?>
<!-- Generator: Adobe Illustrator 19.0.0, SVG Export Plug-In . SVG Version: 6.00 Build 0)  -->
<svg version="1.1" id="Layer_1" xmlns="http://www.w3.org/2000/svg" xmlns:xlink="http://www.w3.org/1999/xlink" x="0px" y="0px"
	 width="120px" height="120px" viewBox="0 0 120 120" style="enable-background:new 0 0 120 120;" xml:space="preserve">
<style type="text/css">
	.st0{fill:none;}
	.st1{fill:none;stroke:#54C8E3;stroke-width:2;stroke-linecap:round;stroke-miterlimit:10;}
</style>
<rect x="0.6" class="st0" width="120" height="120"/>
<g>
	<rect id="XMLID_13_" x="-0.6" class="st0" width="120" height="120"/>
</g>
<path class="st1" d="M106.6,36.9c-19.3,19.3-43.5-4.8-62.9,14.5s4.8,43.5-14.5,62.9"/>
<path class="st1" d="M12.2,83.1C31.5,63.7,55.7,87.9,75,68.6S70.2,25,89.5,5.7"/>
<line class="st1" x1="53.8" y1="52" x2="72" y2="70.2"/>
<line class="st1" x1="61" y1="48.7" x2="77.7" y2="65.5"/>
<line class="st1" x1="71.4" y1="48.7" x2="81.4" y2="58.7"/>
<line class="st1" x1="97" y1="34" x2="82.4" y2="19.5"/>
<line class="st1" x1="90.8" y1="38" x2="82.1" y2="29.3"/>
<line class="st1" x1="96.8" y1="23.6" x2="85" y2="11.9"/>
<line class="st1" x1="48.3" y1="57" x2="64.9" y2="73.5"/>
<line class="st1" x1="44.5" y1="63.7" x2="57.2" y2="76.4"/>
<line class="st1" x1="41.6" y1="71.2" x2="46.1" y2="75.7"/>
<line class="st1" x1="22.1" y1="85.6" x2="36.7" y2="100.2"/>
<line class="st1" x1="28.3" y1="81.7" x2="37" y2="90.3"/>
<line class="st1" x1="22.4" y1="96" x2="34.1" y2="107.8"/>
</svg>
