<?xml version="1.0" encoding="utf-8"?>
<!-- Generator: Adobe Illustrator 19.0.0, SVG Export Plug-In . SVG Version: 6.00 Build 0)  -->
<svg version="1.1" id="Layer_1" xmlns="http://www.w3.org/2000/svg" xmlns:xlink="http://www.w3.org/1999/xlink" x="0px" y="0px"
	 width="120px" height="120px" viewBox="0 0 120 120" style="enable-background:new 0 0 120 120;" xml:space="preserve">
<style type="text/css">
	.st0{fill:none;}
	.st1{fill:none;stroke:#54C8E3;stroke-width:2;stroke-miterlimit:10;}
	.st2{fill:#FAFAFA;stroke:#54C8E3;stroke-width:2;stroke-miterlimit:10;}
</style>
<rect class="st0" width="120" height="120"/>
<path class="st1" d="M106,99.5c0-13.2-13.2-13.2-13.2-13.2H27.1c0,0-13.2,0-13.2-13.2S27.1,60,27.1,60h65.8c0,0,13.2,0,13.2-13.2
	S92.9,33.7,92.9,33.7H27.1c0,0-13.2,0-13.2-13.2"/>
<circle class="st2" cx="85" cy="33.6" r="7"/>
<circle class="st2" cx="60" cy="33.6" r="7"/>
<circle class="st2" cx="35" cy="33.6" r="7"/>
<circle class="st2" cx="85" cy="60" r="7"/>
<circle class="st2" cx="60" cy="60" r="7"/>
<circle class="st2" cx="35" cy="60" r="7"/>
<circle class="st2" cx="85" cy="86.4" r="7"/>
<circle class="st2" cx="60" cy="86.4" r="7"/>
<circle class="st2" cx="35" cy="86.4" r="7"/>
</svg>
