<?xml version="1.0" encoding="utf-8"?>
<!-- Generator: Adobe Illustrator 19.0.0, SVG Export Plug-In . SVG Version: 6.00 Build 0)  -->
<svg version="1.1" id="Layer_1" xmlns="http://www.w3.org/2000/svg" xmlns:xlink="http://www.w3.org/1999/xlink" x="0px" y="0px"
	 width="120px" height="120px" viewBox="0 0 120 120" style="enable-background:new 0 0 120 120;" xml:space="preserve">
<style type="text/css">
	.st0{fill:none;}
	.st1{fill:none;stroke:#54C8E3;stroke-width:2;stroke-linecap:round;stroke-linejoin:round;stroke-miterlimit:10;}
</style>
<g>
	<rect id="XMLID_13_" class="st0" width="120" height="120"/>
</g>
<g>
	<line class="st1" x1="24.2" y1="29.7" x2="24.2" y2="42.3"/>
	<line class="st1" x1="14.2" y1="29.7" x2="14.2" y2="42.3"/>
	<line class="st1" x1="28.5" y1="29.7" x2="28.5" y2="42.3"/>
	<line class="st1" x1="41" y1="29.7" x2="41" y2="42.3"/>
	<line class="st1" x1="36.8" y1="29.7" x2="36.8" y2="42.3"/>
	<line class="st1" x1="32.7" y1="29.7" x2="32.7" y2="42.3"/>
	<line class="st1" x1="45.2" y1="29.7" x2="45.2" y2="42.3"/>
	<line class="st1" x1="75.2" y1="29.7" x2="75.2" y2="42.3"/>
	<line class="st1" x1="85.8" y1="29.7" x2="85.8" y2="42.3"/>
	<line class="st1" x1="95.8" y1="29.7" x2="95.8" y2="42.3"/>
	<line class="st1" x1="105.8" y1="29.7" x2="105.8" y2="42.3"/>
	<line class="st1" x1="55.2" y1="29.7" x2="55.2" y2="42.3"/>
	<line class="st1" x1="65.2" y1="29.7" x2="65.2" y2="42.3"/>
	<line class="st1" x1="95.8" y1="53.7" x2="95.8" y2="66.3"/>
	<line class="st1" x1="105.8" y1="53.7" x2="105.8" y2="66.3"/>
	<line class="st1" x1="91.6" y1="53.7" x2="91.6" y2="66.3"/>
	<line class="st1" x1="87.3" y1="53.7" x2="87.3" y2="66.3"/>
	<line class="st1" x1="78.9" y1="53.7" x2="78.9" y2="66.3"/>
	<line class="st1" x1="83.2" y1="53.7" x2="83.2" y2="66.3"/>
	<line class="st1" x1="74.8" y1="53.7" x2="74.8" y2="66.3"/>
	<line class="st1" x1="44.8" y1="53.7" x2="44.8" y2="66.3"/>
	<line class="st1" x1="34.2" y1="53.7" x2="34.2" y2="66.3"/>
	<line class="st1" x1="24.2" y1="53.7" x2="24.2" y2="66.3"/>
	<line class="st1" x1="44.8" y1="77.7" x2="44.8" y2="90.3"/>
	<line class="st1" x1="34.2" y1="77.7" x2="34.2" y2="90.3"/>
	<line class="st1" x1="24.2" y1="77.7" x2="24.2" y2="90.3"/>
	<line class="st1" x1="14.2" y1="53.7" x2="14.2" y2="66.3"/>
	<line class="st1" x1="64.8" y1="53.7" x2="64.8" y2="66.3"/>
	<line class="st1" x1="54.8" y1="53.7" x2="54.8" y2="66.3"/>
	<line class="st1" x1="105.8" y1="77.7" x2="105.8" y2="90.3"/>
	<line class="st1" x1="95.8" y1="77.7" x2="95.8" y2="90.3"/>
	<line class="st1" x1="85.8" y1="77.7" x2="85.8" y2="90.3"/>
	<line class="st1" x1="75.8" y1="77.7" x2="75.8" y2="90.3"/>
	<line class="st1" x1="71.6" y1="77.7" x2="71.6" y2="90.3"/>
	<line class="st1" x1="67.3" y1="77.7" x2="67.3" y2="90.3"/>
	<line class="st1" x1="59" y1="77.7" x2="59" y2="90.3"/>
	<line class="st1" x1="63.2" y1="77.7" x2="63.2" y2="90.3"/>
	<line class="st1" x1="54.8" y1="77.7" x2="54.8" y2="90.3"/>
	<line class="st1" x1="14.2" y1="77.7" x2="14.2" y2="90.3"/>
</g>
</svg>
