<?xml version="1.0" encoding="utf-8"?>
<!-- Generator: Adobe Illustrator 19.0.0, SVG Export Plug-In . SVG Version: 6.00 Build 0)  -->
<svg version="1.1" id="Layer_1" xmlns="http://www.w3.org/2000/svg" xmlns:xlink="http://www.w3.org/1999/xlink" x="0px" y="0px"
	 width="170px" height="46px" viewBox="0 0 170 46" style="enable-background:new 0 0 170 46;" xml:space="preserve">
<style type="text/css">
	.st0{fill:#FFFFFF;}
	.st1{fill:#253A47;}
	.st2{fill:#54C8E3;}
</style>
<path class="st0" d="M0,0v46h147c12.7,0,23-10.3,23-23V0H0z"/>
<g>
	<path class="st1" d="M45.7,18.6h4.2v14.7h-4.2V18.6z"/>
	<path class="st1" d="M42.9,23.2c-0.4-0.9-0.9-1.7-1.6-2.4c-0.7-0.7-1.5-1.2-2.4-1.6c-0.9-0.4-2-0.6-3.1-0.6c-1.1,0-2.2,0.2-3.1,0.6
		c-0.1,0-0.2,0.1-0.3,0.2V12h-4.2v14.1c0,1,0.2,2,0.6,2.9c0.4,0.9,0.9,1.7,1.6,2.4c0.7,0.7,1.5,1.2,2.4,1.6c0.9,0.4,2,0.6,3.1,0.6
		c1.1,0,2.2-0.2,3.1-0.6c0.9-0.4,1.7-0.9,2.4-1.6c0.7-0.7,1.2-1.5,1.6-2.4c0.4-0.9,0.6-1.9,0.6-2.9C43.5,25.1,43.3,24.1,42.9,23.2z
		 M39,27.5c-0.1,0.5-0.4,0.9-0.6,1.2c-0.3,0.4-0.6,0.6-1.1,0.9c-0.4,0.2-0.9,0.3-1.4,0.3c-0.5,0-1-0.1-1.5-0.3
		c-0.4-0.2-0.8-0.5-1.1-0.9c-0.3-0.4-0.5-0.8-0.6-1.2c-0.2-0.5-0.2-0.9-0.2-1.4c0-0.5,0.1-1,0.2-1.4c0.2-0.5,0.4-0.9,0.6-1.2
		c0.3-0.4,0.6-0.6,1.1-0.8c0.4-0.2,0.9-0.3,1.5-0.3c0.5,0,1,0.1,1.4,0.3c0.4,0.2,0.8,0.5,1.1,0.8c0.3,0.4,0.5,0.8,0.6,1.2
		c0.1,0.5,0.2,0.9,0.2,1.4C39.3,26.6,39.2,27.1,39,27.5z"/>
	<path class="st1" d="M52.1,26.1c0-1,0.2-2,0.6-2.9c0.4-0.9,0.9-1.7,1.6-2.4c0.7-0.7,1.5-1.2,2.4-1.6c0.9-0.4,2-0.6,3.1-0.6
		c1.1,0,2.2,0.2,3.1,0.6c0.9,0.4,1.7,0.9,2.4,1.6c0.7,0.7,1.2,1.5,1.6,2.4c0.4,0.9,0.6,1.9,0.6,2.9c0,1-0.2,2-0.6,2.9
		c-0.4,0.9-0.9,1.7-1.6,2.4c-0.7,0.7-1.5,1.2-2.4,1.6c-0.9,0.4-2,0.6-3.1,0.6c-1.1,0-2.2-0.2-3.1-0.6c-0.9-0.4-1.7-0.9-2.4-1.6
		c-0.7-0.7-1.2-1.5-1.6-2.4C52.2,28.2,52.1,27.2,52.1,26.1z M59.7,29.9c0.5,0,1-0.1,1.4-0.3c0.4-0.2,0.8-0.5,1.1-0.9
		c0.3-0.4,0.5-0.8,0.6-1.2c0.1-0.5,0.2-0.9,0.2-1.4c0-0.5-0.1-1-0.2-1.4c-0.1-0.5-0.4-0.9-0.6-1.2c-0.3-0.4-0.6-0.6-1.1-0.8
		c-0.4-0.2-0.9-0.3-1.4-0.3c-0.5,0-1,0.1-1.5,0.3c-0.4,0.2-0.8,0.5-1.1,0.8c-0.3,0.4-0.5,0.8-0.6,1.2c-0.2,0.5-0.2,0.9-0.2,1.4
		c0,0.5,0.1,1,0.2,1.4c0.2,0.5,0.4,0.9,0.6,1.2c0.3,0.4,0.6,0.6,1.1,0.9C58.6,29.8,59.1,29.9,59.7,29.9z"/>
	<path class="st2" d="M83.1,24.2V20h-3.4v-8h-4.2v14.1c0,1,0.2,2,0.6,2.9c0.4,0.9,0.9,1.7,1.6,2.4c0.7,0.7,1.5,1.2,2.4,1.6
		c0.9,0.4,2,0.6,3.1,0.6v-3.8c-0.5,0-1-0.1-1.4-0.3c-0.4-0.2-0.8-0.5-1.1-0.9c-0.3-0.4-0.5-0.8-0.6-1.2c-0.2-0.5-0.2-0.9-0.2-1.4
		v-1.9H83.1z"/>
	<circle class="st1" cx="71.2" cy="31" r="2.8"/>
	<path class="st2" d="M120,12h4.3v21.7H120V12z"/>
	<path class="st2" d="M128.8,28.8c0.5,0.4,1.1,0.8,1.8,1.1c0.8,0.3,1.5,0.4,2.2,0.4c0.6,0,1.2-0.1,1.6-0.2c0.4-0.2,0.6-0.5,0.6-0.9
		c0-0.2,0-0.3-0.1-0.5c-0.1-0.2-0.3-0.3-0.5-0.4c-0.2-0.1-0.6-0.3-1-0.4c-0.4-0.1-1-0.3-1.6-0.5c-0.5-0.1-1.1-0.3-1.6-0.6
		c-0.5-0.2-1-0.5-1.4-0.9c-0.4-0.3-0.7-0.8-1-1.2c-0.3-0.5-0.4-1-0.4-1.7c0-0.7,0.2-1.3,0.5-1.8c0.3-0.5,0.7-1,1.3-1.4
		c0.5-0.4,1.2-0.7,1.9-0.9c0.7-0.2,1.5-0.3,2.4-0.3c1.2,0,2.3,0.1,3.2,0.4c0.9,0.3,1.7,0.7,2.5,1.2l-1.8,2.9c-0.5-0.3-1-0.6-1.6-0.8
		c-0.6-0.2-1.3-0.4-2-0.4c-0.7,0-1.1,0.1-1.4,0.3c-0.3,0.2-0.5,0.4-0.5,0.8c0,0.5,0.3,0.8,0.9,1c0.6,0.2,1.5,0.5,2.5,0.8
		c1.4,0.4,2.5,1,3.2,1.7c0.7,0.7,1,1.6,1,2.8c0,0.8-0.2,1.5-0.5,2c-0.4,0.6-0.8,1-1.4,1.4c-0.6,0.4-1.3,0.6-2,0.8
		c-0.8,0.2-1.5,0.3-2.3,0.3c-1.3,0-2.5-0.2-3.6-0.5c-1.1-0.3-2-0.9-2.7-1.6L128.8,28.8z"/>
	<g>
		<path class="st2" d="M107.8,19.7c-0.4,0-0.8,0-1.2,0.1v0c-3.9,0.2-7.4,2.3-9.5,5.4h1.1c2.8-3,6-3.5,8.3-3.3v0
			c4,0.3,6.5,2.7,6.5,5.6c0,2.7-2.2,4.9-5.5,5.5V34c0.1,0,0.1,0,0.2,0c5.5,0,10-3.2,10-7.1C117.8,22.9,113.3,19.7,107.8,19.7z"/>
		<path class="st2" d="M104.9,28.6c-2.8,3-6,3.5-8.3,3.3v0c-4-0.3-6.5-2.7-6.5-5.6c0-2.7,2.2-4.9,5.5-5.5v-1.1c-0.1,0-0.1,0-0.2,0
			c-5.5,0-10,3.2-10,7.1c0,3.9,4.5,7.1,10,7.1c0.4,0,0.8,0,1.2-0.1v0c3.9-0.2,7.4-2.3,9.5-5.4H104.9z"/>
	</g>
</g>
</svg>
